<svg width="86" height="86" viewBox="0 0 86 86" fill="none" xmlns="http://www.w3.org/2000/svg">
<path fill-rule="evenodd" clip-rule="evenodd" d="M38.2211 44.2935L68.0866 74.1589C69.7637 75.8361 72.4825 75.8361 74.1591 74.1595C75.8357 72.4829 75.8357 69.7641 74.1585 68.0869L44.2931 38.2215L38.2211 44.2935ZM29.2396 29.24C26.7817 31.6979 26.7822 35.683 29.2402 38.141L66.6723 75.5731C69.1303 78.0311 73.1155 78.0316 75.5733 75.5737C78.0312 73.1158 78.0307 69.1307 75.5727 66.6727L38.1406 29.2406C35.6826 26.7826 31.6975 26.7821 29.2396 29.24Z" fill="#4D4D4D"/>
<path d="M8.0625 32.25H16.125H8.0625ZM15.1474 15.1474L20.8483 20.8483L15.1474 15.1474ZM32.25 8.0625V16.125V8.0625ZM49.3526 15.1474L43.6517 20.8483L49.3526 15.1474ZM20.8483 43.6517L15.1474 49.3526L20.8483 43.6517Z" fill="#4D4D4D"/>
<path d="M8.0625 32.25H16.125M15.1474 15.1474L20.8483 20.8483M32.25 8.0625V16.125M49.3526 15.1474L43.6517 20.8483M20.8483 43.6517L15.1474 49.3526" stroke="#4D4D4D" stroke-width="2" stroke-miterlimit="10" stroke-linecap="round"/>
</svg>
