<svg width="86" height="86" viewBox="0 0 86 86" fill="none" xmlns="http://www.w3.org/2000/svg">
<path fill-rule="evenodd" clip-rule="evenodd" d="M14.7812 1.6875C15.195 1.6875 15.5661 1.94233 15.7146 2.32852L18.9144 10.6481L27.234 13.8479C27.6202 13.9964 27.875 14.3675 27.875 14.7812C27.875 15.195 27.6202 15.5661 27.234 15.7146L18.9144 18.9144L15.7146 27.234C15.5661 27.6202 15.195 27.875 14.7812 27.875C14.3675 27.875 13.9964 27.6202 13.8479 27.234L10.6481 18.9144L2.32852 15.7146C1.94233 15.5661 1.6875 15.195 1.6875 14.7812C1.6875 14.3675 1.94233 13.9964 2.32852 13.8479L10.6481 10.6481L13.8479 2.32852C13.9964 1.94233 14.3675 1.6875 14.7812 1.6875ZM14.7812 5.47318L12.3552 11.7809C12.2536 12.0449 12.0449 12.2536 11.7809 12.3552L5.47318 14.7812L11.7809 17.2073C12.0449 17.3089 12.2536 17.5176 12.3552 17.7816L14.7812 24.0893L17.2073 17.7816C17.3089 17.5176 17.5176 17.3089 17.7816 17.2073L24.0893 14.7812L17.7816 12.3552C17.5176 12.2536 17.3089 12.0449 17.2073 11.7809L14.7812 5.47318ZM67.1875 7.0625C67.6012 7.0625 67.9723 7.3173 68.1208 7.70347L72.441 18.934L83.6715 23.2542C84.0577 23.4027 84.3125 23.7738 84.3125 24.1875C84.3125 24.6012 84.0577 24.9723 83.6715 25.1208L72.441 29.441L68.1208 40.6715C67.9723 41.0577 67.6012 41.3125 67.1875 41.3125C66.7738 41.3125 66.4027 41.0577 66.2542 40.6715L61.934 29.441L50.7035 25.1208C50.3173 24.9723 50.0625 24.6012 50.0625 24.1875C50.0625 23.7738 50.3173 23.4027 50.7035 23.2542L61.934 18.934L66.2542 7.70347C66.4027 7.3173 66.7738 7.0625 67.1875 7.0625ZM67.1875 10.8478L63.6411 20.0668C63.5395 20.3309 63.3309 20.5395 63.0668 20.6411L53.8478 24.1875L63.0668 27.7339C63.3309 27.8355 63.5395 28.0441 63.6411 28.3082L67.1875 37.5272L70.7339 28.3082C70.8355 28.0441 71.0441 27.8355 71.3082 27.7339L80.5272 24.1875L71.3082 20.6411C71.0441 20.5395 70.8355 20.3309 70.7339 20.0668L67.1875 10.8478ZM33.5156 23.6289C33.9341 23.3415 34.4298 23.1877 34.9375 23.1877C35.4452 23.1877 35.9409 23.3415 36.3594 23.6289C36.7779 23.9164 37.0995 24.3238 37.2818 24.7977L44.5918 43.8017L44.5918 43.8017C44.6175 43.8686 44.657 43.9293 44.7076 43.9799C44.7582 44.0305 44.8189 44.07 44.8858 44.0957L44.8858 44.0957L63.8898 51.4057C64.3637 51.588 64.7712 51.9096 65.0586 52.3281C65.346 52.7466 65.4998 53.2423 65.4998 53.75C65.4998 54.2577 65.346 54.7534 65.0586 55.1719C64.7712 55.5904 64.3637 55.912 63.8898 56.0943L44.8858 63.4043L44.8858 63.4043C44.8189 63.43 44.7582 63.4695 44.7076 63.5201C44.657 63.5707 44.6175 63.6314 44.5918 63.6983L44.5918 63.6983L37.2818 82.7023C37.0995 83.1762 36.7779 83.5836 36.3594 83.8711C35.9409 84.1585 35.4452 84.3123 34.9375 84.3123C34.4298 84.3123 33.9341 84.1585 33.5156 83.8711C33.0971 83.5836 32.7755 83.1762 32.5932 82.7023L25.2832 63.6983L25.2832 63.6983C25.2575 63.6314 25.218 63.5707 25.1674 63.5201C25.1168 63.4695 25.0561 63.43 24.9892 63.4043L24.9892 63.4043L5.98517 56.0943C5.51133 55.912 5.10385 55.5904 4.81644 55.1719C4.52903 54.7534 4.37518 54.2577 4.37518 53.75C4.37518 53.2423 4.52903 52.7466 4.81644 52.3281C5.10385 51.9096 5.51133 51.588 5.98517 51.4057L24.9892 44.0957L24.9892 44.0957C25.0561 44.07 25.1168 44.0305 25.1674 43.9799C25.218 43.9293 25.2575 43.8686 25.2832 43.8017L25.2832 43.8017L32.5932 24.7977C32.7755 24.3238 33.0971 23.9164 33.5156 23.6289ZM34.9375 25.1877C34.8341 25.1877 34.7331 25.219 34.6478 25.2776C34.5625 25.3361 34.497 25.4192 34.4599 25.5157L27.1499 44.5196C27.0238 44.8477 26.8302 45.1456 26.5816 45.3941C26.3331 45.6427 26.0352 45.8362 25.7072 45.9624C25.7071 45.9624 25.7071 45.9624 25.7071 45.9624L6.70319 53.2724C6.60666 53.3095 6.52364 53.375 6.46508 53.4603C6.40653 53.5456 6.37518 53.6466 6.37518 53.75C6.37518 53.8534 6.40653 53.9544 6.46508 54.0397C6.52364 54.125 6.60666 54.1905 6.70319 54.2276L25.7071 61.5376C25.7071 61.5376 25.7071 61.5376 25.7072 61.5376C26.0352 61.6638 26.3331 61.8573 26.5816 62.1059C26.8302 62.3544 27.0238 62.6523 27.1499 62.9804L34.4599 81.9843C34.497 82.0808 34.5625 82.1639 34.6478 82.2224C34.7331 82.281 34.8341 82.3123 34.9375 82.3123C35.0409 82.3123 35.1419 82.281 35.2272 82.2224C35.3125 82.1639 35.378 82.0808 35.4151 81.9843L42.7251 62.9804C42.8512 62.6524 43.0448 62.3544 43.2934 62.1059C43.5419 61.8573 43.8399 61.6637 44.1679 61.5376L63.1718 54.2276C63.2683 54.1905 63.3514 54.125 63.4099 54.0397C63.4685 53.9544 63.4998 53.8534 63.4998 53.75C63.4998 53.6466 63.4685 53.5456 63.4099 53.4603C63.3514 53.375 63.2683 53.3095 63.1718 53.2724L44.1679 45.9624C43.8399 45.8363 43.5419 45.6427 43.2934 45.3941C43.0448 45.1456 42.8512 44.8476 42.7251 44.5196L35.4151 25.5157C35.378 25.4192 35.3125 25.3361 35.2272 25.2776C35.1419 25.219 35.0409 25.1877 34.9375 25.1877Z" fill="#4D4D4D"/>
</svg>
