<svg width="87" height="86" viewBox="0 0 87 86" fill="none" xmlns="http://www.w3.org/2000/svg">
<line x1="25" y1="19" x2="25" y2="73" stroke="url(#paint0_linear_254_8854)"/>
<line x1="10.5" y1="37.5" x2="79.5" y2="37.5" stroke="url(#paint1_linear_254_8854)"/>
<path fill-rule="evenodd" clip-rule="evenodd" d="M78.375 26.5082C76.691 24.0527 73.2809 21.4375 71.3125 21.4375H17.5625C15.397 21.4375 11.8112 23.9534 10.5 26.3367V65.4375C10.5 69.338 13.662 72.5 17.5625 72.5H71.3125C75.213 72.5 78.375 69.338 78.375 65.4375V26.5082ZM17.5625 8C12.5574 8 8.5 12.0574 8.5 17.0625V65.4375C8.5 70.4426 12.5574 74.5 17.5625 74.5H71.3125C76.3176 74.5 80.375 70.4426 80.375 65.4375V17.0625C80.375 12.0574 76.3176 8 71.3125 8H68.2588H20.6162H17.5625Z" fill="url(#paint2_linear_254_8854)"/>
<defs>
<linearGradient id="paint0_linear_254_8854" x1="24" y1="19" x2="24" y2="73" gradientUnits="userSpaceOnUse">
<stop stop-color="#F29130"/>
<stop offset="1" stop-color="#E2650B"/>
</linearGradient>
<linearGradient id="paint1_linear_254_8854" x1="10.5" y1="38.5" x2="79.5" y2="38.5" gradientUnits="userSpaceOnUse">
<stop stop-color="#F29130"/>
<stop offset="1" stop-color="#E2650B"/>
</linearGradient>
<linearGradient id="paint2_linear_254_8854" x1="8.5" y1="41.2478" x2="80.3742" y2="41.2478" gradientUnits="userSpaceOnUse">
<stop stop-color="#E22D75"/>
<stop offset="1" stop-color="#EA7269"/>
</linearGradient>
</defs>
</svg>
