<svg width="87" height="86" viewBox="0 0 87 86" fill="none" xmlns="http://www.w3.org/2000/svg">
<path fill-rule="evenodd" clip-rule="evenodd" d="M38.7211 44.2935L68.5866 74.1589C70.2638 75.8361 72.9825 75.8361 74.6592 74.1595C76.3358 72.4829 76.3357 69.7641 74.6586 68.0869L44.7931 38.2215L38.7211 44.2935ZM29.7396 29.24C27.2818 31.6979 27.2822 35.683 29.7402 38.141L67.1724 75.5731C69.6304 78.0311 73.6155 78.0316 76.0734 75.5737C78.5312 73.1158 78.5308 69.1307 76.0728 66.6727L38.6406 29.2406C36.1826 26.7826 32.1975 26.7821 29.7396 29.24Z" fill="url(#paint0_linear_254_9136)"/>
<path d="M8.5625 32.25H16.625H8.5625ZM15.6474 15.1474L21.3483 20.8483L15.6474 15.1474ZM32.75 8.0625V16.125V8.0625ZM49.8526 15.1474L44.1517 20.8483L49.8526 15.1474ZM21.3483 43.6517L15.6474 49.3526L21.3483 43.6517Z" fill="url(#paint1_linear_254_9136)"/>
<path d="M8.5625 32.25H16.625M15.6474 15.1474L21.3483 20.8483M32.75 8.0625V16.125M49.8526 15.1474L44.1517 20.8483M21.3483 43.6517L15.6474 49.3526" stroke="url(#paint2_linear_254_9136)" stroke-width="3" stroke-miterlimit="10" stroke-linecap="round"/>
<defs>
<linearGradient id="paint0_linear_254_9136" x1="27.8965" y1="52.4052" x2="77.916" y2="52.4052" gradientUnits="userSpaceOnUse">
<stop stop-color="#E22D75"/>
<stop offset="1" stop-color="#EA7269"/>
</linearGradient>
<linearGradient id="paint1_linear_254_9136" x1="8.5625" y1="28.7075" x2="49.8526" y2="28.7075" gradientUnits="userSpaceOnUse">
<stop stop-color="#F29130"/>
<stop offset="1" stop-color="#E2650B"/>
</linearGradient>
<linearGradient id="paint2_linear_254_9136" x1="8.5625" y1="28.7075" x2="49.8526" y2="28.7075" gradientUnits="userSpaceOnUse">
<stop stop-color="#F29130"/>
<stop offset="1" stop-color="#E2650B"/>
</linearGradient>
</defs>
</svg>
