<svg width="87" height="86" viewBox="0 0 87 86" fill="none" xmlns="http://www.w3.org/2000/svg">
<path fill-rule="evenodd" clip-rule="evenodd" d="M15.2812 1.6875C15.695 1.6875 16.0661 1.94233 16.2146 2.32852L19.4144 10.6481L27.734 13.8479C28.1202 13.9964 28.375 14.3675 28.375 14.7812C28.375 15.195 28.1202 15.5661 27.734 15.7146L19.4144 18.9144L16.2146 27.234C16.0661 27.6202 15.695 27.875 15.2812 27.875C14.8675 27.875 14.4964 27.6202 14.3479 27.234L11.1481 18.9144L2.82852 15.7146C2.44233 15.5661 2.1875 15.195 2.1875 14.7812C2.1875 14.3675 2.44233 13.9964 2.82852 13.8479L11.1481 10.6481L14.3479 2.32852C14.4964 1.94233 14.8675 1.6875 15.2812 1.6875ZM15.2812 5.47318L12.8552 11.7809C12.7536 12.0449 12.5449 12.2536 12.2809 12.3552L5.97318 14.7812L12.2809 17.2073C12.5449 17.3089 12.7536 17.5176 12.8552 17.7816L15.2812 24.0893L17.7073 17.7816C17.8089 17.5176 18.0176 17.3089 18.2816 17.2073L24.5893 14.7812L18.2816 12.3552C18.0176 12.2536 17.8089 12.0449 17.7073 11.7809L15.2812 5.47318ZM67.6875 7.0625C68.1012 7.0625 68.4723 7.3173 68.6208 7.70347L72.941 18.934L84.1715 23.2542C84.5577 23.4027 84.8125 23.7738 84.8125 24.1875C84.8125 24.6012 84.5577 24.9723 84.1715 25.1208L72.941 29.441L68.6208 40.6715C68.4723 41.0577 68.1012 41.3125 67.6875 41.3125C67.2738 41.3125 66.9027 41.0577 66.7542 40.6715L62.434 29.441L51.2035 25.1208C50.8173 24.9723 50.5625 24.6012 50.5625 24.1875C50.5625 23.7738 50.8173 23.4027 51.2035 23.2542L62.434 18.934L66.7542 7.70347C66.9027 7.3173 67.2738 7.0625 67.6875 7.0625ZM67.6875 10.8478L64.1411 20.0668C64.0395 20.3309 63.8309 20.5395 63.5668 20.6411L54.3478 24.1875L63.5668 27.7339C63.8309 27.8355 64.0395 28.0441 64.1411 28.3082L67.6875 37.5272L71.2339 28.3082C71.3355 28.0441 71.5441 27.8355 71.8082 27.7339L81.0272 24.1875L71.8082 20.6411C71.5441 20.5395 71.3355 20.3309 71.2339 20.0668L67.6875 10.8478ZM34.0156 23.6289C34.4341 23.3415 34.9298 23.1877 35.4375 23.1877C35.9452 23.1877 36.4409 23.3415 36.8594 23.6289C37.2779 23.9164 37.5995 24.3238 37.7818 24.7977L45.0918 43.8017L45.0918 43.8017C45.1175 43.8686 45.157 43.9293 45.2076 43.9799C45.2582 44.0305 45.3189 44.07 45.3858 44.0957L45.3858 44.0957L64.3898 51.4057C64.8637 51.588 65.2712 51.9096 65.5586 52.3281C65.846 52.7466 65.9998 53.2423 65.9998 53.75C65.9998 54.2577 65.846 54.7534 65.5586 55.1719C65.2712 55.5904 64.8637 55.912 64.3898 56.0943L45.3858 63.4043L45.3858 63.4043C45.3189 63.43 45.2582 63.4695 45.2076 63.5201C45.157 63.5707 45.1175 63.6314 45.0918 63.6983L45.0918 63.6983L37.7818 82.7023C37.5995 83.1762 37.2779 83.5836 36.8594 83.8711C36.4409 84.1585 35.9452 84.3123 35.4375 84.3123C34.9298 84.3123 34.4341 84.1585 34.0156 83.8711C33.5971 83.5836 33.2755 83.1762 33.0932 82.7023L25.7832 63.6983L25.7832 63.6983C25.7575 63.6314 25.718 63.5707 25.6674 63.5201C25.6168 63.4695 25.5561 63.43 25.4892 63.4043L25.4892 63.4043L6.48517 56.0943C6.01133 55.912 5.60385 55.5904 5.31644 55.1719C5.02903 54.7534 4.87518 54.2577 4.87518 53.75C4.87518 53.2423 5.02903 52.7466 5.31644 52.3281C5.60385 51.9096 6.01133 51.588 6.48517 51.4057L25.4892 44.0957L25.4892 44.0957C25.5561 44.07 25.6168 44.0305 25.6674 43.9799C25.718 43.9293 25.7575 43.8686 25.7832 43.8017L25.7832 43.8017L33.0932 24.7977C33.2755 24.3238 33.5971 23.9164 34.0156 23.6289ZM35.4375 25.1877C35.3341 25.1877 35.2331 25.219 35.1478 25.2776C35.0625 25.3361 34.997 25.4192 34.9599 25.5157L27.6499 44.5196C27.5238 44.8477 27.3302 45.1456 27.0816 45.3941C26.8331 45.6427 26.5352 45.8362 26.2072 45.9624C26.2071 45.9624 26.2071 45.9624 26.2071 45.9624L7.20319 53.2724C7.10666 53.3095 7.02364 53.375 6.96508 53.4603C6.90653 53.5456 6.87518 53.6466 6.87518 53.75C6.87518 53.8534 6.90653 53.9544 6.96508 54.0397C7.02364 54.125 7.10666 54.1905 7.20319 54.2276L26.2071 61.5376C26.2071 61.5376 26.2071 61.5376 26.2072 61.5376C26.5352 61.6638 26.8331 61.8573 27.0816 62.1059C27.3302 62.3544 27.5238 62.6523 27.6499 62.9804L34.9599 81.9843C34.997 82.0808 35.0625 82.1639 35.1478 82.2224C35.2331 82.281 35.3341 82.3123 35.4375 82.3123C35.5409 82.3123 35.6419 82.281 35.7272 82.2224C35.8125 82.1639 35.878 82.0808 35.9151 81.9843L43.2251 62.9804C43.3512 62.6524 43.5448 62.3544 43.7934 62.1059C44.0419 61.8573 44.3399 61.6637 44.6679 61.5376L63.6718 54.2276C63.7683 54.1905 63.8514 54.125 63.9099 54.0397C63.9685 53.9544 63.9998 53.8534 63.9998 53.75C63.9998 53.6466 63.9685 53.5456 63.9099 53.4603C63.8514 53.375 63.7683 53.3095 63.6718 53.2724L44.6679 45.9624C44.3399 45.8363 44.0419 45.6427 43.7934 45.3941C43.5448 45.1456 43.3512 44.8476 43.2251 44.5196L35.9151 25.5157C35.878 25.4192 35.8125 25.3361 35.7272 25.2776C35.6419 25.219 35.5409 25.1877 35.4375 25.1877Z" fill="url(#paint0_linear_254_9192)"/>
<defs>
<linearGradient id="paint0_linear_254_9192" x1="2.1875" y1="42.9971" x2="84.8116" y2="42.9971" gradientUnits="userSpaceOnUse">
<stop stop-color="#E22D75"/>
<stop offset="1" stop-color="#EA7269"/>
</linearGradient>
</defs>
</svg>
