<svg width="87" height="86" viewBox="0 0 87 86" fill="none" xmlns="http://www.w3.org/2000/svg">
<path fill-rule="evenodd" clip-rule="evenodd" d="M77.4375 29.6994C75.7535 26.7415 72.3434 23.1875 70.375 23.1875H16.625C14.6566 23.1875 11.2465 26.7415 9.5625 29.6994V67.1875C9.5625 71.088 12.7245 74.25 16.625 74.25H70.375C74.2755 74.25 77.4375 71.088 77.4375 67.1875V29.6994ZM16.625 9.75C11.6199 9.75 7.5625 13.8074 7.5625 18.8125V67.1875C7.5625 72.1926 11.6199 76.25 16.625 76.25H70.375C75.3801 76.25 79.4375 72.1926 79.4375 67.1875V18.8125C79.4375 13.8074 75.3801 9.75 70.375 9.75H67.3213H19.6787H16.625Z" fill="url(#paint0_linear_254_9157)"/>
<path fill-rule="evenodd" clip-rule="evenodd" d="M34.615 37.6654C34.8228 37.4835 34.8438 37.1676 34.662 36.9598C34.4802 36.752 34.1643 36.7309 33.9565 36.9128L21.6707 47.6628C21.5622 47.7577 21.5 47.8949 21.5 48.0391C21.5 48.1833 21.5622 48.3204 21.6707 48.4154L33.9565 59.1654C34.1643 59.3472 34.4802 59.3261 34.662 59.1183C34.8438 58.9105 34.8228 58.5946 34.615 58.4128L22.7593 48.0391L34.615 37.6654ZM53.0435 36.9128C52.8357 36.7309 52.5198 36.752 52.338 36.9598C52.1562 37.1676 52.1772 37.4835 52.385 37.6654L64.2407 48.0391L52.385 58.4128C52.1772 58.5946 52.1562 58.9105 52.338 59.1183C52.5198 59.3261 52.8357 59.3472 53.0435 59.1654L65.3293 48.4154C65.4378 48.3204 65.5 48.1833 65.5 48.0391C65.5 47.8949 65.4378 47.7577 65.3293 47.6628L53.0435 36.9128ZM34.8616 50.5345C36.2399 50.5345 37.3572 49.4172 37.3572 48.039C37.3572 46.6608 36.2399 45.5435 34.8616 45.5435C33.4834 45.5435 32.3661 46.6608 32.3661 48.039C32.3661 49.4172 33.4834 50.5345 34.8616 50.5345ZM45.9956 48.039C45.9956 49.4172 44.8783 50.5345 43.5001 50.5345C42.1218 50.5345 41.0045 49.4172 41.0045 48.039C41.0045 46.6608 42.1218 45.5435 43.5001 45.5435C44.8783 45.5435 45.9956 46.6608 45.9956 48.039ZM54.6339 48.039C54.6339 49.4172 53.5166 50.5345 52.1384 50.5345C50.7601 50.5345 49.6428 49.4172 49.6428 48.039C49.6428 46.6608 50.7601 45.5435 52.1384 45.5435C53.5166 45.5435 54.6339 46.6608 54.6339 48.039Z" fill="url(#paint1_linear_254_9157)"/>
<defs>
<linearGradient id="paint0_linear_254_9157" x1="7.5625" y1="42.9978" x2="79.4367" y2="42.9978" gradientUnits="userSpaceOnUse">
<stop stop-color="#E22D75"/>
<stop offset="1" stop-color="#EA7269"/>
</linearGradient>
<linearGradient id="paint1_linear_254_9157" x1="21.5" y1="48.0391" x2="65.5" y2="48.0391" gradientUnits="userSpaceOnUse">
<stop stop-color="#F29130"/>
<stop offset="1" stop-color="#E2650B"/>
</linearGradient>
</defs>
</svg>
