<svg width="211" height="240" viewBox="0 0 211 240" fill="none" xmlns="http://www.w3.org/2000/svg">
<g clip-path="url(#clip0_331_151)">
<path d="M105.197 215.028C149.217 215.028 184.903 179.343 184.903 135.322C184.903 91.3017 149.217 55.616 105.197 55.616C61.1761 55.616 25.4905 91.3017 25.4905 135.322C25.4905 179.343 61.1761 215.028 105.197 215.028Z" stroke="#666666" stroke-miterlimit="10"/>
<path d="M194.303 137.474L185.843 137.286M189.771 140.197L185.758 139.977M189.557 143.011L185.551 142.654M189.259 145.811L185.272 145.325M188.896 148.605L184.922 147.99" stroke="#666666" stroke-width="0.5" stroke-miterlimit="10"/>
<path d="M192.909 151.425L184.579 149.928M187.995 153.409L184.066 152.56M187.36 156.151L183.47 155.179M186.627 158.874L182.737 157.766M185.791 161.571L181.966 160.339" stroke="#666666" stroke-width="0.5" stroke-miterlimit="10"/>
<path d="M189.343 164.994L181.35 162.2M184.164 166.174L180.417 164.722M183.12 168.793L179.425 167.211M181.959 171.36L178.316 169.662M180.721 173.895L177.136 172.073" stroke="#666666" stroke-width="0.5" stroke-miterlimit="10"/>
<path d="M183.69 177.836L176.242 173.823M178.381 178.18L174.913 176.157M176.922 180.591L173.519 178.452M175.405 182.99L172.073 180.741M173.772 185.279L170.53 182.919" stroke="#666666" stroke-width="0.5" stroke-miterlimit="10"/>
<path d="M176.08 189.622L169.344 184.488M170.803 189.142L167.684 186.601M168.981 191.288L165.96 188.65M167.107 193.389L164.164 190.646M165.163 195.431L162.31 192.591" stroke="#666666" stroke-width="0.5" stroke-miterlimit="10"/>
<path d="M166.725 200.066L160.89 193.953M161.61 198.776L158.907 195.781M159.458 200.623L156.864 197.544M157.247 202.387L154.771 199.223M155.004 204.098L152.631 200.857" stroke="#666666" stroke-width="0.5" stroke-miterlimit="10"/>
<path d="M155.866 208.941L151.049 201.991M150.991 206.86L148.813 203.482M148.605 208.357L146.511 204.915M146.135 209.764L144.191 206.251M143.653 211.087L141.818 207.508" stroke="#666666" stroke-width="0.5" stroke-miterlimit="10"/>
<path d="M143.763 216.027L140.081 208.403M139.257 213.187L137.637 209.511M136.664 214.283L135.16 210.555M134.039 215.313L132.664 211.534M131.368 216.215L130.116 212.396" stroke="#666666" stroke-width="0.5" stroke-miterlimit="10"/>
<path d="M130.674 221.096L128.243 212.986M126.687 217.608L125.663 213.719M123.945 218.257L123.05 214.335M121.19 218.873L120.425 214.924M118.408 219.365L117.76 215.398" stroke="#666666" stroke-width="0.5" stroke-miterlimit="10"/>
<path d="M116.956 224.046L115.835 215.657M113.572 219.987L113.164 215.988M110.759 220.201L110.486 216.195M107.945 220.351L107.803 216.331M105.125 220.415V216.396" stroke="#666666" stroke-width="0.5" stroke-miterlimit="10"/>
<path d="M102.96 224.817L103.148 216.357M100.244 220.286L100.464 216.273M97.4301 220.072L97.7802 216.065M94.649 219.767L95.1352 215.78M91.8549 219.404L92.4708 215.43" stroke="#666666" stroke-width="0.5" stroke-miterlimit="10"/>
<path d="M89.0089 223.423L90.5129 215.093M87.0317 218.509L87.8744 214.581M84.2765 217.874L85.2489 213.984M81.5537 217.142L82.6623 213.252M78.8568 216.305L80.0886 212.48" stroke="#666666" stroke-width="0.5" stroke-miterlimit="10"/>
<path d="M75.4404 219.858L78.2345 211.865M74.267 214.678L75.7192 210.931M71.648 213.634L73.2233 209.939M69.0743 212.474L70.7793 208.831M66.546 211.236L68.3677 207.651" stroke="#666666" stroke-width="0.5" stroke-miterlimit="10"/>
<path d="M62.5981 214.205L66.6174 206.756M62.235 208.896L64.2642 205.427M59.8429 207.45L61.9822 204.046M57.4443 205.933L59.6938 202.601M55.1558 204.299L57.5156 201.058" stroke="#666666" stroke-width="0.5" stroke-miterlimit="10"/>
<path d="M50.8187 206.594L55.9466 199.859M51.292 201.317L53.8397 198.199M49.1462 199.495L51.7911 196.429M47.0522 197.577L49.7944 194.633M45.0101 195.625L47.8496 192.779" stroke="#666666" stroke-width="0.5" stroke-miterlimit="10"/>
<path d="M40.3685 197.239L46.4883 191.405M41.6586 192.125L44.6537 189.441M39.811 189.992L42.8968 187.399M38.0477 187.781L41.2113 185.305M36.3427 185.538L39.5841 183.165" stroke="#666666" stroke-width="0.5" stroke-miterlimit="10"/>
<path d="M31.4935 186.381L38.4496 181.557M33.581 181.519L36.952 179.321M32.0705 179.113L35.5193 177.045M30.6637 176.669L34.1774 174.725M29.3477 174.186L32.9197 172.352" stroke="#666666" stroke-width="0.5" stroke-miterlimit="10"/>
<path d="M24.4079 174.277L32.0316 170.595M27.2279 169.772L30.9036 168.151M26.1323 167.179L29.8599 165.675M25.1015 164.553L28.881 163.172M24.2004 161.876L28.0188 160.625" stroke="#666666" stroke-width="0.5" stroke-miterlimit="10"/>
<path d="M19.3383 161.188L27.4483 158.757M22.8261 157.202L26.7158 156.177M22.1778 154.459L26.0675 153.565M21.5295 151.704L25.4775 150.939M21.0303 148.923L25.0043 148.275" stroke="#666666" stroke-width="0.5" stroke-miterlimit="10"/>
<path d="M16.3951 147.471L24.7838 146.349M20.4468 144.087L24.4467 143.678M20.2329 141.273L24.2458 141.001M20.0968 138.46L24.1161 138.317M20.0255 135.64H24.0448" stroke="#666666" stroke-width="0.5" stroke-miterlimit="10"/>
<path d="M15.6172 133.474L24.0837 133.662M20.1487 130.758L24.168 130.972M20.3626 127.945L24.369 128.295M20.6608 125.118L24.6542 125.604M21.0303 122.324L24.9978 122.94" stroke="#666666" stroke-width="0.5" stroke-miterlimit="10"/>
<path d="M17.0174 119.523L25.3478 121.027M21.9249 117.546L25.86 118.389M22.5602 114.797L26.4499 115.77M23.3382 112.075L27.2278 113.183M24.1744 109.378L27.9993 110.61" stroke="#666666" stroke-width="0.5" stroke-miterlimit="10"/>
<path d="M20.5829 105.955L28.5698 108.749M25.7562 104.775L29.5033 106.234M26.8 102.163L30.5016 103.725M27.9669 99.5759L31.6102 101.281M29.2051 97.0476L32.7901 98.8693" stroke="#666666" stroke-width="0.5" stroke-miterlimit="10"/>
<path d="M26.2295 93.1125L33.6847 97.1318M31.5389 92.7689L35.0072 94.798M32.991 90.3573L36.3945 92.4966M34.5145 87.9587L37.8467 90.2082M36.1482 85.6702L39.3896 88.03" stroke="#666666" stroke-width="0.5" stroke-miterlimit="10"/>
<path d="M33.8468 81.3333L40.5759 86.4612M39.1238 81.8066L42.2355 84.3478M40.939 79.6608L43.9794 82.3317M42.8384 77.5927L45.7751 80.335M44.7833 75.5507L47.6292 78.3901" stroke="#666666" stroke-width="0.5" stroke-miterlimit="10"/>
<path d="M43.2014 70.8829L49.0359 77.0027M48.3228 72.173L51.0132 75.2005M50.4622 70.3578L53.0553 73.4436M52.6663 68.5945L55.1492 71.7581M54.9158 66.8895L57.2886 70.1309" stroke="#666666" stroke-width="0.5" stroke-miterlimit="10"/>
<path d="M54.0536 62.0081L58.8833 68.9642M58.9352 64.0956L61.1199 67.4731M61.3208 62.5916L63.3889 66.0404M63.7649 61.1848L65.7097 64.6985M66.2478 59.8688L68.0694 63.4408" stroke="#666666" stroke-width="0.5" stroke-miterlimit="10"/>
<path d="M66.1636 54.9223L69.8394 62.5461M70.6627 57.7618L72.2899 61.4375M73.2623 56.6662L74.7598 60.3938M75.8878 55.6354L77.2622 59.4149M78.5587 54.7343L79.8034 58.5527" stroke="#666666" stroke-width="0.5" stroke-miterlimit="10"/>
<path d="M79.2459 49.8527L81.6834 57.9627M83.2458 53.3405L84.2701 57.2302M85.988 52.6922L86.8826 56.5819M88.7432 52.0439L89.5082 55.9919M91.5178 51.5447L92.1661 55.5187" stroke="#666666" stroke-width="0.5" stroke-miterlimit="10"/>
<path d="M92.9634 46.9097L94.0915 55.2984M96.354 50.9614L96.7559 54.9613M99.1675 50.7475L99.4333 54.7603M101.981 50.6049L102.117 54.6242M104.801 50.566V54.5853" stroke="#666666" stroke-width="0.5" stroke-miterlimit="10"/>
<path d="M106.966 46.1316L106.778 54.5981M109.689 50.6631L109.469 54.6824M112.503 50.877L112.153 54.8834M115.31 51.1752L114.823 55.1686M118.104 51.5383L117.488 55.5122" stroke="#666666" stroke-width="0.5" stroke-miterlimit="10"/>
<path d="M120.911 47.532L119.413 55.8624M122.895 52.4395L122.045 56.4005M125.637 53.1007L124.664 56.9904M128.36 53.8073L127.251 57.697M131.056 54.6436L129.825 58.4685" stroke="#666666" stroke-width="0.5" stroke-miterlimit="10"/>
<path d="M134.479 51.0975L131.685 59.0844M135.659 56.2708L134.194 60.0179M138.265 57.3145L136.683 61.0162M140.832 58.4815L139.134 62.1183M143.367 59.7197L141.546 63.3047" stroke="#666666" stroke-width="0.5" stroke-miterlimit="10"/>
<path d="M147.322 56.744L143.309 64.1798M147.665 62.034L145.643 65.5088M150.077 63.5315L147.938 66.935M152.476 65.055L150.226 68.3871M154.764 66.6886L152.404 69.9301" stroke="#666666" stroke-width="0.5" stroke-miterlimit="10"/>
<path d="M159.108 64.3613L153.973 71.0905M158.628 69.6383L156.087 72.7501M160.774 71.4535L158.129 74.481M162.868 73.34L160.125 76.2897M164.91 75.2978L162.07 78.1438" stroke="#666666" stroke-width="0.5" stroke-miterlimit="10"/>
<path d="M169.551 73.7159L163.438 79.5505M168.261 78.8374L165.266 81.5148M170.109 80.9637L167.03 83.5568M171.872 83.1744L168.709 85.6573M173.584 85.4239L170.342 87.7966" stroke="#666666" stroke-width="0.5" stroke-miterlimit="10"/>
<path d="M178.426 84.5682L171.477 89.3979M176.332 89.4627L172.955 91.6409M177.83 91.8484L174.388 93.9034M179.237 94.2794L175.723 96.2243M180.559 96.7623L176.981 98.6035" stroke="#666666" stroke-width="0.5" stroke-miterlimit="10"/>
<path d="M185.518 96.678L177.888 100.354M182.672 101.177L178.997 102.804M183.768 103.777L180.04 105.274M184.799 106.402L181.019 107.777M185.7 109.073L181.882 110.318" stroke="#666666" stroke-width="0.5" stroke-miterlimit="10"/>
<path d="M190.595 109.76L182.485 112.191M187.107 113.754L183.217 114.778M187.755 116.49L183.833 117.391M188.371 119.251L184.423 120.016M188.864 122.026L184.896 122.674" stroke="#666666" stroke-width="0.5" stroke-miterlimit="10"/>
<path d="M193.531 123.478L185.143 124.606M189.473 126.869L185.473 127.27M189.687 129.682L185.681 129.948M189.836 132.496L185.817 132.632M189.907 135.316H185.882" stroke="#666666" stroke-width="0.5" stroke-miterlimit="10"/>
<path d="M105.184 172.981C126.469 172.981 143.724 155.726 143.724 134.44C143.724 113.155 126.469 95.9001 105.184 95.9001C83.8984 95.9001 66.6433 113.155 66.6433 134.44C66.6433 155.726 83.8984 172.981 105.184 172.981Z" stroke="#4D4D4D" stroke-miterlimit="10"/>
<path d="M106.642 127.484L99.1675 137.941L67.8037 96.8467L106.642 127.484Z" fill="#4D4D4D"/>
<path d="M97.7672 133.526L108.405 140.735L68.0954 173.097L97.7672 133.526Z" fill="#4D4D4D"/>
<path d="M112.853 136.184L102.273 128.891L142.836 96.8467L112.853 136.184Z" fill="#4D4D4D"/>
<path d="M103.628 142.298L111.141 131.873L142.33 173.097L103.628 142.298Z" fill="#4D4D4D"/>
<path d="M109.417 135.452H168.261H168.436L112.801 126.415L108.172 130.914C108.98 132.166 109.408 133.625 109.404 135.115C109.423 135.205 109.423 135.329 109.417 135.452Z" fill="#E6E6E6"/>
<path d="M113.89 144.288L168.261 135.452H109.417C109.357 136.735 108.979 137.983 108.315 139.082L113.89 144.288Z" fill="#808080"/>
<path d="M101.78 135.121H42.9355H42.7605L98.3765 126.078L103.005 130.577C102.197 131.828 101.769 133.288 101.773 134.778C101.78 134.875 101.78 134.998 101.78 135.121Z" fill="#E6E6E6"/>
<path d="M97.3069 143.957L42.9355 135.121H101.78C101.839 136.404 102.218 137.652 102.882 138.752L97.3069 143.957Z" fill="#808080"/>
<path d="M105.715 139.841V198.685V198.86L96.6457 143.27L101.145 138.641C102.396 139.45 103.856 139.878 105.346 139.873L105.715 139.841Z" fill="#E6E6E6"/>
<path d="M114.551 144.314L105.715 198.685V139.841C106.998 139.781 108.246 139.402 109.345 138.739L114.551 144.314Z" fill="#808080"/>
<path d="M105.838 131.393V72.5491V72.374L96.7948 127.99L101.294 132.619C102.545 131.81 104.005 131.383 105.495 131.387L105.838 131.393Z" fill="#E6E6E6"/>
<path d="M114.674 126.92L105.838 72.5491V131.394C107.121 131.453 108.369 131.832 109.469 132.496L114.674 126.92Z" fill="#808080"/>
<path d="M105.618 127.063C104.659 127.041 103.705 127.207 102.811 127.554C101.917 127.9 101.1 128.419 100.406 129.081C99.7128 129.744 99.1565 130.536 98.7693 131.413C98.3821 132.29 98.1715 133.235 98.1497 134.194C98.1553 135.368 98.455 136.522 99.0212 137.55C99.5874 138.578 100.402 139.448 101.391 140.081C102.643 140.889 104.102 141.317 105.592 141.312H105.961C107.244 141.253 108.492 140.874 109.592 140.21C110.641 139.594 111.511 138.717 112.119 137.663C112.727 136.61 113.051 135.417 113.06 134.201C113.018 132.268 112.21 130.431 110.815 129.093C109.42 127.755 107.551 127.025 105.618 127.063ZM105.508 137.993C104.793 137.994 104.094 137.784 103.5 137.388C102.905 136.992 102.441 136.428 102.167 135.768C101.893 135.109 101.82 134.383 101.959 133.682C102.097 132.981 102.441 132.337 102.946 131.831C103.45 131.325 104.094 130.981 104.794 130.841C105.495 130.701 106.221 130.772 106.882 131.045C107.542 131.319 108.106 131.781 108.503 132.375C108.9 132.969 109.112 133.668 109.112 134.382C109.104 135.333 108.72 136.242 108.045 136.912C107.371 137.582 106.459 137.959 105.508 137.961V137.993Z" fill="#4D4D4D"/>
<path d="M109.112 134.35C109.112 135.064 108.9 135.763 108.503 136.356C108.106 136.95 107.542 137.413 106.882 137.686C106.221 137.959 105.495 138.031 104.794 137.891C104.094 137.751 103.45 137.406 102.946 136.901C102.441 136.395 102.097 135.751 101.959 135.05C101.82 134.349 101.893 133.623 102.167 132.963C102.441 132.304 102.905 131.74 103.5 131.344C104.094 130.948 104.793 130.737 105.508 130.739C106.464 130.74 107.381 131.122 108.057 131.799C108.733 132.476 109.112 133.393 109.112 134.35Z" fill="white"/>
<path d="M96.9892 23.0463C96.9503 25.3931 96.9114 27.7334 96.8661 30.0802L113.449 30.0413C113.449 27.6556 113.464 25.2678 113.494 22.8778C111.046 21.2571 108.168 20.407 105.232 20.437C102.296 20.4671 99.4364 21.3759 97.0216 23.0463H96.9892Z" fill="url(#paint0_linear_331_151)"/>
<path d="M105.767 0C94.0007 0 84.4126 9.40655 84.4126 21.0173C84.421 24.5886 85.3427 28.0985 87.0901 31.2132C88.8376 34.3279 91.3526 36.944 94.3961 38.8126C97.8082 40.9363 101.748 42.0593 105.767 42.054C117.559 42.054 127.115 32.6409 127.115 21.0302C127.115 9.41952 117.559 0 105.767 0ZM114.979 35.0072C112.038 37.0122 108.505 37.9644 104.955 37.709C101.404 37.4536 98.0444 36.0058 95.4204 33.6004C93.7191 32.0487 92.3614 30.1581 91.4347 28.0501C90.508 25.9421 90.0328 23.6635 90.0397 21.3609C89.9968 19.2254 90.3803 17.1028 91.1679 15.1174C91.9554 13.132 93.1311 11.3236 94.6262 9.79821C96.1213 8.2728 97.9056 7.06098 99.8748 6.2337C101.844 5.40642 103.958 4.98031 106.094 4.98031C108.23 4.98031 110.345 5.40642 112.314 6.2337C114.283 7.06098 116.067 8.2728 117.562 9.79821C119.058 11.3236 120.233 13.132 121.021 15.1174C121.808 17.1028 122.192 19.2254 122.149 21.3609C122.16 24.0482 121.513 26.6974 120.263 29.0764C119.013 31.4555 117.198 33.4918 114.979 35.0072Z" fill="url(#paint1_linear_331_151)"/>
<path d="M105.436 29.8208C47.2013 29.8208 0 76.8471 0 134.894C0 192.941 47.2013 240 105.436 240C163.671 240 210.866 192.941 210.866 134.894C210.866 76.8471 163.665 29.8208 105.436 29.8208ZM105.598 226.457C54.7732 226.457 13.5426 185.551 13.5426 135.095C13.5426 84.6394 54.7732 43.694 105.598 43.694C156.424 43.694 197.654 84.6005 197.654 135.063C197.654 185.525 156.424 226.425 105.598 226.425V226.457Z" fill="url(#paint2_linear_331_151)"/>
<path d="M171.029 132.671V136.139C171.042 136.379 171.121 136.612 171.258 136.81C171.396 137.008 171.585 137.163 171.806 137.26C172.027 137.356 172.27 137.389 172.508 137.355C172.747 137.32 172.971 137.22 173.156 137.066C173.271 136.943 173.36 136.796 173.416 136.637C173.472 136.477 173.493 136.308 173.48 136.139V132.69H174.387V136.139C174.399 136.53 174.3 136.917 174.102 137.254C173.918 137.554 173.65 137.793 173.331 137.941C172.995 138.094 172.63 138.171 172.261 138.168C171.896 138.172 171.535 138.095 171.204 137.941C170.885 137.798 170.62 137.557 170.446 137.254C170.248 136.917 170.149 136.53 170.161 136.139V132.703L171.029 132.671Z" fill="white"/>
<path d="M176.404 132.671V138.084H175.522V132.677L176.404 132.671Z" fill="white"/>
<path d="M180.449 130.739L178.335 139.439H177.467L179.574 130.739H180.449Z" fill="white"/>
<path d="M182.452 132.671V136.139C182.438 136.308 182.46 136.477 182.516 136.637C182.572 136.796 182.661 136.943 182.776 137.066C182.897 137.174 183.039 137.258 183.192 137.311C183.346 137.364 183.509 137.387 183.671 137.377C183.835 137.388 184 137.365 184.156 137.312C184.311 137.259 184.455 137.175 184.578 137.066C184.693 136.942 184.781 136.795 184.836 136.636C184.892 136.477 184.915 136.307 184.903 136.139V132.69H185.791V136.139C185.804 136.531 185.702 136.918 185.499 137.254C185.318 137.557 185.049 137.796 184.728 137.941C184.393 138.091 184.031 138.169 183.664 138.169C183.298 138.169 182.935 138.091 182.601 137.941C182.285 137.794 182.02 137.555 181.843 137.254C181.647 136.916 181.55 136.529 181.564 136.139V132.703L182.452 132.671Z" fill="white"/>
<path d="M189.421 135.38L191.1 138.077H190.108L188.883 136.132L187.742 138.077H186.75L188.436 135.38L186.744 132.671H187.742L188.967 134.615L190.121 132.671H191.107L189.421 135.38Z" fill="white"/>
<path d="M103.777 64.2513C103.625 63.9438 103.38 63.6921 103.077 63.5317C102.769 63.3638 102.422 63.2789 102.072 63.2853C101.681 63.2787 101.296 63.3772 100.957 63.5706C100.629 63.7576 100.361 64.0342 100.185 64.3679C100.006 64.7423 99.9127 65.1521 99.9127 65.5673C99.9127 65.9824 100.006 66.3922 100.185 66.7666C100.359 67.104 100.627 67.3835 100.957 67.5705C101.296 67.7638 101.681 67.8623 102.072 67.8557C102.571 67.8759 103.06 67.7068 103.44 67.3825C103.804 67.0416 104.034 66.5816 104.088 66.0859H101.715V65.2626H105.19V66.1248C105.125 66.6145 104.943 67.0816 104.662 67.4875C104.38 67.8933 104.005 68.2262 103.569 68.4586C103.11 68.7079 102.594 68.8351 102.072 68.8281C101.502 68.8352 100.941 68.692 100.445 68.4132C99.9585 68.144 99.555 67.7473 99.2777 67.2658C98.9967 66.7577 98.8494 66.1867 98.8494 65.6062C98.8494 65.0256 98.9967 64.4546 99.2777 63.9466C99.5641 63.4504 99.9812 63.0423 100.483 62.7667C101.011 62.4851 101.602 62.3449 102.2 62.3597C102.797 62.3745 103.381 62.5437 103.893 62.851C104.413 63.1814 104.809 63.6734 105.021 64.2513H103.777Z" fill="white"/>
<path d="M110.052 62.8249C110.543 63.0716 110.951 63.4571 111.226 63.9335C111.509 64.447 111.652 65.0261 111.64 65.6125C111.653 66.197 111.51 66.7742 111.226 67.2851C110.952 67.7556 110.543 68.1329 110.052 68.3677C109.492 68.6245 108.879 68.7445 108.263 68.7178H106.201V62.436H108.263C108.882 62.4178 109.496 62.5513 110.052 62.8249ZM109.987 67.3046C110.192 67.0753 110.35 66.8078 110.451 66.5174C110.552 66.227 110.595 65.9195 110.577 65.6125C110.612 64.9868 110.401 64.3723 109.987 63.9011C109.763 63.6856 109.496 63.5195 109.203 63.4134C108.911 63.3074 108.599 63.2637 108.289 63.2852H107.265V67.901H108.263C108.576 67.9247 108.89 67.8841 109.187 67.7815C109.484 67.6789 109.756 67.5166 109.987 67.3046Z" fill="white"/>
<path d="M106.48 201.272L104.613 207.579H103.44L102.143 202.802L100.736 207.579H99.5759L97.7866 201.265H98.8822L100.179 206.4L101.592 201.265H102.759L104.055 206.374L105.352 201.265L106.48 201.272Z" fill="white"/>
<path d="M111.161 201.654C111.652 201.901 112.06 202.286 112.334 202.763C112.615 203.279 112.756 203.86 112.742 204.448C112.758 205.03 112.617 205.606 112.334 206.114C112.059 206.585 111.651 206.964 111.161 207.203C110.609 207.462 110.006 207.59 109.397 207.579H107.336V201.272H109.397C110.007 201.259 110.611 201.39 111.161 201.654ZM111.096 206.134C111.301 205.906 111.459 205.64 111.56 205.35C111.662 205.061 111.704 204.754 111.686 204.448C111.72 203.821 111.509 203.204 111.096 202.73C110.873 202.51 110.607 202.339 110.315 202.227C110.022 202.116 109.71 202.066 109.397 202.082H108.373V206.704H109.397C109.703 206.732 110.011 206.697 110.303 206.602C110.595 206.508 110.864 206.355 111.096 206.153V206.134Z" fill="white"/>
<path d="M28.2003 137.662C27.9255 137.551 27.6875 137.364 27.5131 137.124C27.3481 136.884 27.2619 136.599 27.2668 136.307H28.2133C28.2299 136.528 28.3295 136.734 28.492 136.884C28.6844 137.043 28.9304 137.122 29.1792 137.105C29.436 137.122 29.6899 137.043 29.8923 136.884C29.9761 136.815 30.0431 136.728 30.088 136.629C30.133 136.53 30.1547 136.422 30.1516 136.314C30.1559 136.233 30.1437 136.153 30.1158 136.077C30.088 136.001 30.045 135.932 29.9896 135.873C29.8826 135.752 29.7464 135.661 29.5941 135.607C29.3827 135.526 29.1661 135.459 28.9458 135.406C28.652 135.332 28.3639 135.237 28.0836 135.121C27.8609 135.022 27.6669 134.868 27.5196 134.674C27.3537 134.437 27.2716 134.152 27.2862 133.863C27.2801 133.574 27.3614 133.289 27.5196 133.047C27.6798 132.809 27.9048 132.622 28.1679 132.508C28.4753 132.378 28.8066 132.314 29.1403 132.32C29.6048 132.302 30.0619 132.441 30.4369 132.716C30.6013 132.845 30.7357 133.008 30.8309 133.193C30.926 133.379 30.9796 133.583 30.9879 133.792H30.0025C29.9935 133.693 29.9641 133.597 29.9161 133.51C29.8681 133.423 29.8026 133.347 29.7238 133.286C29.5369 133.147 29.3087 133.074 29.0755 133.079C28.8428 133.061 28.6117 133.13 28.4272 133.273C28.3436 133.339 28.2774 133.424 28.2344 133.521C28.1915 133.619 28.1731 133.725 28.1809 133.831C28.1776 133.906 28.1897 133.981 28.2164 134.051C28.2432 134.122 28.284 134.186 28.3365 134.239C28.4411 134.354 28.5725 134.441 28.7189 134.492C28.9304 134.573 29.147 134.64 29.3672 134.693C29.6645 134.775 29.9567 134.875 30.2424 134.991C30.4675 135.093 30.6636 135.249 30.8129 135.445C30.9839 135.684 31.0685 135.975 31.0528 136.269C31.053 136.543 30.9767 136.813 30.8323 137.046C30.6752 137.298 30.4506 137.5 30.1841 137.63C29.8751 137.787 29.5321 137.865 29.1857 137.857C28.8471 137.863 28.5112 137.797 28.2003 137.662Z" fill="white"/>
<path d="M32.9846 133.111V134.693H34.8516V135.419H32.9846V137.079H35.085V137.798H32.0964V132.385H35.085V133.111H32.9846Z" fill="white"/>
<path d="M37.2503 137.5C36.8309 137.271 36.4832 136.93 36.2454 136.515C35.9964 136.079 35.8688 135.584 35.8759 135.082C35.8689 134.584 35.9965 134.094 36.2454 133.662C36.4832 133.248 36.8309 132.907 37.2503 132.677C37.6745 132.441 38.1523 132.319 38.6376 132.32C39.1272 132.318 39.6092 132.441 40.0379 132.677C40.4549 132.908 40.8003 133.248 41.0362 133.662C41.2802 134.095 41.4055 134.585 41.3993 135.082C41.4053 135.583 41.2802 136.077 41.0362 136.515C40.8003 136.929 40.4549 137.27 40.0379 137.5C39.6092 137.737 39.1272 137.86 38.6376 137.857C38.1523 137.859 37.6745 137.736 37.2503 137.5ZM39.5971 136.852C39.8766 136.686 40.1018 136.443 40.2453 136.152C40.4034 135.823 40.4854 135.463 40.4854 135.098C40.4854 134.734 40.4034 134.374 40.2453 134.045C40.1016 133.757 39.8761 133.518 39.5971 133.358C39.3049 133.192 38.9737 133.107 38.6376 133.111C38.3036 133.106 37.9744 133.192 37.6846 133.358C37.4063 133.519 37.181 133.758 37.0364 134.045C36.8827 134.375 36.8031 134.734 36.8031 135.098C36.8031 135.462 36.8827 135.822 37.0364 136.152C37.1805 136.443 37.4056 136.686 37.6846 136.852C37.9744 137.018 38.3036 137.103 38.6376 137.098C38.9748 137.099 39.3062 137.01 39.5971 136.839V136.852Z" fill="white"/>
</g>
<defs>
<linearGradient id="paint0_linear_331_151" x1="105.18" y1="20.4363" x2="105.18" y2="30.0802" gradientUnits="userSpaceOnUse">
<stop stop-color="#666666"/>
<stop offset="1" stop-color="#4C4C4C"/>
</linearGradient>
<linearGradient id="paint1_linear_331_151" x1="105.764" y1="0" x2="105.764" y2="42.054" gradientUnits="userSpaceOnUse">
<stop stop-color="#666666"/>
<stop offset="1" stop-color="#4C4C4C"/>
</linearGradient>
<linearGradient id="paint2_linear_331_151" x1="57.5" y1="14.5" x2="187.5" y2="256.5" gradientUnits="userSpaceOnUse">
<stop stop-color="#999999"/>
<stop offset="1" stop-color="#333333"/>
</linearGradient>
<clipPath id="clip0_331_151">
<rect width="211" height="240" fill="white"/>
</clipPath>
</defs>
</svg>
