<svg width="243" height="220" viewBox="0 0 243 220" fill="none" xmlns="http://www.w3.org/2000/svg">
<path d="M141.822 197.308C142.188 195.067 143.012 191.468 140.709 189.684C140.071 189.276 139.342 189.031 138.586 188.971C137.831 188.911 137.073 189.038 136.378 189.34C134.678 190.057 129.661 190.568 127.51 190.461C123.622 190.263 114.876 185.886 113.404 178.971C112.04 172.596 114.929 165.726 119.047 162.814C121.578 161.014 125.398 158.932 130.149 160.427C132.435 161.077 134.784 161.486 137.156 161.647C139.642 161.647 143.477 161.014 141.731 153.969C141.777 151.757 140.816 142.265 139.527 131.521C150.202 130.324 160.282 129.234 170.919 128.014C171.94 128.367 172.825 129.031 173.45 129.912C174.67 131.796 174.327 133.183 174.014 135.829C173.579 138.502 173.52 141.222 173.839 143.912C174.525 148.944 178.871 154.891 184.796 156.874C188.141 157.99 191.738 158.11 195.15 157.221C198.563 156.332 201.643 154.471 204.018 151.864C205.957 149.137 207.26 146.011 207.831 142.714C208.204 139.908 206.992 136.988 206.824 136.081C206.245 132.955 206.748 132.398 207.266 131.018C207.709 129.813 209.447 128.73 211.353 128.098L242.737 131.452C242.562 160.999 242.394 189.401 242.226 218.963L139.176 220C140.221 212.383 140.839 204.88 141.822 197.308Z" fill="#808080"/>
<path d="M30.8655 130.271C30.7485 160.16 30.6367 190.055 30.53 219.954H134.655C135.778 211.221 136.897 202.488 138.01 193.755C138.01 192.23 137.674 190.362 136.333 189.386C134.525 188.075 131.872 189.218 129.95 189.722C123.934 191.308 115.418 189.142 111.475 184.011C107.663 179.047 107.549 170.53 112.146 165.2C114.762 162.15 119.512 159.466 123.904 160.16C126.306 160.541 127.625 161.784 131.292 161.845C133.222 161.845 135.296 161.906 136.668 160.503C138.902 158.216 137.43 153.999 137.339 153.778L135.326 130.271L105.093 134.632C103.309 134.807 100.991 134.739 99.7179 133.29C98.0405 131.376 99.2986 128.288 99.7179 125.231C100.587 118.986 98.4293 112.581 93.1529 108.73C90.2361 106.61 86.7599 105.395 83.1575 105.237C79.5551 105.078 75.9856 105.983 72.8937 107.838C71.7423 108.517 65.1773 114.045 65.9017 119.626C66.3668 123.21 66.7862 127.038 66.5346 129.363C66.4118 130.972 65.7005 132.478 64.5368 133.595C62.0359 135.364 59.2986 134.685 58.437 134.632L30.8655 130.271Z" fill="#666666"/>
<path d="M139.016 131.78L135.837 103.469C135.837 102.242 136.081 100.381 137.362 99.3214C138.841 98.1166 140.923 98.5589 142.554 98.8029C146.426 99.3899 150.364 99.3899 154.236 98.8029C159.573 97.804 164.91 91.9405 165.673 85.2992C166.771 75.852 158.33 67.3198 151.948 67.1292C147.678 67.0072 144.567 70.5756 140.008 68.9515C138.358 68.3212 136.918 67.2407 135.852 65.833C135.684 55.6208 135.512 45.4111 135.334 35.2039H242.783V131.636L214.236 128.586C214.053 128.525 211.01 127.549 208.67 129.508C208.063 130.057 207.575 130.724 207.238 131.469C206.901 132.215 206.721 133.021 206.71 133.839C206.702 134.967 206.963 136.081 207.472 137.087C209.569 141.822 206.252 148.608 206.062 148.99C202.448 156.18 194.388 157.85 194.022 157.918C185.261 159.581 176.249 153.915 174.533 147.846C173.555 143.683 173.381 139.371 174.022 135.143C174.19 134.251 174.655 132.047 173.466 130.21C172.845 129.298 171.962 128.596 170.934 128.197L139.016 131.78Z" fill="#666666"/>
<path d="M190.408 65.0095V78.6504H212.413V91.3305H190.408V106.13H215.295V119.291H173.984V51.8414H215.295V65.0095H190.408Z" fill="#666666"/>
<g style="mix-blend-mode:overlay" opacity="0.15">
<path d="M190.408 65.0095V78.6504H212.413V91.3305H190.408V106.13H215.295V119.291H173.984V51.8414H215.295V65.0095H190.408Z" fill="black"/>
</g>
<path d="M94.0145 197.705H68.8525L64.8113 209.623H47.6096L72.0091 142.173H91.0713L115.471 209.623H98.048L94.0145 197.705ZM89.7903 185.025L81.403 160.336L73.1986 185.025H89.7903Z" fill="#666666"/>
<g style="mix-blend-mode:overlay" opacity="0.15">
<path d="M94.0145 197.705H68.8525L64.8113 209.623H47.6096L72.0091 142.173H91.0713L115.471 209.623H98.048L94.0145 197.705ZM89.7903 185.025L81.403 160.336L73.1986 185.025H89.7903Z" fill="black"/>
</g>
<path d="M222.646 153.809V209.623H209.074V176.127L196.592 209.6H185.62L173.054 176.05V209.6H159.459V153.786H175.517L191.178 192.421L206.687 153.786L222.646 153.809Z" fill="#808080"/>
<g style="mix-blend-mode:overlay" opacity="0.15">
<path d="M222.646 153.809V209.623H209.074V176.127L196.592 209.6H185.62L173.054 176.05V209.6H159.459V153.786H175.517L191.178 192.421L206.687 153.786L222.646 153.809Z" fill="black"/>
</g>
<path d="M0 14.6931L13.8696 109.79L42.135 110.423C44.3004 110.507 46.9615 110.255 48.3035 108.502C49.8285 106.474 48.5475 103.873 47.9909 99.3519C47.6782 96.7747 46.809 89.737 49.8971 84.4758C52.4209 80.1754 57.3542 77.4915 62.0359 76.9348C71.6584 75.7911 80.9074 83.5456 81.22 89.7522C81.3573 92.6039 79.5959 94.8838 80.8159 98.6352C81.4207 100.417 82.4705 102.016 83.8658 103.279L116.432 96.1571L108.883 67.724C109.501 65.6958 110.652 63.1491 112.863 62.3866C114.556 61.83 115.966 62.6611 117.377 63.0881C122.318 64.6131 129.577 61.8757 133.389 56.6756C135.014 54.4015 136.029 51.7487 136.336 48.9707C136.643 46.1926 136.232 43.3823 135.143 40.8083C132.856 35.2955 127.35 30.6214 122.181 30.8197C118.46 30.9646 116.744 33.5113 110.69 33.5113C108.25 33.5113 106.824 33.0995 105.749 32.1998C103.805 30.5757 103.622 27.8612 103.546 26.4125C103.263 21.2429 103.027 11.9253 103.088 0L0 14.6931Z" fill="#808080"/>
<path d="M77.4381 9.44711L79.1842 21.8604L62.3332 24.2317L69.5235 75.425L54.0297 77.5981L46.8395 26.4048L29.9809 28.7761L28.212 16.3629L77.4381 9.44711Z" fill="#808080"/>
<g style="mix-blend-mode:overlay" opacity="0.15">
<path d="M77.4381 9.44711L79.1842 21.8604L62.3332 24.2317L69.5235 75.425L54.0297 77.5981L46.8395 26.4048L29.9809 28.7761L28.212 16.3629L77.4381 9.44711Z" fill="black"/>
</g>
</svg>
