<svg width="533" height="317" viewBox="0 0 533 317" fill="none" xmlns="http://www.w3.org/2000/svg">
<g clip-path="url(#clip0_197_4747)">
<path d="M8.00004 300.42C8.15466 300.162 8.37987 299.953 8.64916 299.818C8.91845 299.684 9.2206 299.629 9.52004 299.66C9.81948 299.629 10.1216 299.684 10.3909 299.818C10.6602 299.953 10.8854 300.162 11.04 300.42C11.3541 301.084 11.4985 301.816 11.46 302.55C11.5001 303.297 11.3559 304.042 11.04 304.72C10.8858 304.979 10.661 305.19 10.3919 305.326C10.1227 305.462 9.82035 305.519 9.52004 305.49C9.21959 305.52 8.91673 305.464 8.64735 305.328C8.37796 305.191 8.15332 304.98 8.00004 304.72C7.6842 304.042 7.53996 303.297 7.58004 302.55C7.54162 301.816 7.68594 301.084 8.00004 300.42ZM10.81 301.3C10.7543 300.99 10.6122 300.703 10.4 300.47C10.2812 300.363 10.1422 300.28 9.99112 300.227C9.84006 300.174 9.67994 300.151 9.52004 300.16C9.36014 300.151 9.20002 300.174 9.04896 300.227C8.8979 300.28 8.7589 300.363 8.64004 300.47C8.42789 300.703 8.28576 300.99 8.23004 301.3C8.15574 301.712 8.12224 302.131 8.13004 302.55C8.12155 302.982 8.15504 303.414 8.23004 303.84C8.28576 304.15 8.42789 304.438 8.64004 304.67C8.7589 304.777 8.8979 304.86 9.04896 304.913C9.20002 304.967 9.36014 304.989 9.52004 304.98C9.67994 304.989 9.84006 304.967 9.99112 304.913C10.1422 304.86 10.2812 304.777 10.4 304.67C10.6122 304.438 10.7543 304.15 10.81 303.84C10.885 303.414 10.9185 302.982 10.91 302.55C10.9047 302.13 10.8578 301.711 10.77 301.3H10.81Z" fill="#808080"/>
<path d="M5.1201 243.08C5.59857 242.634 5.88838 242.023 5.9301 241.37C5.94639 241.049 5.84703 240.734 5.6501 240.48C5.53471 240.361 5.3938 240.269 5.23794 240.212C5.08207 240.155 4.91529 240.134 4.7501 240.15C4.57518 240.141 4.40038 240.17 4.23799 240.236C4.0756 240.301 3.92955 240.402 3.8101 240.53C3.58209 240.815 3.45229 241.165 3.4401 241.53H2.9001C2.89675 241.018 3.09003 240.524 3.4401 240.15C3.79466 239.82 4.26578 239.643 4.7501 239.66C5.21081 239.641 5.66148 239.798 6.0101 240.1C6.17408 240.258 6.30189 240.45 6.38474 240.662C6.46759 240.875 6.50353 241.103 6.4901 241.33C6.46608 242.036 6.17687 242.707 5.6801 243.21C5.08386 243.875 4.41274 244.469 3.6801 244.98H6.6801V245.45H2.8501V245.05C3.66783 244.467 4.42796 243.808 5.1201 243.08Z" fill="#808080"/>
<path d="M8.00004 240.45C8.15466 240.192 8.37987 239.983 8.64916 239.848C8.91845 239.714 9.2206 239.659 9.52004 239.69C9.81948 239.659 10.1216 239.714 10.3909 239.848C10.6602 239.983 10.8854 240.192 11.04 240.45C11.3541 241.114 11.4985 241.846 11.46 242.58C11.5001 243.327 11.3559 244.072 11.04 244.75C10.8858 245.009 10.661 245.22 10.3919 245.356C10.1227 245.492 9.82035 245.549 9.52004 245.52C9.21959 245.55 8.91673 245.494 8.64735 245.358C8.37796 245.221 8.15332 245.01 8.00004 244.75C7.6842 244.072 7.53996 243.327 7.58004 242.58C7.54162 241.846 7.68594 241.114 8.00004 240.45ZM10.81 241.33C10.7543 241.02 10.6122 240.733 10.4 240.5C10.2812 240.393 10.1422 240.31 9.99112 240.257C9.84006 240.204 9.67994 240.181 9.52004 240.19C9.36014 240.181 9.20002 240.204 9.04896 240.257C8.8979 240.31 8.7589 240.393 8.64004 240.5C8.42789 240.733 8.28576 241.02 8.23004 241.33C8.15574 241.742 8.12224 242.161 8.13004 242.58C8.12155 243.012 8.15504 243.444 8.23004 243.87C8.28576 244.18 8.42789 244.468 8.64004 244.7C8.7589 244.807 8.8979 244.89 9.04896 244.943C9.20002 244.997 9.36014 245.019 9.52004 245.01C9.67994 245.019 9.84006 244.997 9.99112 244.943C10.1422 244.89 10.2812 244.807 10.4 244.7C10.6122 244.468 10.7543 244.18 10.81 243.87C10.885 243.444 10.9185 243.012 10.91 242.58C10.9047 242.16 10.8578 241.741 10.77 241.33H10.81Z" fill="#808080"/>
<path d="M2.37988 184.22V183.79L5.29988 179.87H5.99988V183.73H6.85988V184.22H5.99988V185.58H5.40988V184.22H2.37988ZM5.42988 180.49L2.99988 183.73H5.39988L5.42988 180.49Z" fill="#808080"/>
<path d="M7.99992 180.52C8.15455 180.262 8.37976 180.053 8.64904 179.918C8.91833 179.784 9.22048 179.729 9.51992 179.76C9.81937 179.729 10.1215 179.784 10.3908 179.918C10.6601 180.053 10.8853 180.262 11.0399 180.52C11.3537 181.188 11.4979 181.923 11.4599 182.66C11.4988 183.404 11.3545 184.145 11.0399 184.82C10.8857 185.079 10.6609 185.289 10.3918 185.426C10.1226 185.562 9.82024 185.619 9.51992 185.59C9.21947 185.62 8.91662 185.564 8.64723 185.427C8.37785 185.291 8.15321 185.08 7.99992 184.82C7.68531 184.145 7.54109 183.404 7.57992 182.66C7.54193 181.923 7.68618 181.188 7.99992 180.52ZM10.8099 181.4C10.7562 181.093 10.6137 180.808 10.3999 180.58C10.2832 180.469 10.1448 180.383 9.99333 180.328C9.8419 180.273 9.68074 180.25 9.51992 180.26C9.35911 180.25 9.19794 180.273 9.04652 180.328C8.89509 180.383 8.75667 180.469 8.63992 180.58C8.4262 180.808 8.28368 181.093 8.22992 181.4C8.15523 181.816 8.12173 182.238 8.12992 182.66C8.12139 183.089 8.15488 183.518 8.22992 183.94C8.28564 184.25 8.42777 184.538 8.63992 184.77C8.7575 184.879 8.8963 184.963 9.04769 185.017C9.19908 185.07 9.35982 185.091 9.51992 185.08C9.68003 185.091 9.84077 185.07 9.99216 185.017C10.1436 184.963 10.2824 184.879 10.3999 184.77C10.6121 184.538 10.7542 184.25 10.8099 183.94C10.885 183.518 10.9185 183.089 10.9099 182.66C10.9049 182.236 10.858 181.814 10.7699 181.4H10.8099Z" fill="#808080"/>
<path d="M4.5899 120.28C4.35803 120.267 4.12694 120.317 3.92101 120.424C3.71508 120.532 3.54195 120.692 3.4199 120.89C3.10417 121.506 2.97885 122.202 3.0599 122.89C3.16404 122.571 3.38091 122.301 3.6699 122.13C3.97374 121.954 4.31864 121.861 4.6699 121.86C4.91634 121.848 5.1626 121.887 5.39319 121.975C5.62379 122.063 5.83375 122.197 6.0099 122.37C6.35154 122.762 6.52728 123.271 6.4999 123.79C6.51011 124.135 6.43813 124.478 6.2899 124.79C6.15631 125.074 5.94024 125.311 5.6699 125.47C5.36509 125.643 5.02025 125.732 4.6699 125.73C4.34359 125.765 4.01397 125.708 3.71867 125.565C3.42337 125.421 3.1743 125.198 2.9999 124.92C2.66409 124.255 2.50891 123.514 2.5499 122.77C2.5499 120.77 3.2299 119.77 4.5499 119.77C4.99287 119.745 5.42785 119.896 5.7599 120.19C6.05854 120.479 6.24313 120.866 6.2799 121.28H5.7999C5.76952 120.988 5.62571 120.72 5.3994 120.533C5.1731 120.346 4.88241 120.255 4.5899 120.28ZM3.8899 122.48C3.66495 122.575 3.47348 122.736 3.3399 122.94C3.19351 123.166 3.12019 123.431 3.1299 123.7C3.11902 124.095 3.25436 124.479 3.5099 124.78C3.65509 124.928 3.83016 125.042 4.02334 125.116C4.21652 125.19 4.42334 125.222 4.6299 125.21C4.81374 125.219 4.99742 125.19 5.16946 125.124C5.34151 125.059 5.49825 124.959 5.6299 124.83C5.87574 124.556 6.00493 124.198 5.9899 123.83C6.01486 123.434 5.88589 123.043 5.6299 122.74C5.49983 122.609 5.3436 122.506 5.17133 122.439C4.99906 122.372 4.8146 122.341 4.6299 122.35C4.37665 122.338 4.12388 122.382 3.8899 122.48Z" fill="#808080"/>
<path d="M7.99992 120.6C8.15455 120.342 8.37976 120.133 8.64904 119.998C8.91833 119.864 9.22048 119.809 9.51992 119.84C9.81937 119.809 10.1215 119.864 10.3908 119.998C10.6601 120.133 10.8853 120.342 11.0399 120.6C11.3537 121.268 11.4979 122.003 11.4599 122.74C11.4863 123.487 11.3283 124.229 10.9999 124.9C10.8457 125.159 10.6209 125.369 10.3518 125.506C10.0826 125.642 9.78023 125.699 9.47992 125.67C9.18596 125.693 8.89156 125.632 8.63001 125.496C8.36846 125.36 8.15021 125.154 7.99992 124.9C7.68531 124.225 7.54109 123.484 7.57992 122.74C7.54193 122.003 7.68618 121.268 7.99992 120.6ZM10.8099 121.48C10.7542 121.17 10.6121 120.882 10.3999 120.65C10.2811 120.543 10.1421 120.46 9.991 120.407C9.83994 120.354 9.67982 120.331 9.51992 120.34C9.36003 120.331 9.1999 120.354 9.04884 120.407C8.89778 120.46 8.75879 120.543 8.63992 120.65C8.42777 120.882 8.28564 121.17 8.22992 121.48C8.15523 121.896 8.12173 122.318 8.12992 122.74C8.12183 123.169 8.15532 123.598 8.22992 124.02C8.28564 124.33 8.42777 124.617 8.63992 124.85C8.75879 124.957 8.89778 125.04 9.04884 125.093C9.1999 125.146 9.36003 125.169 9.51992 125.16C9.67982 125.169 9.83994 125.146 9.991 125.093C10.1421 125.04 10.2811 124.957 10.3999 124.85C10.6121 124.617 10.7542 124.33 10.8099 124.02C10.8845 123.598 10.918 123.169 10.9099 122.74C10.9049 122.316 10.858 121.894 10.7699 121.48H10.8099Z" fill="#808080"/>
<path d="M2.90001 62.17C2.72549 61.9289 2.63422 61.6376 2.64001 61.34C2.63314 61.0669 2.7099 60.7983 2.86001 60.57C3.01292 60.3214 3.23546 60.1232 3.50001 60C3.81553 59.8637 4.15631 59.7955 4.50001 59.8C4.84362 59.7964 5.18422 59.8645 5.50001 60C5.76058 60.1151 5.98268 60.3025 6.14001 60.54C6.29011 60.7683 6.36688 61.0369 6.36001 61.31C6.36436 61.6074 6.27323 61.8983 6.10001 62.14C5.90736 62.3844 5.64072 62.5599 5.34001 62.64C5.67591 62.7144 5.97806 62.8971 6.20001 63.16C6.41116 63.4269 6.52099 63.7599 6.51001 64.1C6.53315 64.4144 6.4599 64.7283 6.30001 65C6.12153 65.2577 5.87602 65.4617 5.59001 65.59C5.25229 65.7351 4.88754 65.8067 4.52001 65.8C4.15237 65.808 3.78736 65.7363 3.45001 65.59C3.16232 65.4644 2.91613 65.2599 2.74001 65C2.56809 64.7357 2.48087 64.4252 2.49001 64.11C2.47903 63.7699 2.58885 63.4369 2.80001 63.17C3.02196 62.9071 3.32411 62.7244 3.66001 62.65C3.3608 62.5779 3.09369 62.4092 2.90001 62.17ZM3.45001 63.17C3.30921 63.2696 3.19654 63.4038 3.12295 63.5598C3.04936 63.7157 3.01734 63.888 3.03001 64.06C3.02057 64.2324 3.05186 64.4047 3.12135 64.5628C3.19085 64.7209 3.29658 64.8604 3.43001 64.97C3.74345 65.2043 4.12923 65.3211 4.52001 65.3C4.9039 65.3283 5.28568 65.2222 5.60001 65C5.73203 64.8914 5.83693 64.7535 5.90636 64.5973C5.9758 64.4411 6.00786 64.2708 6.00001 64.1C6.01378 63.929 5.9833 63.7572 5.91149 63.6014C5.83969 63.4455 5.72897 63.3107 5.59001 63.21C5.2745 62.9984 4.89955 62.8933 4.52001 62.91C4.13918 62.8948 3.7637 63.0036 3.45001 63.22V63.17ZM5.50001 60.59C5.21239 60.3762 4.85737 60.2733 4.50001 60.3C4.14431 60.2748 3.79087 60.3737 3.50001 60.58C3.38039 60.6793 3.28558 60.8051 3.22309 60.9475C3.16059 61.0898 3.13215 61.2448 3.14001 61.4C3.13799 61.5511 3.17024 61.7007 3.23432 61.8375C3.29841 61.9743 3.39266 62.0948 3.51001 62.19C3.79666 62.4065 4.15151 62.513 4.51001 62.49C4.86851 62.513 5.22335 62.4065 5.51001 62.19C5.62447 62.0905 5.71625 61.9676 5.77915 61.8296C5.84205 61.6916 5.87459 61.5417 5.87459 61.39C5.87459 61.2383 5.84205 61.0884 5.77915 60.9504C5.71625 60.8124 5.62447 60.6895 5.51001 60.59H5.50001Z" fill="#808080"/>
<path d="M7.99993 60.59C8.15633 60.3334 8.38186 60.126 8.65069 59.9915C8.91951 59.8571 9.22076 59.8012 9.51993 59.83C9.8191 59.8012 10.1203 59.8571 10.3892 59.9915C10.658 60.126 10.8835 60.3334 11.0399 60.59C11.3537 61.258 11.4979 61.993 11.4599 62.73C11.4863 63.4801 11.3284 64.2252 10.9999 64.9C10.8457 65.1594 10.6209 65.3695 10.3518 65.5058C10.0826 65.6422 9.78024 65.6991 9.47993 65.67C9.18596 65.6925 8.89156 65.6324 8.63002 65.4963C8.36847 65.3602 8.15021 65.1537 7.99993 64.9C7.68526 64.2217 7.54108 63.4768 7.57993 62.73C7.54193 61.993 7.68619 61.258 7.99993 60.59ZM10.8099 61.47C10.754 61.1633 10.6118 60.8788 10.3999 60.65C10.2824 60.5408 10.1436 60.4568 9.99217 60.4035C9.84078 60.3502 9.68003 60.3286 9.51993 60.34C9.35983 60.3286 9.19908 60.3502 9.04769 60.4035C8.8963 60.4568 8.7575 60.5408 8.63993 60.65C8.42809 60.8788 8.28586 61.1633 8.22993 61.47C8.15523 61.8857 8.12174 62.3078 8.12993 62.73C8.10882 63.1543 8.12892 63.5796 8.18993 64C8.24351 64.3105 8.38592 64.5988 8.59993 64.83C8.7175 64.9393 8.8563 65.0232 9.00769 65.0765C9.15908 65.1299 9.31983 65.1515 9.47993 65.14C9.64003 65.1515 9.80078 65.1299 9.95217 65.0765C10.1036 65.0232 10.2424 64.9393 10.3599 64.83C10.5739 64.5988 10.7164 64.3105 10.7699 64C10.845 63.5777 10.8785 63.1489 10.8699 62.72C10.8775 62.3011 10.844 61.8824 10.7699 61.47H10.8099Z" fill="#808080"/>
<path d="M0 0.580078V0.0800781H1.36V5.82008H0.79V0.580078H0Z" fill="#808080"/>
<path d="M2.99994 0.760038C3.15674 0.496663 3.38676 0.284582 3.66197 0.149639C3.93719 0.0146954 4.24571 -0.0372829 4.54994 3.77055e-05C4.84938 -0.0312666 5.15154 0.0236351 5.42082 0.158279C5.69011 0.292923 5.91532 0.501703 6.06994 0.760038C6.38752 1.42701 6.53524 2.16216 6.49994 2.90004C6.53607 3.64442 6.38839 4.38624 6.06994 5.06004C5.91759 5.32108 5.69312 5.53259 5.42349 5.66918C5.15386 5.80577 4.85054 5.86162 4.54994 5.83004C4.24456 5.8677 3.93483 5.8148 3.65926 5.67791C3.38369 5.54101 3.15442 5.32615 2.99994 5.06004C2.69562 4.38265 2.56173 3.64108 2.60994 2.90004C2.56257 2.16552 2.6965 1.43062 2.99994 0.760038ZM5.80994 1.64004C5.76471 1.33587 5.63278 1.05117 5.42994 0.820038C5.31355 0.708473 5.17518 0.622396 5.02367 0.567299C4.87215 0.512201 4.71081 0.489294 4.54994 0.500038C4.38913 0.489906 4.22796 0.513099 4.07653 0.568164C3.92511 0.623229 3.78668 0.708978 3.66994 0.820038C3.45622 1.04753 3.3137 1.33256 3.25994 1.64004C3.18525 2.05573 3.15175 2.47777 3.15994 2.90004C3.15141 3.32895 3.1849 3.75766 3.25994 4.18004C3.31744 4.48627 3.45946 4.7703 3.66994 5.00004C3.78752 5.10931 3.92631 5.19322 4.07771 5.24655C4.2291 5.29988 4.38984 5.32149 4.54994 5.31004C4.71014 5.32272 4.87122 5.30168 5.02279 5.24829C5.17436 5.1949 5.31306 5.11033 5.42994 5.00004C5.64209 4.76754 5.78422 4.47981 5.83994 4.17004C5.91499 3.74766 5.94848 3.31895 5.93994 2.89004C5.94748 2.47111 5.91399 2.05244 5.83994 1.64004H5.80994Z" fill="#808080"/>
<path d="M7.99995 0.76002C8.15154 0.508223 8.37036 0.3037 8.63181 0.169441C8.89326 0.0351825 9.18698 -0.0234897 9.47994 1.98986e-05C9.77939 -0.0312844 10.0815 0.0236173 10.3508 0.158261C10.6201 0.292905 10.8453 0.501685 10.9999 0.76002C11.3137 1.428 11.4579 2.16301 11.4199 2.90002C11.4588 3.64354 11.3146 4.38523 10.9999 5.06002C10.8476 5.32106 10.6231 5.53257 10.3535 5.66916C10.0839 5.80575 9.78054 5.8616 9.47994 5.83002C9.18567 5.85493 8.89036 5.79579 8.62837 5.65948C8.36637 5.52318 8.14845 5.3153 7.99995 5.06002C7.67155 4.38872 7.51357 3.64687 7.53995 2.90002C7.51439 2.15966 7.67242 1.42448 7.99995 0.76002ZM10.8099 1.64002C10.7562 1.33255 10.6137 1.04751 10.3999 0.82002C10.2786 0.703726 10.1336 0.614947 9.97483 0.559727C9.81607 0.504508 9.64728 0.484143 9.47994 0.50002C9.31913 0.489888 9.15797 0.513081 9.00654 0.568146C8.85511 0.623211 8.71669 0.70896 8.59995 0.82002C8.38622 1.04751 8.2437 1.33255 8.18994 1.64002C8.11525 2.05571 8.08175 2.47775 8.08995 2.90002C8.08141 3.32893 8.1149 3.75764 8.18994 4.18002C8.24744 4.48625 8.38946 4.77029 8.59995 5.00002C8.71752 5.10929 8.85632 5.1932 9.00771 5.24653C9.1591 5.29986 9.31984 5.32147 9.47994 5.31002C9.64005 5.32147 9.80079 5.29986 9.95218 5.24653C10.1036 5.1932 10.2424 5.10929 10.3599 5.00002C10.5721 4.76752 10.7142 4.4798 10.7699 4.17002C10.845 3.74764 10.8785 3.31893 10.8699 2.89002C10.8775 2.47109 10.844 2.05242 10.7699 1.64002H10.8099Z" fill="#808080"/>
<path d="M73.7501 309.14V313.37C73.755 313.555 73.7221 313.739 73.6533 313.911C73.5845 314.083 73.4814 314.239 73.3501 314.37C73.0812 314.627 72.7218 314.767 72.3501 314.76C72.1501 314.77 71.9502 314.738 71.7628 314.668C71.5753 314.597 71.4043 314.489 71.2601 314.35C71.1225 314.199 71.0163 314.022 70.9476 313.83C70.879 313.638 70.8492 313.434 70.8601 313.23H71.4301C71.4221 313.494 71.4993 313.753 71.6501 313.97C71.8307 314.143 72.0694 314.242 72.3193 314.247C72.5691 314.253 72.812 314.165 73.0001 314C73.1501 313.813 73.2281 313.579 73.2201 313.34V309.11L73.7501 309.14Z" fill="#808080"/>
<path d="M75.1701 311.36C75.3346 311.033 75.592 310.762 75.9101 310.58C76.2406 310.388 76.6178 310.291 77.0001 310.3C77.3769 310.294 77.7478 310.394 78.0701 310.59C78.3543 310.764 78.5805 311.018 78.7201 311.32V310.32H79.2801V314.69H78.7201V313.69C78.5828 314 78.352 314.258 78.0601 314.43C77.7415 314.635 77.3687 314.74 76.9901 314.73C76.615 314.733 76.2458 314.636 75.9201 314.45C75.6009 314.261 75.3438 313.983 75.1801 313.65C75.0021 313.282 74.9097 312.879 74.9097 312.47C74.9097 312.061 75.0021 311.658 75.1801 311.29L75.1701 311.36ZM78.5001 311.62C78.3633 311.364 78.1594 311.149 77.9101 311C77.6568 310.863 77.3732 310.791 77.0851 310.791C76.7969 310.791 76.5133 310.863 76.2601 311C76.0102 311.136 75.8079 311.346 75.6801 311.6C75.5345 311.892 75.4624 312.214 75.4701 312.54C75.4624 312.866 75.5345 313.189 75.6801 313.48C75.8072 313.74 76.0092 313.956 76.2601 314.1C76.5131 314.243 76.7996 314.315 77.0901 314.31C77.3785 314.314 77.6625 314.238 77.9101 314.09C78.159 313.945 78.3631 313.734 78.5001 313.48C78.6386 313.19 78.7105 312.872 78.7105 312.55C78.7105 312.228 78.6386 311.91 78.5001 311.62Z" fill="#808080"/>
<path d="M83.88 310.77C84.0547 310.957 84.1891 311.177 84.2751 311.418C84.3611 311.659 84.3968 311.915 84.38 312.17V314.73H83.83V312.24C83.8582 311.843 83.7288 311.452 83.47 311.15C83.3406 311.018 83.1843 310.916 83.0116 310.851C82.839 310.785 82.6543 310.757 82.47 310.77C82.2848 310.764 82.1005 310.797 81.9284 310.866C81.7564 310.935 81.6003 311.038 81.47 311.17C81.2003 311.502 81.0678 311.924 81.1 312.35V314.73H80.54V310.36H81.1V311.11C81.2254 310.848 81.4325 310.634 81.69 310.5C81.9642 310.355 82.2698 310.279 82.58 310.28C82.8186 310.269 83.0569 310.307 83.2804 310.391C83.5039 310.476 83.7079 310.604 83.88 310.77Z" fill="#808080"/>
<path d="M133.91 309.47V309.93H131.44V312H133.52V312.46H131.44V315.04H130.88V309.45L133.91 309.47Z" fill="#808080"/>
<path d="M138.76 313.09H135.14C135.14 313.39 135.223 313.684 135.38 313.94C135.512 314.17 135.711 314.355 135.95 314.47C136.185 314.59 136.446 314.652 136.71 314.65C137.036 314.66 137.357 314.569 137.63 314.39C137.874 314.22 138.048 313.968 138.12 313.68H138.71C138.604 314.081 138.364 314.434 138.03 314.68C137.649 314.962 137.184 315.106 136.71 315.09C136.325 315.094 135.946 314.997 135.61 314.81C135.286 314.626 135.022 314.351 134.85 314.02C134.655 313.658 134.558 313.251 134.57 312.84C134.561 312.424 134.654 312.012 134.84 311.64C135.012 311.312 135.276 311.04 135.6 310.86C135.941 310.677 136.323 310.584 136.71 310.59C137.094 310.582 137.473 310.675 137.81 310.86C138.111 311.034 138.36 311.287 138.53 311.59C138.691 311.899 138.777 312.242 138.78 312.59C138.78 312.84 138.77 313 138.76 313.09ZM138 311.8C137.869 311.579 137.678 311.399 137.45 311.28C137.209 311.168 136.946 311.109 136.68 311.11C136.288 311.099 135.907 311.242 135.62 311.51C135.466 311.656 135.344 311.831 135.26 312.025C135.175 312.219 135.131 312.428 135.13 312.64H138.2C138.217 312.347 138.148 312.054 138 311.8Z" fill="#808080"/>
<path d="M141 310.92C141.32 310.719 141.692 310.618 142.07 310.63C142.444 310.623 142.814 310.716 143.14 310.9C143.455 311.09 143.711 311.364 143.88 311.69C144.058 312.058 144.15 312.461 144.15 312.87C144.15 313.279 144.058 313.682 143.88 314.05C143.716 314.38 143.458 314.655 143.14 314.84C142.816 315.032 142.446 315.132 142.07 315.13C141.69 315.138 141.315 315.037 140.99 314.84C140.703 314.663 140.474 314.406 140.33 314.1V315.1H139.78V309.18H140.33V311.7C140.474 311.381 140.707 311.111 141 310.92ZM143.37 311.92C143.239 311.665 143.038 311.453 142.79 311.31C142.534 311.176 142.249 311.108 141.96 311.11C141.673 311.107 141.39 311.18 141.14 311.32C140.888 311.466 140.684 311.681 140.55 311.94C140.405 312.227 140.329 312.544 140.329 312.865C140.329 313.186 140.405 313.503 140.55 313.79C140.681 314.051 140.886 314.266 141.14 314.41C141.389 314.554 141.672 314.63 141.96 314.63C142.252 314.636 142.539 314.56 142.79 314.41C143.038 314.267 143.239 314.055 143.37 313.8C143.516 313.509 143.588 313.186 143.58 312.86C143.592 312.539 143.527 312.22 143.39 311.93L143.37 311.92Z" fill="#808080"/>
<path d="M195.89 309.14V314.66H195.33V310.25L193.33 314.66H193L191 310.27V314.66H190.44V309.14H191L193.14 313.92L195.27 309.14H195.89Z" fill="#808080"/>
<path d="M197.18 311.29C197.349 310.964 197.605 310.69 197.92 310.5C198.25 310.317 198.623 310.224 199 310.23C199.378 310.218 199.75 310.319 200.07 310.52C200.357 310.693 200.586 310.947 200.73 311.25V310.25H201.29V314.62H200.73V313.62C200.586 313.925 200.357 314.183 200.07 314.36C199.747 314.562 199.371 314.663 198.99 314.65C198.615 314.656 198.245 314.559 197.92 314.37C197.602 314.184 197.344 313.91 197.18 313.58C197.002 313.212 196.91 312.809 196.91 312.4C196.91 311.991 197.002 311.588 197.18 311.22V311.29ZM200.51 311.55C200.376 311.291 200.172 311.076 199.92 310.93C199.67 310.789 199.387 310.717 199.1 310.72C198.811 310.718 198.526 310.786 198.27 310.92C198.02 311.061 197.818 311.273 197.69 311.53C197.545 311.822 197.472 312.144 197.48 312.47C197.472 312.796 197.545 313.118 197.69 313.41C197.818 313.667 198.02 313.879 198.27 314.02C198.521 314.17 198.808 314.246 199.1 314.24C199.388 314.239 199.671 314.164 199.92 314.02C200.174 313.876 200.379 313.661 200.51 313.4C200.655 313.113 200.731 312.796 200.731 312.475C200.731 312.154 200.655 311.837 200.51 311.55Z" fill="#808080"/>
<path d="M203.69 310.44C203.973 310.28 204.295 310.2 204.62 310.21V310.8H204.47C204.109 310.779 203.752 310.893 203.47 311.12C203.337 311.269 203.237 311.443 203.175 311.632C203.113 311.822 203.091 312.022 203.11 312.22V314.66H202.55V310.29H203.11V311.07C203.231 310.803 203.434 310.583 203.69 310.44Z" fill="#808080"/>
<path d="M254.62 313.33H252.08L251.59 314.66H251L253 309.14H253.63L255.63 314.66H255.04L254.62 313.33ZM254.45 312.87L253.35 309.87L252.25 312.87H254.45Z" fill="#808080"/>
<path d="M257.81 310.52C258.135 310.323 258.51 310.222 258.89 310.23C259.261 310.224 259.627 310.318 259.95 310.5C260.268 310.689 260.528 310.962 260.7 311.29C260.878 311.658 260.97 312.061 260.97 312.47C260.97 312.879 260.878 313.282 260.7 313.65C260.532 313.981 260.271 314.255 259.95 314.44C259.63 314.63 259.263 314.727 258.89 314.72C258.509 314.733 258.133 314.632 257.81 314.43C257.526 314.254 257.297 314.001 257.15 313.7V316.7H256.6V310.27H257.15V311.27C257.294 310.962 257.523 310.701 257.81 310.52ZM260.19 311.52C260.057 311.267 259.856 311.056 259.61 310.91C259.35 310.776 259.062 310.708 258.77 310.71C258.483 310.707 258.2 310.78 257.95 310.92C257.704 311.07 257.503 311.284 257.37 311.54C257.225 311.827 257.15 312.144 257.15 312.465C257.15 312.786 257.225 313.103 257.37 313.39C257.5 313.648 257.701 313.863 257.95 314.01C258.2 314.154 258.482 314.23 258.77 314.23C259.065 314.236 259.356 314.159 259.61 314.01C259.856 313.864 260.057 313.653 260.19 313.4C260.336 313.108 260.408 312.786 260.4 312.46C260.406 312.138 260.334 311.819 260.19 311.53V311.52Z" fill="#808080"/>
<path d="M263.12 310.44C263.404 310.281 263.725 310.202 264.05 310.21V310.8H263.9C263.538 310.777 263.181 310.891 262.9 311.12C262.763 311.266 262.659 311.44 262.596 311.63C262.532 311.82 262.509 312.021 262.53 312.22V314.66H262V310.29H262.56V311.07C262.676 310.806 262.872 310.586 263.12 310.44Z" fill="#808080"/>
<path d="M315.12 309.14V314.66H314.56V310.25L312.56 314.66H312.16L310.16 310.27V314.66H309.6V309.14H310.19L312.33 313.92L314.46 309.14H315.12Z" fill="#808080"/>
<path d="M316.41 311.29C316.574 310.96 316.831 310.685 317.15 310.5C317.48 310.317 317.853 310.224 318.23 310.23C318.608 310.218 318.98 310.319 319.3 310.52C319.586 310.691 319.813 310.946 319.95 311.25V310.25H320.51V314.62H320V313.62C319.857 313.925 319.627 314.183 319.34 314.36C319.02 314.561 318.648 314.662 318.27 314.65C317.894 314.659 317.523 314.562 317.2 314.37C316.879 314.187 316.621 313.912 316.46 313.58C316.282 313.212 316.19 312.809 316.19 312.4C316.19 311.991 316.282 311.588 316.46 311.22L316.41 311.29ZM319.74 311.55C319.603 311.294 319.399 311.079 319.15 310.93C318.9 310.789 318.617 310.717 318.33 310.72C318.041 310.716 317.756 310.785 317.5 310.92C317.25 311.061 317.048 311.273 316.92 311.53C316.775 311.822 316.702 312.144 316.71 312.47C316.702 312.796 316.775 313.118 316.92 313.41C317.048 313.667 317.25 313.879 317.5 314.02C317.75 314.171 318.038 314.247 318.33 314.24C318.618 314.239 318.901 314.164 319.15 314.02C319.401 313.873 319.606 313.658 319.74 313.4C319.878 313.111 319.95 312.795 319.95 312.475C319.95 312.155 319.878 311.839 319.74 311.55Z" fill="#808080"/>
<path d="M325.39 310.29L322.8 316.72H322.22L323.07 314.64L321.27 310.29H321.89L323.38 314.02L324.82 310.29H325.39Z" fill="#808080"/>
<path d="M373.92 309.14V313.37C373.925 313.554 373.892 313.737 373.825 313.909C373.758 314.081 373.658 314.237 373.53 314.37C373.261 314.626 372.902 314.766 372.53 314.76C372.332 314.769 372.133 314.737 371.948 314.666C371.762 314.596 371.593 314.488 371.45 314.35C371.311 314.2 371.203 314.024 371.132 313.831C371.062 313.639 371.03 313.435 371.04 313.23H371.61C371.605 313.495 371.686 313.755 371.84 313.97C371.923 314.071 372.029 314.15 372.149 314.201C372.269 314.251 372.4 314.272 372.53 314.26C372.654 314.269 372.778 314.25 372.894 314.205C373.01 314.16 373.115 314.09 373.2 314C373.346 313.812 373.421 313.578 373.41 313.34V309.11L373.92 309.14Z" fill="#808080"/>
<path d="M379.11 310.36V314.73H378.55V314C378.428 314.269 378.221 314.491 377.96 314.63C377.682 314.773 377.373 314.845 377.06 314.84C376.827 314.849 376.595 314.811 376.376 314.729C376.158 314.647 375.959 314.521 375.79 314.36C375.613 314.175 375.478 313.954 375.392 313.713C375.305 313.472 375.271 313.215 375.29 312.96V310.4H375.84V312.89C375.812 313.287 375.941 313.678 376.2 313.98C376.329 314.113 376.485 314.216 376.658 314.281C376.831 314.347 377.016 314.374 377.2 314.36C377.385 314.366 377.57 314.333 377.742 314.264C377.914 314.195 378.07 314.092 378.2 313.96C378.47 313.628 378.602 313.206 378.57 312.78V310.4L379.11 310.36Z" fill="#808080"/>
<path d="M383.72 310.77C383.895 310.957 384.029 311.177 384.115 311.418C384.201 311.659 384.237 311.915 384.22 312.17V314.73H383.67V312.24C383.698 311.844 383.569 311.452 383.31 311.15C383.181 311.018 383.024 310.916 382.852 310.851C382.679 310.785 382.494 310.758 382.31 310.77C382.125 310.765 381.941 310.797 381.768 310.866C381.596 310.935 381.44 311.038 381.31 311.17C381.037 311.5 380.901 311.923 380.93 312.35V314.73H380.37V310.36H381V311.11C381.132 310.849 381.342 310.636 381.6 310.5C381.874 310.354 382.18 310.278 382.49 310.28C382.948 310.278 383.389 310.454 383.72 310.77Z" fill="#808080"/>
<path d="M435.54 309.47V313.7C435.544 313.884 435.512 314.067 435.445 314.239C435.378 314.411 435.278 314.567 435.15 314.7C434.857 314.961 434.478 315.106 434.085 315.106C433.692 315.106 433.313 314.961 433.02 314.7C432.88 314.552 432.771 314.378 432.701 314.187C432.63 313.996 432.599 313.793 432.61 313.59H433.18C433.175 313.855 433.256 314.115 433.41 314.33C433.494 314.429 433.601 314.507 433.72 314.557C433.84 314.608 433.97 314.629 434.1 314.62C434.224 314.629 434.348 314.61 434.464 314.565C434.58 314.52 434.684 314.45 434.77 314.36C434.916 314.172 434.991 313.938 434.98 313.7V309.47H435.54Z" fill="#808080"/>
<path d="M440.73 310.69V315.06H440.17V314.29C440.049 314.56 439.841 314.782 439.58 314.92C439.305 315.063 438.999 315.135 438.69 315.13C438.455 315.14 438.221 315.103 438.001 315.02C437.781 314.938 437.58 314.812 437.41 314.65C437.235 314.462 437.1 314.239 437.014 313.997C436.928 313.754 436.892 313.497 436.91 313.24V310.69H437.46V313.18C437.432 313.577 437.561 313.968 437.82 314.27C437.95 314.401 438.107 314.501 438.279 314.565C438.452 314.629 438.636 314.655 438.82 314.64C439.005 314.648 439.191 314.617 439.363 314.548C439.535 314.479 439.691 314.374 439.82 314.24C440.091 313.913 440.224 313.493 440.19 313.07V310.69H440.73Z" fill="#808080"/>
<path d="M442.58 309.14V315.06H442V309.14H442.58Z" fill="#808080"/>
<path d="M493.76 313.33H491.21L490.73 314.66H490.13L492.13 309.14H492.77L494.77 314.66H494.18L493.76 313.33ZM493.59 312.87L492.49 309.87L491.38 312.87H493.59Z" fill="#808080"/>
<path d="M499.52 310.29V314.66H499V313.89C498.872 314.155 498.666 314.375 498.41 314.52C498.131 314.662 497.823 314.734 497.51 314.73C497.275 314.739 497.041 314.701 496.822 314.619C496.602 314.536 496.401 314.411 496.23 314.25C496.055 314.062 495.92 313.839 495.834 313.597C495.748 313.354 495.712 313.097 495.73 312.84V310.29H496.29V312.78C496.26 313.175 496.386 313.566 496.64 313.87C496.77 314 496.927 314.101 497.099 314.165C497.272 314.229 497.456 314.255 497.64 314.24C497.826 314.249 498.011 314.217 498.183 314.148C498.356 314.079 498.512 313.974 498.64 313.84C498.915 313.515 499.051 313.095 499.02 312.67V310.29H499.52Z" fill="#808080"/>
<path d="M503.7 310.52C503.986 310.689 504.216 310.94 504.36 311.24V310.29H504.92V314.77C504.925 315.143 504.836 315.511 504.66 315.84C504.488 316.14 504.235 316.386 503.93 316.55C503.607 316.722 503.246 316.808 502.88 316.8C502.382 316.82 501.892 316.68 501.48 316.4C501.116 316.145 500.868 315.757 500.79 315.32H501.34C501.435 315.616 501.629 315.871 501.89 316.04C502.185 316.237 502.535 316.335 502.89 316.32C503.154 316.323 503.415 316.261 503.65 316.14C503.876 316.016 504.06 315.828 504.18 315.6C504.309 315.343 504.375 315.058 504.37 314.77V313.69C504.226 313.995 503.997 314.253 503.71 314.43C503.39 314.631 503.018 314.732 502.64 314.72C502.261 314.727 501.888 314.63 501.56 314.44C501.245 314.25 500.989 313.976 500.82 313.65C500.642 313.282 500.55 312.879 500.55 312.47C500.55 312.061 500.642 311.658 500.82 311.29C500.989 310.964 501.245 310.69 501.56 310.5C501.89 310.317 502.263 310.224 502.64 310.23C503.014 310.22 503.383 310.32 503.7 310.52ZM504.14 311.52C504.006 311.261 503.802 311.046 503.55 310.9C503.3 310.758 503.017 310.686 502.73 310.69C502.441 310.688 502.156 310.756 501.9 310.89C501.652 311.033 501.451 311.245 501.32 311.5C501.174 311.792 501.102 312.114 501.11 312.44C501.102 312.766 501.174 313.088 501.32 313.38C501.451 313.635 501.652 313.847 501.9 313.99C502.151 314.139 502.438 314.216 502.73 314.21C503.018 314.211 503.301 314.135 503.55 313.99C503.804 313.846 504.009 313.631 504.14 313.37C504.285 313.083 504.361 312.766 504.361 312.445C504.361 312.124 504.285 311.807 504.14 311.52Z" fill="#808080"/>
<path d="M77.53 296.41V210.18" stroke="#666666" stroke-linecap="round" stroke-linejoin="round" stroke-dasharray="0.1 8"/>
<path d="M137.53 296.61V201.24" stroke="#666666" stroke-linecap="round" stroke-linejoin="round" stroke-dasharray="0.1 8"/>
<path d="M257.53 296.6V171.2" stroke="#666666" stroke-linecap="round" stroke-linejoin="round" stroke-dasharray="0.1 8"/>
<path d="M317.48 296.67V154.86" stroke="#666666" stroke-linecap="round" stroke-linejoin="round" stroke-dasharray="0.1 8"/>
<path d="M437.53 296.54V103.42" stroke="#666666" stroke-linecap="round" stroke-linejoin="round" stroke-dasharray="0.1 8"/>
<path d="M377.49 296.5V144.7" stroke="#666666" stroke-linecap="round" stroke-linejoin="round" stroke-dasharray="0.1 8"/>
<path d="M497.53 296.64V82.86" stroke="#666666" stroke-linecap="round" stroke-linejoin="round" stroke-dasharray="0.1 8"/>
<path d="M197.48 296.64L197.53 207.64" stroke="#666666" stroke-linecap="round" stroke-linejoin="round" stroke-dasharray="0.1 8"/>
<path d="M77.53 303.57C78.0823 303.57 78.53 303.122 78.53 302.57C78.53 302.018 78.0823 301.57 77.53 301.57C76.9777 301.57 76.53 302.018 76.53 302.57C76.53 303.122 76.9777 303.57 77.53 303.57Z" fill="#E6E6E6"/>
<path d="M137.53 303.57C138.082 303.57 138.53 303.122 138.53 302.57C138.53 302.018 138.082 301.57 137.53 301.57C136.978 301.57 136.53 302.018 136.53 302.57C136.53 303.122 136.978 303.57 137.53 303.57Z" fill="#E6E6E6"/>
<path d="M197.53 303.57C198.082 303.57 198.53 303.122 198.53 302.57C198.53 302.018 198.082 301.57 197.53 301.57C196.978 301.57 196.53 302.018 196.53 302.57C196.53 303.122 196.978 303.57 197.53 303.57Z" fill="#E6E6E6"/>
<path d="M257.53 303.57C258.082 303.57 258.53 303.122 258.53 302.57C258.53 302.018 258.082 301.57 257.53 301.57C256.978 301.57 256.53 302.018 256.53 302.57C256.53 303.122 256.978 303.57 257.53 303.57Z" fill="#E6E6E6"/>
<path d="M317.53 303.57C318.082 303.57 318.53 303.122 318.53 302.57C318.53 302.018 318.082 301.57 317.53 301.57C316.978 301.57 316.53 302.018 316.53 302.57C316.53 303.122 316.978 303.57 317.53 303.57Z" fill="#E6E6E6"/>
<path d="M377.53 303.57C378.082 303.57 378.53 303.122 378.53 302.57C378.53 302.018 378.082 301.57 377.53 301.57C376.978 301.57 376.53 302.018 376.53 302.57C376.53 303.122 376.978 303.57 377.53 303.57Z" fill="#E6E6E6"/>
<path d="M437.53 303.57C438.082 303.57 438.53 303.122 438.53 302.57C438.53 302.018 438.082 301.57 437.53 301.57C436.978 301.57 436.53 302.018 436.53 302.57C436.53 303.122 436.978 303.57 437.53 303.57Z" fill="#E6E6E6"/>
<path d="M497.53 303.57C498.082 303.57 498.53 303.122 498.53 302.57C498.53 302.018 498.082 301.57 497.53 301.57C496.978 301.57 496.53 302.018 496.53 302.57C496.53 303.122 496.978 303.57 497.53 303.57Z" fill="#E6E6E6"/>
<path d="M17.5 302.69C24.59 282.11 32.09 259.95 43.84 241.63C55.59 223.31 72.54 207.45 93.44 201.35C134.37 189.41 181.44 216.5 219.68 197.72C245.36 185.12 261.21 153.98 289.5 149.72C310.78 146.55 332.5 160.27 353.3 154.72C380.45 147.42 391.61 111.4 418.52 103.27C432.75 98.9801 448.38 103.59 462.8 99.9901C478.75 95.9901 490.43 82.8601 502.09 71.2601C513.75 59.6601 524.64 52.1801 531.09 50.7101" stroke="url(#paint0_linear_197_4747)" stroke-width="2" stroke-linecap="round" stroke-linejoin="round"/>
</g>
<defs>
<linearGradient id="paint0_linear_197_4747" x1="16.5" y1="176.7" x2="532.09" y2="176.7" gradientUnits="userSpaceOnUse">
<stop stop-color="#404040"/>
<stop offset="1" stop-color="#737373"/>
</linearGradient>
<clipPath id="clip0_197_4747">
<rect width="532.09" height="316.8" fill="white"/>
</clipPath>
</defs>
</svg>
