<svg width="600" height="400" viewBox="0 0 600 400" fill="none" xmlns="http://www.w3.org/2000/svg">
<g clip-path="url(#clip0_175_4368)">
<path d="M511.1 26.1H201.1C190.054 26.1 181.1 35.0543 181.1 46.1V256.1C181.1 267.146 190.054 276.1 201.1 276.1H511.1C522.146 276.1 531.1 267.146 531.1 256.1V46.1C531.1 35.0543 522.146 26.1 511.1 26.1Z" fill="url(#paint0_linear_175_4368)" stroke="#999999" stroke-width="0.2" stroke-miterlimit="10"/>
<path d="M181.2 62.7H531" stroke="#4D4D4D" stroke-width="0.5" stroke-miterlimit="10"/>
<path d="M446.222 41.564C447.59 41.564 448.772 41.822 449.768 42.338C450.776 42.842 451.544 43.568 452.072 44.516C452.612 45.464 452.882 46.58 452.882 47.864C452.882 49.148 452.612 50.264 452.072 51.212C451.544 52.148 450.776 52.868 449.768 53.372C448.772 53.864 447.59 54.11 446.222 54.11H442.316V41.564H446.222ZM446.222 52.76C447.842 52.76 449.078 52.334 449.93 51.482C450.782 50.618 451.208 49.412 451.208 47.864C451.208 46.304 450.776 45.086 449.912 44.21C449.06 43.334 447.83 42.896 446.222 42.896H443.954V52.76H446.222ZM464.043 48.8C464.043 49.112 464.025 49.442 463.989 49.79H456.105C456.165 50.762 456.495 51.524 457.095 52.076C457.707 52.616 458.445 52.886 459.309 52.886C460.017 52.886 460.605 52.724 461.073 52.4C461.553 52.064 461.889 51.62 462.081 51.068H463.845C463.581 52.016 463.053 52.79 462.261 53.39C461.469 53.978 460.485 54.272 459.309 54.272C458.373 54.272 457.533 54.062 456.789 53.642C456.057 53.222 455.481 52.628 455.061 51.86C454.641 51.08 454.431 50.18 454.431 49.16C454.431 48.14 454.635 47.246 455.043 46.478C455.451 45.71 456.021 45.122 456.753 44.714C457.497 44.294 458.349 44.084 459.309 44.084C460.245 44.084 461.073 44.288 461.793 44.696C462.513 45.104 463.065 45.668 463.449 46.388C463.845 47.096 464.043 47.9 464.043 48.8ZM462.351 48.458C462.351 47.834 462.213 47.3 461.937 46.856C461.661 46.4 461.283 46.058 460.803 45.83C460.335 45.59 459.813 45.47 459.237 45.47C458.409 45.47 457.701 45.734 457.113 46.262C456.537 46.79 456.207 47.522 456.123 48.458H462.351ZM469.697 54.272C468.941 54.272 468.263 54.146 467.663 53.894C467.063 53.63 466.589 53.27 466.241 52.814C465.893 52.346 465.701 51.812 465.665 51.212H467.357C467.405 51.704 467.633 52.106 468.041 52.418C468.461 52.73 469.007 52.886 469.679 52.886C470.303 52.886 470.795 52.748 471.155 52.472C471.515 52.196 471.695 51.848 471.695 51.428C471.695 50.996 471.503 50.678 471.119 50.474C470.735 50.258 470.141 50.048 469.337 49.844C468.605 49.652 468.005 49.46 467.537 49.268C467.081 49.064 466.685 48.77 466.349 48.386C466.025 47.99 465.863 47.474 465.863 46.838C465.863 46.334 466.013 45.872 466.313 45.452C466.613 45.032 467.039 44.702 467.591 44.462C468.143 44.21 468.773 44.084 469.481 44.084C470.573 44.084 471.455 44.36 472.127 44.912C472.799 45.464 473.159 46.22 473.207 47.18H471.569C471.533 46.664 471.323 46.25 470.939 45.938C470.567 45.626 470.063 45.47 469.427 45.47C468.839 45.47 468.371 45.596 468.023 45.848C467.675 46.1 467.501 46.43 467.501 46.838C467.501 47.162 467.603 47.432 467.807 47.648C468.023 47.852 468.287 48.02 468.599 48.152C468.923 48.272 469.367 48.41 469.931 48.566C470.639 48.758 471.215 48.95 471.659 49.142C472.103 49.322 472.481 49.598 472.793 49.97C473.117 50.342 473.285 50.828 473.297 51.428C473.297 51.968 473.147 52.454 472.847 52.886C472.547 53.318 472.121 53.66 471.569 53.912C471.029 54.152 470.405 54.272 469.697 54.272ZM481.117 54.11L477.247 49.754V54.11H475.609V40.79H477.247V48.62L481.045 44.246H483.331L478.687 49.16L483.349 54.11H481.117ZM486.871 45.596V51.41C486.871 51.89 486.973 52.232 487.177 52.436C487.381 52.628 487.735 52.724 488.239 52.724H489.445V54.11H487.969C487.057 54.11 486.373 53.9 485.917 53.48C485.461 53.06 485.233 52.37 485.233 51.41V45.596H483.955V44.246H485.233V41.762H486.871V44.246H489.445V45.596H486.871ZM495.731 54.272C494.807 54.272 493.967 54.062 493.211 53.642C492.467 53.222 491.879 52.628 491.447 51.86C491.027 51.08 490.817 50.18 490.817 49.16C490.817 48.152 491.033 47.264 491.465 46.496C491.909 45.716 492.509 45.122 493.265 44.714C494.021 44.294 494.867 44.084 495.803 44.084C496.739 44.084 497.585 44.294 498.341 44.714C499.097 45.122 499.691 45.71 500.123 46.478C500.567 47.246 500.789 48.14 500.789 49.16C500.789 50.18 500.561 51.08 500.105 51.86C499.661 52.628 499.055 53.222 498.287 53.642C497.519 54.062 496.667 54.272 495.731 54.272ZM495.731 52.832C496.319 52.832 496.871 52.694 497.387 52.418C497.903 52.142 498.317 51.728 498.629 51.176C498.953 50.624 499.115 49.952 499.115 49.16C499.115 48.368 498.959 47.696 498.647 47.144C498.335 46.592 497.927 46.184 497.423 45.92C496.919 45.644 496.373 45.506 495.785 45.506C495.185 45.506 494.633 45.644 494.129 45.92C493.637 46.184 493.241 46.592 492.941 47.144C492.641 47.696 492.491 48.368 492.491 49.16C492.491 49.964 492.635 50.642 492.923 51.194C493.223 51.746 493.619 52.16 494.111 52.436C494.603 52.7 495.143 52.832 495.731 52.832ZM504.581 46.064C504.905 45.5 505.385 45.032 506.021 44.66C506.669 44.276 507.419 44.084 508.271 44.084C509.147 44.084 509.939 44.294 510.647 44.714C511.367 45.134 511.931 45.728 512.339 46.496C512.747 47.252 512.951 48.134 512.951 49.142C512.951 50.138 512.747 51.026 512.339 51.806C511.931 52.586 511.367 53.192 510.647 53.624C509.939 54.056 509.147 54.272 508.271 54.272C507.431 54.272 506.687 54.086 506.039 53.714C505.403 53.33 504.917 52.856 504.581 52.292V58.79H502.943V44.246H504.581V46.064ZM511.277 49.142C511.277 48.398 511.127 47.75 510.827 47.198C510.527 46.646 510.119 46.226 509.603 45.938C509.099 45.65 508.541 45.506 507.929 45.506C507.329 45.506 506.771 45.656 506.255 45.956C505.751 46.244 505.343 46.67 505.031 47.234C504.731 47.786 504.581 48.428 504.581 49.16C504.581 49.904 504.731 50.558 505.031 51.122C505.343 51.674 505.751 52.1 506.255 52.4C506.771 52.688 507.329 52.832 507.929 52.832C508.541 52.832 509.099 52.688 509.603 52.4C510.119 52.1 510.527 51.674 510.827 51.122C511.127 50.558 511.277 49.898 511.277 49.142Z" fill="#CCCCCC"/>
<path d="M427.59 26.2V62.7" stroke="#4D4D4D" stroke-width="0.5" stroke-miterlimit="10"/>
<path d="M491.1 71.85H221.1C218.339 71.85 216.1 74.0886 216.1 76.85V146.85C216.1 149.611 218.339 151.85 221.1 151.85H491.1C493.862 151.85 496.1 149.611 496.1 146.85V76.85C496.1 74.0886 493.862 71.85 491.1 71.85Z" fill="#4D4D4D"/>
<path d="M261.1 160.56H221.1C218.339 160.56 216.1 162.799 216.1 165.56V205.56C216.1 208.321 218.339 210.56 221.1 210.56H261.1C263.862 210.56 266.1 208.321 266.1 205.56V165.56C266.1 162.799 263.862 160.56 261.1 160.56Z" fill="#4D4D4D"/>
<path d="M318.6 160.56H278.6C275.839 160.56 273.6 162.799 273.6 165.56V205.56C273.6 208.321 275.839 210.56 278.6 210.56H318.6C321.362 210.56 323.6 208.321 323.6 205.56V165.56C323.6 162.799 321.362 160.56 318.6 160.56Z" fill="#4D4D4D"/>
<path d="M376.1 160.56H336.1C333.339 160.56 331.1 162.799 331.1 165.56V205.56C331.1 208.321 333.339 210.56 336.1 210.56H376.1C378.862 210.56 381.1 208.321 381.1 205.56V165.56C381.1 162.799 378.862 160.56 376.1 160.56Z" fill="#4D4D4D"/>
<path d="M433.6 160.56H393.6C390.839 160.56 388.6 162.799 388.6 165.56V205.56C388.6 208.321 390.839 210.56 393.6 210.56H433.6C436.362 210.56 438.6 208.321 438.6 205.56V165.56C438.6 162.799 436.362 160.56 433.6 160.56Z" fill="#4D4D4D"/>
<path d="M491.1 160.56H451.1C448.339 160.56 446.1 162.799 446.1 165.56V205.56C446.1 208.321 448.339 210.56 451.1 210.56H491.1C493.862 210.56 496.1 208.321 496.1 205.56V165.56C496.1 162.799 493.862 160.56 491.1 160.56Z" fill="#4D4D4D"/>
<path d="M491.1 219.26H221.1C218.339 219.26 216.1 221.499 216.1 224.26V231.91C216.1 234.671 218.339 236.91 221.1 236.91H491.1C493.862 236.91 496.1 234.671 496.1 231.91V224.26C496.1 221.499 493.862 219.26 491.1 219.26Z" fill="#4D4D4D"/>
<path d="M491.1 245.62H221.1C218.339 245.62 216.1 247.859 216.1 250.62V258.27C216.1 261.031 218.339 263.27 221.1 263.27H491.1C493.862 263.27 496.1 261.031 496.1 258.27V250.62C496.1 247.859 493.862 245.62 491.1 245.62Z" fill="#4D4D4D"/>
</g>
<g clip-path="url(#clip1_175_4368)">
<path d="M306.1 102.1H146.1C135.054 102.1 126.1 111.054 126.1 122.1V312.1C126.1 323.146 135.054 332.1 146.1 332.1H306.1C317.146 332.1 326.1 323.146 326.1 312.1V122.1C326.1 111.054 317.146 102.1 306.1 102.1Z" fill="url(#paint1_linear_175_4368)" stroke="#999999" stroke-width="0.2" stroke-miterlimit="10"/>
<path d="M126.2 138.61H326" stroke="#4D4D4D" stroke-width="0.38" stroke-miterlimit="10"/>
<path d="M260.698 117.724V119.056H257.278V130.27H255.64V119.056H252.202V117.724H260.698ZM262.102 125.302C262.102 124.294 262.306 123.412 262.714 122.656C263.122 121.888 263.68 121.294 264.388 120.874C265.108 120.454 265.906 120.244 266.782 120.244C267.646 120.244 268.396 120.43 269.032 120.802C269.668 121.174 270.142 121.642 270.454 122.206V120.406H272.11V130.27H270.454V128.434C270.13 129.01 269.644 129.49 268.996 129.874C268.36 130.246 267.616 130.432 266.764 130.432C265.888 130.432 265.096 130.216 264.388 129.784C263.68 129.352 263.122 128.746 262.714 127.966C262.306 127.186 262.102 126.298 262.102 125.302ZM270.454 125.32C270.454 124.576 270.304 123.928 270.004 123.376C269.704 122.824 269.296 122.404 268.78 122.116C268.276 121.816 267.718 121.666 267.106 121.666C266.494 121.666 265.936 121.81 265.432 122.098C264.928 122.386 264.526 122.806 264.226 123.358C263.926 123.91 263.776 124.558 263.776 125.302C263.776 126.058 263.926 126.718 264.226 127.282C264.526 127.834 264.928 128.26 265.432 128.56C265.936 128.848 266.494 128.992 267.106 128.992C267.718 128.992 268.276 128.848 268.78 128.56C269.296 128.26 269.704 127.834 270.004 127.282C270.304 126.718 270.454 126.064 270.454 125.32ZM276.516 122.242C276.852 121.654 277.344 121.174 277.992 120.802C278.64 120.43 279.378 120.244 280.206 120.244C281.094 120.244 281.892 120.454 282.6 120.874C283.308 121.294 283.866 121.888 284.274 122.656C284.682 123.412 284.886 124.294 284.886 125.302C284.886 126.298 284.682 127.186 284.274 127.966C283.866 128.746 283.302 129.352 282.582 129.784C281.874 130.216 281.082 130.432 280.206 130.432C279.354 130.432 278.604 130.246 277.956 129.874C277.32 129.502 276.84 129.028 276.516 128.452V130.27H274.878V116.95H276.516V122.242ZM283.212 125.302C283.212 124.558 283.062 123.91 282.762 123.358C282.462 122.806 282.054 122.386 281.538 122.098C281.034 121.81 280.476 121.666 279.864 121.666C279.264 121.666 278.706 121.816 278.19 122.116C277.686 122.404 277.278 122.83 276.966 123.394C276.666 123.946 276.516 124.588 276.516 125.32C276.516 126.064 276.666 126.718 276.966 127.282C277.278 127.834 277.686 128.26 278.19 128.56C278.706 128.848 279.264 128.992 279.864 128.992C280.476 128.992 281.034 128.848 281.538 128.56C282.054 128.26 282.462 127.834 282.762 127.282C283.062 126.718 283.212 126.058 283.212 125.302ZM288.68 116.95V130.27H287.042V116.95H288.68ZM300.472 124.96C300.472 125.272 300.454 125.602 300.418 125.95H292.534C292.594 126.922 292.924 127.684 293.524 128.236C294.136 128.776 294.874 129.046 295.738 129.046C296.446 129.046 297.034 128.884 297.502 128.56C297.982 128.224 298.318 127.78 298.51 127.228H300.274C300.01 128.176 299.482 128.95 298.69 129.55C297.898 130.138 296.914 130.432 295.738 130.432C294.802 130.432 293.962 130.222 293.218 129.802C292.486 129.382 291.91 128.788 291.49 128.02C291.07 127.24 290.86 126.34 290.86 125.32C290.86 124.3 291.064 123.406 291.472 122.638C291.88 121.87 292.45 121.282 293.182 120.874C293.926 120.454 294.778 120.244 295.738 120.244C296.674 120.244 297.502 120.448 298.222 120.856C298.942 121.264 299.494 121.828 299.878 122.548C300.274 123.256 300.472 124.06 300.472 124.96ZM298.78 124.618C298.78 123.994 298.642 123.46 298.366 123.016C298.09 122.56 297.712 122.218 297.232 121.99C296.764 121.75 296.242 121.63 295.666 121.63C294.838 121.63 294.13 121.894 293.542 122.422C292.966 122.95 292.636 123.682 292.552 124.618H298.78ZM304.632 121.756V127.57C304.632 128.05 304.734 128.392 304.938 128.596C305.142 128.788 305.496 128.884 306 128.884H307.206V130.27H305.73C304.818 130.27 304.134 130.06 303.678 129.64C303.222 129.22 302.994 128.53 302.994 127.57V121.756H301.716V120.406H302.994V117.922H304.632V120.406H307.206V121.756H304.632Z" fill="#CCCCCC"/>
<path d="M237.47 102.2V138.61" stroke="#4D4D4D" stroke-width="0.49" stroke-miterlimit="10"/>
<path d="M308.3 148.97H142.83C140.069 148.97 137.83 151.209 137.83 153.97V223.97C137.83 226.731 140.069 228.97 142.83 228.97H308.3C311.062 228.97 313.3 226.731 313.3 223.97V153.97C313.3 151.209 311.062 148.97 308.3 148.97Z" fill="#4D4D4D"/>
<path d="M182.83 239.59H142.83C140.069 239.59 137.83 241.829 137.83 244.59V284.59C137.83 287.351 140.069 289.59 142.83 289.59H182.83C185.592 289.59 187.83 287.351 187.83 284.59V244.59C187.83 241.829 185.592 239.59 182.83 239.59Z" fill="#4D4D4D"/>
<path d="M308.3 239.59H268.3C265.539 239.59 263.3 241.829 263.3 244.59V284.59C263.3 287.351 265.539 289.59 268.3 289.59H308.3C311.061 289.59 313.3 287.351 313.3 284.59V244.59C313.3 241.829 311.061 239.59 308.3 239.59Z" fill="#4D4D4D"/>
<path d="M245.57 239.59H205.57C202.809 239.59 200.57 241.829 200.57 244.59V284.59C200.57 287.351 202.809 289.59 205.57 289.59H245.57C248.331 289.59 250.57 287.351 250.57 284.59V244.59C250.57 241.829 248.331 239.59 245.57 239.59Z" fill="#4D4D4D"/>
<path d="M309.37 300.21H143.9C141.139 300.21 138.9 302.449 138.9 305.21V312.45C138.9 315.211 141.139 317.45 143.9 317.45H309.37C312.132 317.45 314.37 315.211 314.37 312.45V305.21C314.37 302.449 312.132 300.21 309.37 300.21Z" fill="#4D4D4D"/>
</g>
<g clip-path="url(#clip2_175_4368)">
<path d="M168.1 193.1H88.1001C77.0544 193.1 68.1001 202.054 68.1001 213.1V353.1C68.1001 364.146 77.0544 373.1 88.1001 373.1H168.1C179.146 373.1 188.1 364.146 188.1 353.1V213.1C188.1 202.054 179.146 193.1 168.1 193.1Z" fill="url(#paint2_linear_175_4368)" stroke="#999999" stroke-width="0.2" stroke-miterlimit="10"/>
<path d="M68.2002 214.02H188" stroke="#4D4D4D" stroke-width="0.38" stroke-miterlimit="10"/>
<path d="M147.26 200.83V207.75H146.35V202.59L144.05 207.75H143.41L141.1 202.58V207.75H140.19V200.83H141.17L143.73 206.55L146.29 200.83H147.26ZM151.193 207.84C150.68 207.84 150.213 207.723 149.793 207.49C149.38 207.257 149.053 206.927 148.813 206.5C148.58 206.067 148.463 205.567 148.463 205C148.463 204.44 148.583 203.947 148.823 203.52C149.07 203.087 149.403 202.757 149.823 202.53C150.243 202.297 150.713 202.18 151.233 202.18C151.753 202.18 152.223 202.297 152.643 202.53C153.063 202.757 153.393 203.083 153.633 203.51C153.88 203.937 154.003 204.433 154.003 205C154.003 205.567 153.877 206.067 153.623 206.5C153.377 206.927 153.04 207.257 152.613 207.49C152.187 207.723 151.713 207.84 151.193 207.84ZM151.193 207.04C151.52 207.04 151.827 206.963 152.113 206.81C152.4 206.657 152.63 206.427 152.803 206.12C152.983 205.813 153.073 205.44 153.073 205C153.073 204.56 152.987 204.187 152.813 203.88C152.64 203.573 152.413 203.347 152.133 203.2C151.853 203.047 151.55 202.97 151.223 202.97C150.89 202.97 150.583 203.047 150.303 203.2C150.03 203.347 149.81 203.573 149.643 203.88C149.477 204.187 149.393 204.56 149.393 205C149.393 205.447 149.473 205.823 149.633 206.13C149.8 206.437 150.02 206.667 150.293 206.82C150.567 206.967 150.867 207.04 151.193 207.04ZM156.11 203.29C156.297 202.963 156.57 202.697 156.93 202.49C157.29 202.283 157.7 202.18 158.16 202.18C158.653 202.18 159.097 202.297 159.49 202.53C159.883 202.763 160.193 203.093 160.42 203.52C160.647 203.94 160.76 204.43 160.76 204.99C160.76 205.543 160.647 206.037 160.42 206.47C160.193 206.903 159.88 207.24 159.48 207.48C159.087 207.72 158.647 207.84 158.16 207.84C157.687 207.84 157.27 207.737 156.91 207.53C156.557 207.323 156.29 207.06 156.11 206.74V207.75H155.2V200.35H156.11V203.29ZM159.83 204.99C159.83 204.577 159.747 204.217 159.58 203.91C159.413 203.603 159.187 203.37 158.9 203.21C158.62 203.05 158.31 202.97 157.97 202.97C157.637 202.97 157.327 203.053 157.04 203.22C156.76 203.38 156.533 203.617 156.36 203.93C156.193 204.237 156.11 204.593 156.11 205C156.11 205.413 156.193 205.777 156.36 206.09C156.533 206.397 156.76 206.633 157.04 206.8C157.327 206.96 157.637 207.04 157.97 207.04C158.31 207.04 158.62 206.96 158.9 206.8C159.187 206.633 159.413 206.397 159.58 206.09C159.747 205.777 159.83 205.41 159.83 204.99ZM162.428 201.38C162.254 201.38 162.108 201.32 161.988 201.2C161.868 201.08 161.808 200.933 161.808 200.76C161.808 200.587 161.868 200.44 161.988 200.32C162.108 200.2 162.254 200.14 162.428 200.14C162.594 200.14 162.734 200.2 162.848 200.32C162.968 200.44 163.028 200.587 163.028 200.76C163.028 200.933 162.968 201.08 162.848 201.2C162.734 201.32 162.594 201.38 162.428 201.38ZM162.868 202.27V207.75H161.958V202.27H162.868ZM165.329 200.35V207.75H164.419V200.35H165.329ZM171.88 204.8C171.88 204.973 171.87 205.157 171.85 205.35H167.47C167.503 205.89 167.686 206.313 168.02 206.62C168.36 206.92 168.77 207.07 169.25 207.07C169.643 207.07 169.97 206.98 170.23 206.8C170.496 206.613 170.683 206.367 170.79 206.06H171.77C171.623 206.587 171.33 207.017 170.89 207.35C170.45 207.677 169.903 207.84 169.25 207.84C168.73 207.84 168.263 207.723 167.85 207.49C167.443 207.257 167.123 206.927 166.89 206.5C166.656 206.067 166.54 205.567 166.54 205C166.54 204.433 166.653 203.937 166.88 203.51C167.106 203.083 167.423 202.757 167.83 202.53C168.243 202.297 168.716 202.18 169.25 202.18C169.77 202.18 170.23 202.293 170.63 202.52C171.03 202.747 171.336 203.06 171.55 203.46C171.77 203.853 171.88 204.3 171.88 204.8ZM170.94 204.61C170.94 204.263 170.863 203.967 170.71 203.72C170.556 203.467 170.346 203.277 170.08 203.15C169.82 203.017 169.53 202.95 169.21 202.95C168.75 202.95 168.356 203.097 168.03 203.39C167.71 203.683 167.526 204.09 167.48 204.61H170.94Z" fill="#CCCCCC"/>
<path d="M132.43 193.2V213.85" stroke="#4D4D4D" stroke-width="0.4" stroke-miterlimit="10"/>
<path d="M176.15 221.71H80.0601C77.2986 221.71 75.0601 223.949 75.0601 226.71V267.86C75.0601 270.621 77.2986 272.86 80.0601 272.86H176.15C178.911 272.86 181.15 270.621 181.15 267.86V226.71C181.15 223.949 178.911 221.71 176.15 221.71Z" fill="#4D4D4D"/>
<path d="M98.3502 282.5H80.6702C77.9087 282.5 75.6702 284.739 75.6702 287.5V305.18C75.6702 307.941 77.9087 310.18 80.6702 310.18H98.3502C101.112 310.18 103.35 307.941 103.35 305.18V287.5C103.35 284.739 101.112 282.5 98.3502 282.5Z" fill="#4D4D4D"/>
<path d="M175.53 282.5H157.85C155.089 282.5 152.85 284.739 152.85 287.5V305.18C152.85 307.941 155.089 310.18 157.85 310.18H175.53C178.292 310.18 180.53 307.941 180.53 305.18V287.5C180.53 284.739 178.292 282.5 175.53 282.5Z" fill="#4D4D4D"/>
<path d="M136.94 282.5H119.26C116.499 282.5 114.26 284.739 114.26 287.5V305.18C114.26 307.941 116.499 310.18 119.26 310.18H136.94C139.701 310.18 141.94 307.941 141.94 305.18V287.5C141.94 284.739 139.701 282.5 136.94 282.5Z" fill="#4D4D4D"/>
<path d="M175.48 339.6H80.7202C77.9588 339.6 75.7202 341.839 75.7202 344.6V354.89C75.7202 357.651 77.9588 359.89 80.7202 359.89H175.48C178.242 359.89 180.48 357.651 180.48 354.89V344.6C180.48 341.839 178.242 339.6 175.48 339.6Z" fill="#4D4D4D"/>
<path d="M176.15 319.81H80.0601C77.2986 319.81 75.0601 322.049 75.0601 324.81V324.96C75.0601 327.721 77.2986 329.96 80.0601 329.96H176.15C178.911 329.96 181.15 327.721 181.15 324.96V324.81C181.15 322.049 178.911 319.81 176.15 319.81Z" fill="#4D4D4D"/>
</g>
<defs>
<linearGradient id="paint0_linear_175_4368" x1="535.14" y1="47.73" x2="177.06" y2="254.47" gradientUnits="userSpaceOnUse">
<stop offset="0.45" stop-color="#333333"/>
<stop offset="1" stop-color="#191919"/>
</linearGradient>
<linearGradient id="paint1_linear_175_4368" x1="344.56" y1="148.71" x2="107.64" y2="285.49" gradientUnits="userSpaceOnUse">
<stop stop-color="#4C4C4C"/>
<stop offset="0.3" stop-color="#333333"/>
<stop offset="1" stop-color="#191919"/>
</linearGradient>
<linearGradient id="paint2_linear_175_4368" x1="205.73" y1="238.28" x2="50.4701" y2="327.92" gradientUnits="userSpaceOnUse">
<stop stop-color="#4C4C4C"/>
<stop offset="0.3" stop-color="#333333"/>
<stop offset="1" stop-color="#191919"/>
</linearGradient>
<clipPath id="clip0_175_4368">
<rect width="350.2" height="250.2" fill="white" transform="translate(181 26)"/>
</clipPath>
<clipPath id="clip1_175_4368">
<rect width="200.2" height="230.2" fill="white" transform="translate(126 102)"/>
</clipPath>
<clipPath id="clip2_175_4368">
<rect width="120.2" height="180.2" fill="white" transform="translate(68 193)"/>
</clipPath>
</defs>
</svg>
