<svg width="32" height="32" viewBox="0 0 32 32" fill="none" xmlns="http://www.w3.org/2000/svg">
<g clip-path="url(#clip0_91_50)">
<path d="M3.15626 20.8439C3.03194 20.8439 2.91271 20.8933 2.8248 20.9812C2.73689 21.0691 2.6875 21.1883 2.6875 21.3127C2.6875 21.437 2.73689 21.5562 2.8248 21.6441C2.91271 21.732 3.03194 21.7814 3.15626 21.7814H7.25012C7.37444 21.7814 7.49367 21.732 7.58158 21.6441C7.66949 21.5562 7.71888 21.437 7.71888 21.3127C7.71888 21.1883 7.66949 21.0691 7.58158 20.9812C7.49367 20.8933 7.37444 20.8439 7.25012 20.8439H3.15626Z" fill="#808080"/>
<path d="M31.474 24.2738L29.5003 22.3001L29.5007 6.43909C29.5007 6.00833 29.1503 5.65782 28.7195 5.65782L24.2076 5.65751C22.4312 3.95721 19.9353 2.96 17.4531 2.96838C14.8433 2.96838 12.4681 3.99115 10.7066 5.65657L6.34591 5.65613C6.22159 5.65612 6.10229 5.7055 6.01437 5.79341C5.92646 5.88131 5.87706 6.00054 5.87706 6.12486C5.87705 6.24918 5.92643 6.36842 6.01433 6.45634C6.10223 6.54425 6.22146 6.59365 6.34579 6.59365L9.83544 6.59403C9.57603 6.91211 9.33669 7.24603 9.11879 7.59387L0.937899 7.59337V6.59347L4.15823 6.59365C4.41711 6.59365 4.62699 6.38384 4.62699 6.12489C4.62699 5.86595 4.41717 5.65613 4.15823 5.65613L0.781582 5.65594C0.350759 5.65594 0.000312508 6.00639 0.000312508 6.43721L0 23.9362C0 24.367 0.350446 24.7175 0.78127 24.7175L7.13318 24.7179C7.39206 24.7179 7.60194 24.5081 7.60194 24.2492C7.60194 23.9902 7.39213 23.7804 7.13318 23.7804L0.937524 23.78L0.937899 8.53089L8.59972 8.53139C8.29554 9.16045 8.05987 9.82038 7.89676 10.4998H3.18758C3.06326 10.4998 2.94403 10.5492 2.85612 10.6371C2.76821 10.725 2.71882 10.8443 2.71882 10.9686V14.7187C2.71882 14.843 2.76821 14.9622 2.85612 15.0501C2.94403 15.138 3.06326 15.1874 3.18758 15.1874H7.91995C8.02944 15.6237 8.16898 16.0518 8.33759 16.4687H3.15633C3.03201 16.4687 2.91278 16.5181 2.82487 16.606C2.73696 16.6939 2.68757 16.8132 2.68757 16.9375C2.68757 17.0618 2.73696 17.181 2.82487 17.2689C2.91278 17.3569 3.03201 17.4062 3.15633 17.4062H8.77572C9.00816 17.8422 9.27306 18.2601 9.56818 18.6563H3.15633C3.03201 18.6563 2.91278 18.7057 2.82487 18.7936C2.73696 18.8815 2.68757 19.0007 2.68757 19.125C2.68757 19.2494 2.73696 19.3686 2.82487 19.4565C2.91278 19.5444 3.03201 19.5938 3.15633 19.5938H10.3618C12.1517 21.4603 14.669 22.6243 17.4531 22.6243C19.1722 22.6243 20.836 22.1797 22.3014 21.3473L23.2387 22.2846C23.3221 22.3681 23.4212 22.4343 23.5302 22.4794C23.6393 22.5245 23.7562 22.5476 23.8742 22.5474C24.0795 22.5474 24.2846 22.4771 24.4509 22.3376L25.8949 23.7817L9.32074 23.7805C9.06186 23.7805 8.85198 23.9903 8.85198 24.2492C8.85198 24.5082 9.06179 24.718 9.32074 24.718L11.3662 24.7181L10.9552 26.2175L10.1446 26.2173C8.97935 26.2173 8.03139 27.1653 8.03139 28.3305V28.561C8.03139 28.6853 8.08077 28.8046 8.16867 28.8925C8.25656 28.9804 8.37578 29.0298 8.50009 29.0298L21.0002 29.0316H21.0003C21.1246 29.0316 21.2438 28.9822 21.3317 28.8943C21.4196 28.8064 21.469 28.6872 21.469 28.5628V28.3323C21.469 27.1671 20.5211 26.2192 19.3559 26.2192L18.5454 26.219L18.1341 24.7186L26.8326 24.7192L28.9306 26.8173C29.2704 27.157 29.722 27.3441 30.2023 27.3441C30.6827 27.3441 31.1344 27.157 31.4741 26.8173C32.1753 26.116 32.1753 24.9751 31.474 24.2738ZM20.5071 28.094L8.9931 28.0923C9.10354 27.5579 9.57781 27.1549 10.1444 27.1549L19.3557 27.1567C19.9224 27.1567 20.3967 27.5596 20.5071 28.094ZM17.5731 26.2188L11.9272 26.2177L12.3383 24.7182L17.1619 24.7186L17.5731 26.2188ZM28.5632 7.59518L25.7917 7.59499C25.5746 7.24717 25.3361 6.91322 25.0774 6.59509L28.5632 6.59534V7.59518ZM3.65634 14.25V11.4374H7.71957C7.65684 11.8877 7.62531 12.3418 7.62519 12.7964C7.62519 13.2902 7.66219 13.7755 7.73288 14.25H3.65634ZM8.56272 12.7964C8.56272 7.89419 12.5509 3.90596 17.4531 3.90596C21.8656 3.90596 25.56 7.06504 26.2374 11.4176C26.2772 11.6734 26.5169 11.8487 26.7726 11.8087C26.8334 11.7992 26.8918 11.7778 26.9444 11.7458C26.997 11.7138 27.0427 11.6717 27.079 11.622C27.1153 11.5723 27.1415 11.516 27.156 11.4561C27.1706 11.3963 27.1732 11.3342 27.1637 11.2734C27.0152 10.3227 26.7271 9.39908 26.3086 8.53258L28.5632 8.53277L28.5628 21.3627L26.9945 19.7942C27.1306 19.6329 27.205 19.4285 27.2046 19.2174C27.2046 18.9774 27.1111 18.7517 26.9414 18.582L26.0045 17.6451C26.713 16.3979 27.1433 15.002 27.253 13.5443C27.2576 13.4829 27.2501 13.4212 27.2309 13.3628C27.2117 13.3043 27.1811 13.2502 27.141 13.2035C27.1008 13.1568 27.0519 13.1185 26.997 13.0907C26.942 13.063 26.8821 13.0463 26.8207 13.0417C26.5627 13.0228 26.3376 13.2158 26.3181 13.474C25.9713 18.0793 22.0773 21.6867 17.4531 21.6867C12.5509 21.6868 8.56272 17.6986 8.56272 12.7964ZM23.1122 20.8322C24.0345 20.1817 24.8385 19.3779 25.4895 18.456L26.2509 19.2174L23.8742 21.5942L23.1122 20.8322ZM30.8112 26.1543C30.6485 26.317 30.4323 26.4065 30.2023 26.4065C29.9724 26.4065 29.7561 26.317 29.5935 26.1543L25.1166 21.6775L26.3342 20.4598L30.8111 24.9367C31.1468 25.2724 31.1468 25.8186 30.8112 26.1543Z" fill="#808080"/>
<path d="M17.4531 4.8403C13.0662 4.8403 9.49707 8.40939 9.49707 12.7964C9.49707 15.3302 10.721 17.7351 12.7711 19.2295C12.9803 19.3821 13.2735 19.336 13.426 19.1269C13.5785 18.9177 13.5326 18.6244 13.3234 18.4719C11.5146 17.1533 10.4346 15.0316 10.4346 12.7963C10.4346 8.92628 13.5831 5.77776 17.4531 5.77776C21.3232 5.77776 24.4717 8.92628 24.4717 12.7963C24.4717 16.6664 21.3232 19.8149 17.4531 19.8149C16.6561 19.8149 15.8742 19.6824 15.1294 19.4212C15.0713 19.4008 15.0098 19.3921 14.9483 19.3955C14.8868 19.3989 14.8266 19.4144 14.7712 19.441C14.7157 19.4677 14.666 19.505 14.6249 19.5509C14.5839 19.5968 14.5523 19.6503 14.5319 19.7084C14.4908 19.8257 14.498 19.9546 14.5518 20.0666C14.6057 20.1787 14.7018 20.2647 14.8191 20.3059C15.6639 20.6022 16.5501 20.7524 17.4531 20.7524C21.8401 20.7524 25.4092 17.1833 25.4092 12.7963C25.4092 8.40933 21.8402 4.8403 17.4531 4.8403Z" fill="#808080"/>
<path d="M17.6759 11.5855C17.8002 11.5855 17.9194 11.5361 18.0074 11.4482C18.0953 11.3603 18.1447 11.241 18.1447 11.1167C18.1447 10.9924 18.0953 10.8732 18.0074 10.7852C17.9194 10.6973 17.8002 10.6479 17.6759 10.6479H16.2604C16.1361 10.6479 16.0169 10.6973 15.9289 10.7852C15.841 10.8732 15.7917 10.9924 15.7917 11.1167V14.476C15.7917 14.6003 15.841 14.7195 15.9289 14.8074C16.0169 14.8954 16.1361 14.9447 16.2604 14.9447H17.6759C17.8002 14.9447 17.9194 14.8954 18.0074 14.8074C18.0953 14.7195 18.1447 14.6003 18.1447 14.476C18.1447 14.3517 18.0953 14.2324 18.0074 14.1445C17.9194 14.0566 17.8002 14.0072 17.6759 14.0072H16.7292V13.2651H17.5715C17.6958 13.2651 17.8151 13.2157 17.903 13.1278C17.9909 13.0399 18.0403 12.9207 18.0403 12.7964C18.0403 12.6721 17.9909 12.5528 17.903 12.4649C17.8151 12.377 17.6958 12.3276 17.5715 12.3276H16.7292V11.5855H17.6759ZM13.1839 14.0227C12.8595 14.0227 12.5476 13.8924 12.3498 13.6741C12.2663 13.582 12.1497 13.5268 12.0255 13.5207C11.9013 13.5146 11.7798 13.5581 11.6877 13.6416C11.5955 13.7251 11.5404 13.8417 11.5343 13.9659C11.5282 14.0901 11.5716 14.2116 11.6551 14.3037C12.0332 14.7209 12.5904 14.9602 13.1838 14.9602C13.9201 14.9602 14.5387 14.4887 14.6547 13.8391C14.7423 13.3485 14.5219 12.7084 13.6404 12.3833C13.3572 12.2802 12.8927 12.1108 12.7161 12.0115C12.6668 11.9847 12.6454 11.9364 12.6524 11.8681C12.6623 11.7735 12.7328 11.6542 12.9014 11.6034C13.3549 11.4669 13.7796 11.8002 13.793 11.8109C13.8883 11.8898 14.0109 11.9279 14.1341 11.9167C14.2574 11.9056 14.3712 11.8462 14.4507 11.7514C14.4904 11.7043 14.5203 11.6498 14.5388 11.5911C14.5574 11.5324 14.5642 11.4707 14.5589 11.4093C14.5536 11.348 14.5362 11.2883 14.5079 11.2337C14.4795 11.1791 14.4406 11.1306 14.3935 11.091C14.3607 11.0635 13.5801 10.4198 12.6309 10.7057C12.1287 10.857 11.7712 11.2753 11.7198 11.7716C11.6736 12.2182 11.8835 12.6257 12.2677 12.8349C12.4608 12.9463 12.9038 13.1141 13.3159 13.2629C13.4236 13.3026 13.7718 13.4496 13.7317 13.6743C13.7013 13.8456 13.488 14.0227 13.1839 14.0227ZM23.5151 12.7964C23.5151 11.6032 22.5444 10.6325 21.3512 10.6325C20.1581 10.6325 19.1874 11.6032 19.1874 12.7964C19.1874 13.9895 20.1581 14.9602 21.3512 14.9602C22.5444 14.9602 23.5151 13.9895 23.5151 12.7964ZM20.1249 12.7964C20.1249 12.1202 20.675 11.57 21.3512 11.57C22.0274 11.57 22.5776 12.1202 22.5776 12.7964C22.5776 13.4726 22.0274 14.0227 21.3512 14.0227C20.675 14.0227 20.1249 13.4726 20.1249 12.7964Z" fill="#808080"/>
</g>
<defs>
<clipPath id="clip0_91_50">
<rect width="32" height="32" fill="white"/>
</clipPath>
</defs>
</svg>
