<svg width="32" height="32" viewBox="0 0 32 32" fill="none" xmlns="http://www.w3.org/2000/svg">
<g clip-path="url(#clip0_91_66)">
<path d="M7.69776 27.9107H3.53513M5.60882 13.1135H8.16026M5.60882 15.6111H8.16026M5.60882 18.1087H8.16026M3.07257 13.1135H3.34038M3.07257 15.6111H3.34038M3.07257 18.1087H3.34038M5.27113 0.46875V4.14119M0.76001 0.46875V2.99581C0.76001 3.42619 0.97351 3.71594 1.33613 3.94762C1.51276 4.0605 1.73582 4.14088 2.01307 4.14125C2.25313 4.14156 2.45382 4.086 2.6197 4.00244C3.04232 3.78963 3.31182 3.46637 3.31182 2.99319V0.46875M15.1856 0.46875L17.7691 4.14119M17.5873 0.46875L15.0002 4.14119M10.9633 0.46875V2.99581C10.9633 3.42619 11.1768 3.71594 11.5394 3.94762C11.7161 4.0605 11.9391 4.14088 12.2164 4.14125C12.4564 4.14156 12.6571 4.086 12.823 4.00244C13.2456 3.78963 13.5151 3.46637 13.5151 2.99319V0.46875M8.96657 0.46875L7.41357 4.14119M0.76001 7.14631H31.2399M27.9721 0.48125H31.2399M31.2399 2.30494H27.9721M31.2399 4.12869H27.9721M3.31245 24.2902H2.01001C1.31963 24.2902 0.76001 24.8498 0.76001 25.5402V30.2812C0.76001 30.9716 1.31963 31.5312 2.01001 31.5312H9.22289C9.91326 31.5312 10.4729 30.9716 10.4729 30.2812V25.5402C10.4729 24.8498 9.91326 24.2902 9.22289 24.2902H5.49995M0.76001 15.6382V19.8092C0.76001 20.4996 1.31963 21.0592 2.01001 21.0592H9.22289C9.91326 21.0592 10.4729 20.4996 10.4729 19.8092V11.4129C10.4729 10.7226 9.91326 10.1629 9.22289 10.1629H2.01001C1.31963 10.1629 0.76001 10.7226 0.76001 11.4129V13.4507M29.9899 31.5312H14.6367C13.9463 31.5312 13.3867 30.9716 13.3867 30.2812V11.4129C13.3867 10.7226 13.9463 10.1629 14.6367 10.1629H29.9899C30.6803 10.1629 31.2399 10.7226 31.2399 11.4129V30.2812C31.2399 30.9716 30.6803 31.5312 29.9899 31.5312Z" stroke="#808080" stroke-miterlimit="10" stroke-linecap="round" stroke-linejoin="round"/>
<path d="M17.9958 19.1144C18.4834 21.0451 20.2313 22.4741 22.3134 22.4741C24.773 22.4741 26.7668 20.4803 26.7668 18.0207C26.7668 15.5611 24.773 13.5673 22.3134 13.5673C20.2314 13.5673 18.4834 14.9963 17.9958 16.9269M26.3836 28.2936H18.2432C17.4258 28.2936 16.7632 27.631 16.7632 26.8136C16.7632 25.9961 17.4258 25.3335 18.2432 25.3335H26.3836C27.201 25.3335 27.8636 25.9961 27.8636 26.8136C27.8636 27.631 27.201 28.2936 26.3836 28.2936Z" stroke="#808080" stroke-miterlimit="10" stroke-linecap="round" stroke-linejoin="round"/>
</g>
<defs>
<clipPath id="clip0_91_66">
<rect width="32" height="32" fill="white"/>
</clipPath>
</defs>
</svg>
