<svg width="32" height="32" viewBox="0 0 32 32" fill="none" xmlns="http://www.w3.org/2000/svg">
<path d="M6.50097 0.999695C6.10379 1.00118 5.72329 1.15949 5.44226 1.44016C5.16124 1.72083 5.00245 2.10114 5.00046 2.49831V18.4993C5.00046 19.1664 6.00206 19.1664 6.00206 18.4993V6.002H25.998V18.4993C25.9829 19.1796 27.0148 19.1796 26.9996 18.4993V2.49831C26.9977 2.10146 26.8391 1.72144 26.5585 1.44082C26.2779 1.16021 25.8979 1.00168 25.501 0.999695H6.50097ZM6.50097 2.00129H25.501C25.7845 2.00129 25.998 2.21295 25.998 2.49831V5.0004H6.00206V2.49831C6.00206 2.21295 6.21372 1.9994 6.49908 1.9994L6.50097 2.00129ZM7.50067 2.9991C7.43491 2.9991 7.36978 3.01206 7.30902 3.03723C7.24827 3.06239 7.19306 3.09928 7.14655 3.14578C7.10005 3.19229 7.06316 3.2475 7.03799 3.30825C7.01283 3.36901 6.99987 3.43414 6.99987 3.4999C6.99987 3.56567 7.01283 3.63079 7.03799 3.69155C7.06316 3.75231 7.10005 3.80752 7.14655 3.85402C7.19306 3.90052 7.24827 3.93741 7.30902 3.96258C7.36978 3.98775 7.43491 4.0007 7.50067 4.0007C7.63349 4.0007 7.76087 3.94794 7.85479 3.85402C7.94871 3.7601 8.00147 3.63272 8.00147 3.4999C8.00147 3.36708 7.94871 3.2397 7.85479 3.14578C7.76087 3.05187 7.63349 2.9991 7.50067 2.9991ZM9.50008 2.9991C9.43432 2.9991 9.36919 3.01206 9.30843 3.03723C9.24767 3.06239 9.19247 3.09928 9.14596 3.14578C9.09946 3.19229 9.06257 3.2475 9.0374 3.30825C9.01224 3.36901 8.99928 3.43414 8.99928 3.4999C8.99928 3.56567 9.01224 3.63079 9.0374 3.69155C9.06257 3.75231 9.09946 3.80752 9.14596 3.85402C9.19247 3.90052 9.24767 3.93741 9.30843 3.96258C9.36919 3.98775 9.43432 4.0007 9.50008 4.0007C9.6329 4.0007 9.76028 3.94794 9.8542 3.85402C9.94812 3.7601 10.0009 3.63272 10.0009 3.4999C10.0009 3.36708 9.94812 3.2397 9.8542 3.14578C9.76028 3.05187 9.6329 2.9991 9.50008 2.9991ZM11.4995 2.9991C11.4337 2.9991 11.3686 3.01206 11.3078 3.03723C11.2471 3.06239 11.1919 3.09928 11.1454 3.14578C11.0989 3.19229 11.062 3.2475 11.0368 3.30825C11.0116 3.36901 10.9987 3.43414 10.9987 3.4999C10.9987 3.56567 11.0116 3.63079 11.0368 3.69155C11.062 3.75231 11.0989 3.80752 11.1454 3.85402C11.1919 3.90052 11.2471 3.93741 11.3078 3.96258C11.3686 3.98775 11.4337 4.0007 11.4995 4.0007C11.6323 4.0007 11.7597 3.94794 11.8536 3.85402C11.9475 3.7601 12.0003 3.63272 12.0003 3.4999C12.0003 3.36708 11.9475 3.2397 11.8536 3.14578C11.7597 3.05187 11.6323 2.9991 11.4995 2.9991ZM18.4747 2.9991C17.8001 3.04635 17.8454 4.01771 18.4993 4.0007H24.5013C25.1533 3.98558 25.1533 3.01422 24.5013 2.9991H18.4747ZM2.50215 4.0007C2.1048 4.00218 1.72409 4.16043 1.44277 4.44105C1.16145 4.72166 1.00224 5.10197 0.999756 5.49931V23.4997C0.999756 24.3217 1.68008 24.9983 2.50215 24.9983H29.4998C29.8967 24.9963 30.2767 24.8378 30.5573 24.5571C30.8379 24.2765 30.9965 23.8965 30.9985 23.4997V5.49931C30.9965 5.10247 30.8379 4.72244 30.5573 4.44183C30.2767 4.16121 29.8967 4.00269 29.4998 4.0007H28.4982C27.8179 3.98558 27.8179 5.01552 28.4982 5.0004H29.4998C29.7852 5.0004 29.9969 5.21206 29.9969 5.49931V19.9998H1.99946V5.49931C1.99946 5.21206 2.21679 5.0004 2.50215 5.0004H3.49807C4.1784 5.01552 4.1784 3.98558 3.49807 3.99881L2.50215 4.0007ZM17.5072 7.99196C17.4 7.991 17.2954 8.02445 17.2086 8.08738C17.1219 8.15031 17.0576 8.23941 17.0253 8.34157L14.0243 17.3408C13.8126 17.9739 14.7613 18.2914 14.9748 17.6583L17.9758 8.65717C18.0019 8.58205 18.0098 8.5018 17.9987 8.42305C17.9877 8.3443 17.958 8.26931 17.9122 8.2043C17.8664 8.13929 17.8058 8.08612 17.7353 8.0492C17.6649 8.01227 17.5867 7.99265 17.5072 7.99196ZM19.6804 10.8834L22.2184 12.9999L19.6804 15.1184C19.1381 15.5417 19.8071 16.343 20.323 15.8857L23.3183 13.3855C23.3743 13.3384 23.4194 13.2797 23.4503 13.2135C23.4812 13.1472 23.4972 13.0749 23.4972 13.0018C23.4972 12.9287 23.4812 12.8565 23.4503 12.7902C23.4194 12.7239 23.3743 12.6652 23.3183 12.6182L20.3211 10.1161C20.2244 10.0352 20.1012 9.9928 19.9752 9.99704C19.5028 10.0386 19.3327 10.6018 19.6804 10.8852V10.8834ZM11.9889 9.99515C11.8758 9.99886 11.7672 10.0408 11.6809 10.1142L8.6818 12.6163C8.62578 12.6633 8.58073 12.722 8.54983 12.7883C8.51892 12.8546 8.50291 12.9268 8.50291 12.9999C8.50291 13.0731 8.51892 13.1453 8.54983 13.2116C8.58073 13.2779 8.62578 13.3366 8.6818 13.3836L11.679 15.8838C12.1949 16.3638 12.8847 15.536 12.3178 15.1165L9.77788 12.9999L12.3216 10.8852C12.4026 10.819 12.4608 10.729 12.488 10.628C12.5153 10.527 12.5102 10.42 12.4735 10.322C12.4368 10.224 12.3703 10.1399 12.2834 10.0817C12.1965 10.0234 12.0935 9.9919 11.9889 9.99515ZM1.99946 21.0013H29.9988V23.4997C30.0006 23.5655 29.989 23.631 29.9647 23.6923C29.9403 23.7535 29.9038 23.8091 29.8573 23.8558C29.8108 23.9025 29.7553 23.9392 29.6942 23.9637C29.6331 23.9883 29.5676 24.0001 29.5017 23.9986H2.50215C2.43589 24.0006 2.36991 23.9892 2.30823 23.9649C2.24656 23.9406 2.19048 23.904 2.14343 23.8573C2.09638 23.8106 2.05935 23.7548 2.0346 23.6933C2.00984 23.6318 1.99789 23.5659 1.99946 23.4997V21.0013ZM17.0272 22.0011H14.9767C14.338 22.0766 14.3814 22.98 14.9994 22.997H17.0007C17.6867 23.0593 17.7434 22.0143 17.0272 22.0011ZM13.1965 25.9602C13.0984 25.9582 13.0018 25.985 12.9188 26.0375C12.8359 26.0899 12.7701 26.1655 12.7298 26.255C12.4879 26.7709 12.057 27.3738 11.3124 27.9993H10.4998C10.1028 28.0023 9.72295 28.1617 9.44274 28.443C9.16253 28.7242 9.00455 29.1047 9.00306 29.5017V30.4976C9.00117 30.7735 9.22417 30.9984 9.50008 31.0003H22.5C22.5659 31.0003 22.6312 30.9873 22.6921 30.962C22.753 30.9367 22.8083 30.8996 22.8548 30.8529C22.9013 30.8062 22.9382 30.7508 22.9632 30.6898C22.9883 30.6288 23.0011 30.5635 23.0008 30.4976V29.5017C22.9983 29.1043 22.8395 28.7239 22.5587 28.4427C22.2779 28.1616 21.8977 28.0023 21.5003 27.9993H20.6877C19.945 27.3756 19.5122 26.7709 19.2704 26.255C19.2456 26.191 19.2079 26.1328 19.1596 26.084C19.1114 26.0352 19.0537 25.9968 18.99 25.9713C18.9263 25.9457 18.8581 25.9335 18.7895 25.9354C18.7209 25.9373 18.6534 25.9533 18.5913 25.9823C18.5291 26.0114 18.4736 26.0529 18.4282 26.1044C18.3827 26.1558 18.3483 26.216 18.3271 26.2812C18.3059 26.3465 18.2984 26.4154 18.3049 26.4837C18.3114 26.552 18.3319 26.6183 18.3651 26.6783C18.5598 27.0941 18.8565 27.5438 19.259 27.9993H12.7411C13.1417 27.5457 13.4403 27.096 13.635 26.6764C13.6713 26.601 13.6882 26.5178 13.684 26.4342C13.6799 26.3506 13.6549 26.2694 13.6113 26.198C13.5677 26.1266 13.5069 26.0672 13.4344 26.0253C13.362 25.9835 13.2802 25.9604 13.1965 25.9583V25.9602ZM10.4998 28.999H21.4984C21.5649 28.9974 21.6309 29.0094 21.6926 29.0341C21.7543 29.0588 21.8103 29.0958 21.8573 29.1428C21.9043 29.1898 21.9413 29.2458 21.966 29.3075C21.9907 29.3692 22.0027 29.4352 22.0011 29.5017V30.0006H10.0009V29.5017C10.0009 29.2163 10.2144 28.999 10.4998 28.999Z" fill="#808080"/>
</svg>
