<svg width="68" height="56" viewBox="0 0 68 56" fill="none" xmlns="http://www.w3.org/2000/svg">
<g clip-path="url(#clip0_277_8705)">
<path d="M67.287 7.58294C67.3744 10.0392 66.6058 11.614 65.2608 14.6963C64.7797 15.9473 64.2141 17.3662 63.5677 18.9961C63.3716 19.4906 63.1835 19.9626 63.0034 20.4123L62.9913 20.4419C62.7723 21.0398 62.5224 21.7184 62.2389 22.4883C60.2677 27.8401 59.659 29.943 59.2237 31.249C59.2237 31.249 58.4846 33.6958 57.7926 37.266C57.3895 39.3634 57.2888 40.3564 57.4554 41.5469C57.6059 42.6219 57.931 44.9961 59.4333 45.6787C61.1572 46.4607 63.3971 44.5527 63.733 45.0149C63.8607 45.1923 63.7035 45.6975 62.2294 47.2414C60.6573 47.7987 59.0549 48.2666 57.4299 48.6428C55.9706 48.9815 54.9871 49.2032 53.6017 49.2744C51.953 49.3577 50.4602 49.4155 48.9419 48.577C48.2389 48.1688 47.6157 47.6366 47.1024 47.0063C45.2938 44.7529 45.49 41.559 45.7722 39.2049C45.7977 38.998 45.8232 38.7897 45.8514 38.5814C46.1551 36.3362 46.667 33.9646 47.8132 30.2802C48.2633 28.8318 48.8102 27.1817 49.482 25.2562C50.6363 21.9481 51.1697 20.6515 51.9786 18.3148C53.3679 13.913 54.4724 10.0956 54.7909 8.98976C54.8912 8.36072 54.8452 7.71702 54.6565 7.10862C54.6458 7.07503 54.6323 7.04144 54.6189 7.00784C54.6055 6.97425 54.5799 6.91244 54.5584 6.86676C54.5342 6.81436 54.5087 6.7633 54.4805 6.71492C54.4541 6.66629 54.4249 6.61918 54.3932 6.57384C54.373 6.54293 54.3515 6.51337 54.33 6.48516C54.3137 6.46231 54.2962 6.44034 54.2776 6.41932C54.2574 6.39513 54.2359 6.37094 54.2144 6.3481C54.1568 6.28657 54.0934 6.23077 54.025 6.18149L54.0142 6.17342C53.9881 6.15381 53.9607 6.13586 53.9323 6.11968C53.9033 6.10129 53.8732 6.08469 53.8422 6.06996C53.7986 6.04896 53.7537 6.03056 53.7079 6.01487C53.6746 6.00218 53.6405 5.99185 53.6058 5.98397C52.8372 5.79048 51.9289 6.37363 50.9896 6.97694C50.7962 7.10056 50.6134 7.22821 50.4401 7.3572L50.4199 7.37332L50.3097 7.45932C50.1915 7.54934 50.0786 7.64206 49.9698 7.73611L49.9349 7.76568C49.2965 8.32162 48.7344 8.95958 48.2633 9.66294C46.2669 12.3757 44.4194 15.1948 42.7287 18.1079C41.7452 19.8077 41.0787 21.0841 40.5493 22.2034C40.0118 23.6156 39.5953 24.8343 38.5835 27.0917C38.0205 28.3467 37.3218 29.818 36.8166 30.8674C36.8005 30.9024 36.7843 30.9346 36.7682 30.9682L36.6715 31.1697L36.6231 31.2705L36.5264 31.4721L36.4793 31.5688L36.4336 31.6629C36.4148 31.6992 36.3974 31.7368 36.3799 31.7744C36.3624 31.812 36.3302 31.8779 36.3073 31.9235L36.2146 32.1143C36.2039 32.1345 36.1945 32.1533 36.1878 32.1694L36.1663 32.2124C36.1286 32.2904 36.0897 32.3683 36.0534 32.4449L35.567 33.4325C35.5535 33.458 35.5415 33.4822 35.5294 33.5077C35.4649 33.6421 35.403 33.763 35.3426 33.8826L34.9556 34.6512C31.1097 34.4746 27.3739 33.3108 24.1081 31.2719C24.5435 30.1665 24.9591 29.1363 25.3551 28.1814C25.3551 28.1734 25.3618 28.1653 25.3658 28.1559C26.2379 26.0369 26.9917 24.3036 27.556 23.0311C27.556 23.0311 27.7831 22.5178 28.2574 21.3045L28.2695 21.2709C28.3542 21.0411 28.4361 20.8073 28.5194 20.5668C30.5994 14.5432 31.7442 11.2176 32.0049 8.00351C31.9821 7.78986 31.9512 7.57084 31.9095 7.34779C31.6327 5.8281 31.1732 5.57415 31.0388 5.51368C30.1144 5.08505 28.6484 6.32929 27.6353 7.31555C23.1515 11.6798 19.5733 18.7435 18.4473 20.9901C17.8587 22.1645 15.5436 26.8095 12.5512 33.3425C11.7692 35.0516 11.1337 36.4678 10.705 37.4286C8.76283 37.3381 6.83316 37.0683 4.94068 36.6224C3.25212 36.2227 1.59957 35.6838 0 35.0113C2.32903 27.691 4.65806 20.3702 6.98709 13.049C8.22596 9.28671 9.0026 4.93053 6.82854 2.65838C5.73748 1.51357 4.29975 1.32008 4.3414 0.896827C4.40455 0.317705 7.20342 -0.190203 19.279 0.138997C19.5867 0.138997 20.104 0.18065 20.4386 0.542098C20.7732 0.903546 20.7758 1.41817 20.7597 1.71109C20.3942 8.39317 17.9797 14.1898 17.9797 14.1898C17.1829 16.1018 15.9144 19.1936 14.3518 23.2166C14.1085 23.6922 14.1099 24.102 14.2537 24.1853C14.3974 24.2686 14.7065 24.0859 14.9846 23.7392C16.6871 20.3062 18.2457 17.4683 19.4617 15.3426C22.3775 10.2474 23.8152 8.39451 24.5677 7.45663C26.4018 5.18583 27.5789 3.75482 29.6629 2.42593C31.2753 1.39802 34.3012 -0.530152 37.9412 0.186025H37.956C38.6212 0.2685 39.272 0.440713 39.8909 0.697964C40.6355 1.02865 41.3174 1.4855 41.9064 2.04835L41.9145 2.05642C42.3568 2.45802 42.7323 2.92746 43.027 3.44712C43.2967 3.92226 43.4899 4.43693 43.5994 4.97218C43.7656 5.76759 43.7951 6.58547 43.6868 7.39079C43.6868 7.39079 43.6868 7.39079 43.6868 7.4002C43.6572 7.77508 43.6169 8.15937 43.5739 8.55575C43.4033 10.1534 42.6092 12.4255 41.6135 14.4491C41.6107 14.4538 41.6085 14.4587 41.6068 14.4639C41.2601 15.2701 41.0411 15.7336 41.1553 15.8075C41.1706 15.8137 41.1871 15.816 41.2035 15.8144C41.2199 15.8127 41.2356 15.8072 41.2494 15.7981C41.6066 15.4738 41.9364 15.1205 42.2356 14.742L42.2558 14.7165C42.8094 14.0124 43.5014 13.0571 44.1839 12.1111C45.4698 10.3307 46.1202 9.33911 46.6361 8.57053C46.6416 8.55977 46.6479 8.54944 46.655 8.53963C46.8189 8.28299 46.9559 8.07069 47.0581 7.91214C47.7299 6.88691 49.7682 3.88112 53.2887 1.93145L53.4701 1.83202C53.4701 1.83202 53.4701 1.83202 53.4808 1.83202C53.5695 1.78231 53.6595 1.73528 53.7495 1.68959L53.9578 1.58613L54.1231 1.50685L54.3381 1.40608C55.9021 0.673778 58.8703 -0.609428 62.0655 0.517912H62.0749C62.8789 0.804076 63.6371 1.20555 64.3256 1.70975L64.3538 1.73125C65.2586 2.38988 65.9971 3.25075 66.5104 4.24526L66.5507 4.32319L66.5655 4.35275L66.5816 4.38634C66.6313 4.47906 66.6783 4.5758 66.7227 4.67254C67.1513 5.58019 67.3453 6.58087 67.287 7.58294Z" fill="url(#paint0_linear_277_8705)"/>
<path d="M67.287 7.58301C67.3744 10.0392 66.6058 11.614 65.2608 14.6964C65.2084 14.8308 65.1533 14.9732 65.0982 15.1156C65.0686 15.1922 65.0391 15.2688 65.0082 15.3467C64.6763 16.2013 64.3081 17.1298 63.905 18.1429L63.69 18.6885L63.5704 18.9908L63.3769 19.4772C63.3124 19.6371 63.2506 19.7943 63.1888 19.9488L63.0061 20.407L62.994 20.4366V20.4473C59.3661 29.5641 59.2169 29.9095 58.4779 30.8702C57.8585 31.6764 52.0417 39.0451 45.8582 38.5815C45.5972 38.5629 45.3374 38.5297 45.0802 38.4821C42.8725 38.079 41.2279 36.7084 41.1056 36.6009C38.5849 34.4605 38.1401 31.4372 38.1791 31.4211C38.218 31.405 38.7233 33.528 40.6192 35.1551C41.2547 35.702 42.1738 36.4988 43.242 36.4236C44.7711 36.3268 45.8649 34.5142 46.5905 33.055C46.9774 32.277 47.3967 31.3337 47.8199 30.2776C48.27 28.8305 48.8156 27.1872 49.4874 25.2577C50.6389 21.9549 51.1737 20.6569 51.9799 18.3284V18.3163C52.0247 18.1792 52.0695 18.0421 52.1143 17.9051C52.1143 17.8917 52.1237 17.8769 52.1277 17.8634C52.1761 17.7129 52.2218 17.5638 52.2688 17.4147C52.3024 17.3072 52.336 17.201 52.3682 17.0949C52.3817 17.0546 52.3938 17.0129 52.4072 16.9712L52.5416 16.5345C52.7037 16.0096 52.8605 15.4999 53.0119 15.0055C53.0334 14.9329 53.0562 14.8603 53.0777 14.7878C53.337 13.9345 53.5775 13.1364 53.7912 12.4175C53.8221 12.3141 53.853 12.2133 53.8812 12.1139C53.9497 11.8854 54.0156 11.6637 54.0774 11.4528C54.0922 11.4044 54.107 11.356 54.1204 11.309C54.2077 11.0121 54.2897 10.7353 54.3636 10.4813C54.3932 10.3792 54.4227 10.2811 54.4496 10.187C54.459 10.1535 54.4697 10.1185 54.4805 10.0836C54.5101 9.98281 54.5369 9.88606 54.5638 9.79469C54.5732 9.7611 54.584 9.72751 54.5934 9.69392C54.6189 9.60658 54.6417 9.52462 54.6646 9.44803C54.7022 9.31366 54.7358 9.20214 54.764 9.1027C54.7761 9.06239 54.7868 9.02611 54.7963 8.99118C54.8379 8.69933 54.8528 8.40428 54.8406 8.10973C54.8406 8.06673 54.8406 8.02374 54.8325 7.97536C54.8258 7.86921 54.8137 7.76575 54.7976 7.66497C54.7976 7.61391 54.7815 7.5642 54.7721 7.51583C54.7627 7.46746 54.7573 7.44058 54.7479 7.4043C54.7358 7.34652 54.7197 7.28875 54.7035 7.23366C54.6874 7.17857 54.6834 7.16379 54.6713 7.12885C54.6713 7.1181 54.6713 7.10869 54.6619 7.09929C54.6525 7.08988 54.6431 7.04689 54.6337 7.02136C54.6243 6.99583 54.627 7.00658 54.6243 6.99851C54.6055 6.95014 54.5866 6.90311 54.5638 6.85743C54.5517 6.8319 54.5396 6.80502 54.5262 6.77949C54.5141 6.75416 54.5006 6.72949 54.4859 6.70559C54.4736 6.68052 54.4597 6.65628 54.4442 6.63303C54.4374 6.62089 54.4298 6.60922 54.4214 6.5981C54.3959 6.55515 54.3672 6.51427 54.3354 6.47583C54.3199 6.45235 54.3024 6.43032 54.283 6.40999C54.2634 6.38497 54.2423 6.36119 54.2198 6.33877C54.1622 6.27724 54.0987 6.22144 54.0304 6.17216L54.0196 6.16409C53.9934 6.14448 53.9661 6.12653 53.9377 6.11035L53.9054 6.09154C53.8869 6.07992 53.8676 6.0696 53.8476 6.06063C53.804 6.03962 53.7591 6.02123 53.7133 6.00554C53.6914 5.99678 53.669 5.98959 53.6461 5.98404L53.6111 5.97464H53.6004L53.5345 5.9612C53.5077 5.9612 53.4821 5.95179 53.4553 5.94911C53.4294 5.94553 53.4034 5.94329 53.3773 5.94239H53.2981C52.6007 5.94239 51.8093 6.4503 50.995 6.97298C50.8015 7.0966 50.6188 7.22425 50.4454 7.35324L50.4253 7.36937L50.3151 7.45536L50.1418 7.58973C50.0853 7.63541 50.0289 7.68244 49.9752 7.7241L49.9402 7.75366C49.6683 7.98879 49.4107 8.24007 49.169 8.50611L49.0991 8.5827L48.997 8.69826C48.9473 8.75604 48.8989 8.81247 48.8532 8.8689C48.7605 8.98043 48.6745 9.08927 48.5952 9.19407C48.4743 9.35397 48.3668 9.50715 48.2714 9.64823C46.2718 12.3656 44.4215 15.1896 42.7287 18.108C42.3606 18.7449 42.0354 19.3173 41.7465 19.8548C41.6592 20.0173 41.5745 20.1746 41.4926 20.3291C41.4106 20.4836 41.3206 20.6542 41.24 20.8115C41.205 20.8773 41.1714 20.9458 41.1392 21.0076C41.0048 21.2764 40.8704 21.529 40.7549 21.7762C40.6958 21.8971 40.6393 22.0154 40.5842 22.1309C40.5722 22.1551 40.5601 22.1793 40.5493 22.2035C40.0118 23.613 39.5966 24.8317 38.5862 27.0864C38.0232 28.3414 37.3245 29.8127 36.8193 30.8621C36.8032 30.8971 36.787 30.9293 36.7709 30.9629L36.6742 31.1644L36.6258 31.2652C36.6137 31.2907 36.6016 31.3163 36.5882 31.3405C36.5747 31.3647 36.5492 31.4251 36.529 31.4668L36.482 31.5635L36.4363 31.6576C36.4175 31.6938 36.4001 31.7315 36.3826 31.7691C36.3651 31.8067 36.3329 31.8726 36.31 31.9182C36.2872 31.9639 36.2751 31.9908 36.259 32.0231C36.2428 32.0553 36.2294 32.0835 36.2173 32.109C36.2052 32.1346 36.1972 32.148 36.1904 32.1641L36.1689 32.2071C36.1313 32.2851 36.0924 32.363 36.0561 32.4396C36.0511 32.4487 36.0466 32.4581 36.0426 32.4678C35.893 32.776 35.7354 33.0957 35.5697 33.4272C35.5562 33.4527 35.5441 33.4769 35.532 33.5024C35.4675 33.6368 35.4057 33.7577 35.3453 33.8773C35.3094 33.9481 35.2745 34.018 35.2405 34.0869L35.1854 34.1971C35.1531 34.2589 35.1222 34.3207 35.0927 34.3798L35.0725 34.4202L35.0013 34.5545C34.9865 34.5841 34.9731 34.6123 34.9583 34.6405C34.23 36.0769 33.1699 38.1166 32.4389 41.0794C31.364 45.4557 31.9283 48.0665 32.0828 48.7114C32.4228 50.1357 33.0234 52.6484 35.0725 53.8631C36.4014 54.6491 37.913 54.6384 37.8942 54.8372C37.8767 55.016 36.6648 55.0778 35.1639 55.0348C32.6741 54.9662 31.2135 54.6639 28.416 54.2138C23.7548 53.464 22.5374 53.4586 21.8682 52.3447C21.6815 52.0343 21.6304 51.7911 21.5525 50.129C21.4101 47.1004 21.3388 45.5861 21.4893 42.6945C21.5968 40.6454 21.6506 39.6202 21.8535 38.4109C22.1319 36.7639 22.5697 35.1479 23.1609 33.5857C23.9671 31.4103 24.6926 29.6891 25.3578 28.164C25.3578 28.156 25.3645 28.1479 25.3685 28.1385C26.2406 26.0195 26.9944 24.2862 27.5587 23.0137C27.5587 23.0137 27.7858 22.5005 28.2601 21.2871L28.2722 21.2535C28.3085 21.1568 28.3434 21.0587 28.3783 20.9593C28.3783 20.9418 28.3918 20.923 28.3971 20.9055C28.4388 20.7886 28.4805 20.669 28.5221 20.5494C28.9575 19.2877 29.3525 18.1456 29.7059 17.0975L29.8792 16.5816C30.0414 16.0979 30.1945 15.6338 30.3388 15.1895C30.371 15.0874 30.4032 14.988 30.4342 14.8886C30.5605 14.4949 30.6787 14.1159 30.7889 13.7491C30.8252 13.6322 30.8588 13.5153 30.8923 13.4011C30.9112 13.3393 30.93 13.2761 30.9474 13.2143C30.9837 13.0907 31.02 12.9671 31.0536 12.8462C31.2269 12.2348 31.3774 11.657 31.5064 11.0994C31.5306 10.9919 31.5548 10.8858 31.5776 10.7796C31.6005 10.6735 31.6246 10.5633 31.6461 10.4558C31.6676 10.3483 31.6851 10.265 31.7039 10.1696C31.7039 10.1373 31.716 10.1051 31.7227 10.0728C31.7389 9.98953 31.7536 9.90622 31.7684 9.82291C31.7678 9.82026 31.7678 9.8175 31.7684 9.81485C31.7872 9.71139 31.8034 9.60927 31.8195 9.50849C31.888 9.09061 31.9418 8.68079 31.9807 8.275C31.9901 8.18632 31.9968 8.09898 32.0036 8.00627C32.0036 7.99686 32.0036 7.98746 32.0036 7.97805C32.0345 7.60451 32.0519 7.23231 32.0587 6.85743C32.0734 5.94373 32.0681 2.67727 34.0083 1.09308C34.4111 0.774224 34.8607 0.519506 35.3412 0.337935C35.5596 0.250568 35.7842 0.179604 36.0131 0.125635C36.6556 0.0634889 37.3032 0.0770183 37.9426 0.165945H37.9574L38.1925 0.199537L38.4263 0.239847C38.5056 0.254627 38.5875 0.272095 38.6682 0.289563L38.8899 0.341966C39.0874 0.391682 39.2863 0.44946 39.4824 0.517987C39.5483 0.540829 39.6168 0.563672 39.6773 0.589201C39.7377 0.614731 39.8116 0.642948 39.8829 0.672509C40.2817 0.847392 40.6628 1.06022 41.0209 1.30807L41.1096 1.37122L41.2373 1.46393C41.291 1.5029 41.3461 1.54455 41.4012 1.58889C41.4563 1.63323 41.5356 1.6937 41.5987 1.75013C41.6619 1.80657 41.6887 1.82807 41.7331 1.86838C41.7774 1.90869 41.8446 1.96915 41.901 2.0229L41.9091 2.03096L41.9736 2.09277C42.3888 2.47954 42.7423 2.92772 43.0217 3.42166C43.2914 3.89681 43.4845 4.41147 43.5941 4.94673C43.6381 5.1433 43.6722 5.34197 43.6962 5.54197C43.7056 5.61722 43.7123 5.69381 43.719 5.76905C43.7365 5.96254 43.7432 6.15872 43.7432 6.35489C43.7432 6.43014 43.7432 6.50404 43.7432 6.57929C43.7432 6.83996 43.7163 7.10332 43.6854 7.36937C43.6854 7.36937 43.6854 7.36937 43.6854 7.37877C43.6559 7.75231 43.6156 8.1366 43.5726 8.53164C43.4019 10.1293 42.6078 12.4014 41.6122 14.425C41.6094 14.4296 41.6071 14.4346 41.6054 14.4398C41.5678 14.5284 41.5302 14.6118 41.4966 14.6924C41.463 14.773 41.4388 14.8267 41.4133 14.8818C41.3394 15.0552 41.2789 15.2043 41.2279 15.3293C41.2171 15.3535 41.2091 15.3776 41.201 15.4005C41.1768 15.4677 41.1567 15.5268 41.1432 15.5779C41.1386 15.5933 41.1351 15.609 41.1325 15.6249C41.1314 15.6387 41.1314 15.6527 41.1325 15.6665C41.1305 15.6866 41.1305 15.7069 41.1325 15.727C41.1343 15.7408 41.1398 15.7538 41.1486 15.7646C41.152 15.7697 41.1566 15.7738 41.162 15.7767C41.1714 15.7822 41.1821 15.785 41.1929 15.7848H41.2171C41.2304 15.7808 41.2435 15.7759 41.2561 15.77C41.6124 15.4452 41.9418 15.092 42.241 14.7139L42.2611 14.6883C42.6642 14.1764 43.1386 13.5314 43.6317 12.8542L43.7553 12.6836L44.1893 12.083C44.5414 11.5952 44.845 11.1679 45.1124 10.7877L45.2239 10.6278C45.3408 10.4598 45.451 10.3013 45.5531 10.1521C45.58 10.1145 45.6055 10.0769 45.6297 10.0406C45.7305 9.89547 45.8246 9.75841 45.9119 9.62673L46.0463 9.43728C46.1309 9.31366 46.2089 9.19676 46.2841 9.08389L46.3795 8.94012L46.5609 8.67138L46.6469 8.54374C46.6524 8.53297 46.6586 8.52264 46.6657 8.51283C46.8296 8.25619 46.9667 8.04389 47.0688 7.88534C47.7326 6.87893 49.7037 3.96047 53.1059 2.01484L53.2994 1.90466L53.4808 1.80522H53.4902C53.5789 1.75551 53.6689 1.70848 53.7589 1.66279L53.9672 1.55933L54.1325 1.48006L54.2373 1.43034L54.3475 1.37928L54.4133 1.34972C55.9935 0.612044 58.924 -0.616072 62.0722 0.491113H62.0816L62.1058 0.499175C62.5015 0.626639 62.8854 0.788031 63.2533 0.981553C63.6308 1.18466 63.9903 1.41929 64.3283 1.68295L64.3565 1.70445C65.2613 2.36308 65.9998 3.22395 66.5131 4.21846L66.5534 4.29639L66.5682 4.32595L66.5843 4.35954C66.6044 4.39717 66.6246 4.43613 66.6434 4.4751C66.6622 4.51407 66.6998 4.58797 66.7254 4.64575C66.8177 4.84658 66.8998 5.05198 66.9713 5.26115C67.0022 5.35117 67.0304 5.44389 67.0573 5.52988C67.0653 5.55541 67.072 5.58094 67.0788 5.60647C67.115 5.74084 67.1459 5.8752 67.1728 6.00957C67.1876 6.08213 67.1997 6.15603 67.2118 6.22993C67.2239 6.30384 67.2387 6.41133 67.2481 6.49867V6.53763C67.2588 6.63303 67.2669 6.73112 67.2722 6.82921C67.2991 7.08854 67.2991 7.33174 67.287 7.58301Z" fill="url(#paint1_linear_277_8705)"/>
<path style="mix-blend-mode:multiply" d="M67.287 7.58288C67.3744 10.0391 66.6058 11.6139 65.2608 14.6963C65.207 14.8306 65.1533 14.9731 65.0982 15.1155C65.0686 15.1921 65.0391 15.2687 65.0082 15.3466C64.6763 16.2012 64.3081 17.1297 63.905 18.1428L63.69 18.6883C63.6511 18.7891 63.6108 18.8885 63.5704 18.9907L63.377 19.4771C63.3125 19.637 63.2506 19.7942 63.1888 19.9487C63.127 20.1032 63.0545 20.2846 62.99 20.4472C59.3621 29.564 59.2129 29.9093 58.4739 30.8701C57.8545 31.6763 52.0377 39.045 45.8541 38.5814C46.1578 36.3361 46.6697 33.9645 47.8159 30.2802C48.266 28.833 48.8116 27.1897 49.4834 25.2602C50.6349 21.9575 51.1697 20.6595 51.9759 18.3309V18.3175C52.0207 18.1804 52.0655 18.0434 52.1103 17.9063C52.1103 17.8929 52.1197 17.8781 52.1237 17.8647C52.1721 17.7142 52.2178 17.565 52.2648 17.4159C52.2984 17.3084 52.332 17.2022 52.3642 17.0961L52.4032 16.9725L52.5376 16.5358C52.6997 16.0108 52.8565 15.5011 53.0078 15.0067C53.0293 14.9341 53.0522 14.8615 53.0737 14.789C53.3344 13.9344 53.5735 13.1376 53.7872 12.4188C53.8181 12.3153 53.849 12.2145 53.8772 12.1151C53.9471 11.8853 54.0116 11.665 54.0734 11.454C54.0882 11.4056 54.1029 11.3573 54.1164 11.3102C54.2037 11.0133 54.2857 10.7365 54.3596 10.4825C54.3891 10.3804 54.4187 10.2823 54.4456 10.1883C54.4563 10.1533 54.4657 10.1184 54.4765 10.0848C54.5047 9.98402 54.5329 9.88728 54.5598 9.79591C54.5705 9.76097 54.5799 9.72738 54.5893 9.69513C54.6149 9.60779 54.6377 9.52583 54.6606 9.44924C54.6982 9.31487 54.7318 9.20335 54.76 9.10392C54.7721 9.06361 54.7828 9.02733 54.7922 8.99239C54.8339 8.70055 54.8487 8.4055 54.8366 8.11094C54.8366 8.06795 54.8366 8.02495 54.8285 7.97658C54.8205 7.87043 54.8097 7.76696 54.7936 7.66619C54.7936 7.61513 54.7775 7.56541 54.7681 7.51704C54.7586 7.46867 54.7533 7.44179 54.7439 7.40552C54.7318 7.34774 54.717 7.28996 54.6995 7.23487C54.6821 7.17978 54.6794 7.165 54.6673 7.13006C54.6649 7.11997 54.6618 7.11008 54.6579 7.1005C54.6498 7.07497 54.6391 7.0481 54.6297 7.02257C54.6273 7.01464 54.6242 7.00699 54.6202 6.99973C54.6082 6.96748 54.5947 6.93657 54.5813 6.90567C54.5755 6.8894 54.5683 6.87366 54.5598 6.85864V6.84924C54.5508 6.82755 54.5405 6.80645 54.5289 6.78608C54.5168 6.76075 54.5033 6.73608 54.4886 6.71218C54.4763 6.68711 54.4624 6.66287 54.4469 6.63962C54.4402 6.62753 54.4321 6.61678 54.4241 6.60469C54.416 6.59259 54.4053 6.57378 54.3959 6.559C54.3864 6.54422 54.3582 6.50794 54.3381 6.48241C54.3226 6.45894 54.3051 6.43691 54.2857 6.41657C54.268 6.39457 54.2491 6.37349 54.2292 6.35342C54.1381 6.255 54.032 6.17156 53.9148 6.10618C53.8963 6.09457 53.877 6.08425 53.857 6.07528C53.8357 6.06407 53.8137 6.05419 53.7912 6.04572C53.7693 6.03604 53.7468 6.02752 53.724 6.02019C53.7022 6.01143 53.6797 6.00424 53.6568 5.99869L53.6111 5.9866L53.5453 5.97316C53.5184 5.97316 53.4929 5.96376 53.466 5.96107C53.4402 5.9575 53.4142 5.95525 53.3881 5.95435H53.3088C52.6115 5.95435 51.82 6.46226 51.0058 6.98495C50.8051 7.11394 50.6152 7.24831 50.4361 7.38805C50.338 7.46195 50.2439 7.53585 50.1525 7.6111C50.0961 7.65678 50.0397 7.70381 49.9859 7.74546C49.7015 7.98945 49.4323 8.25061 49.1797 8.52748L49.1098 8.60407L49.0077 8.71963C48.958 8.7774 48.9096 8.83384 48.864 8.89027C48.7726 9.00045 48.6866 9.11063 48.606 9.21544C48.485 9.37534 48.3775 9.52852 48.2821 9.6696C46.2795 12.3797 44.4257 15.1966 42.7288 18.1079C42.3606 18.7448 42.0354 19.3172 41.7465 19.8546C41.6592 20.0172 41.5745 20.1744 41.4926 20.3289C41.4106 20.4835 41.3206 20.6555 41.24 20.8113C41.205 20.8772 41.1714 20.9457 41.1392 21.0075C41.0048 21.2762 40.8705 21.5302 40.7549 21.7761C40.6958 21.897 40.6393 22.0153 40.5843 22.1308C40.5722 22.1563 40.5601 22.1832 40.5466 22.2087C40.0092 23.6183 39.594 24.837 38.5835 27.0916C38.0205 28.3466 37.3218 29.818 36.8166 30.8674C36.8005 30.9023 36.7844 30.9345 36.7682 30.9681L36.6715 31.1697L36.6231 31.2705C36.611 31.296 36.5989 31.3215 36.5855 31.3457C36.5809 31.3544 36.5769 31.3634 36.5734 31.3726C36.5573 31.4075 36.5425 31.4398 36.5264 31.472L36.4793 31.5688C36.4632 31.5997 36.4484 31.6306 36.4337 31.6628L36.3073 31.9235C36.2899 31.9611 36.2724 31.996 36.2563 32.0283L36.2146 32.1143C36.2039 32.1344 36.1945 32.1533 36.1878 32.1694C36.1394 32.2702 36.0897 32.3709 36.04 32.473C35.8904 32.7812 35.7327 33.101 35.567 33.4324L35.5294 33.5077C35.5226 33.5198 35.5173 33.5319 35.5106 33.5453C35.4528 33.6622 35.3977 33.7751 35.3426 33.8826C35.3068 33.9533 35.2718 34.0232 35.2378 34.0922L35.1827 34.2024C35.1504 34.2642 35.1195 34.326 35.09 34.3851L35.0698 34.4254L34.9986 34.5598L34.9556 34.6458C31.1097 34.4691 27.374 33.3053 24.1082 31.2664C24.5435 30.161 24.9591 29.1309 25.3551 28.176C25.3551 28.1679 25.3618 28.1599 25.3658 28.1505C26.2379 26.0315 26.9917 24.2982 27.556 23.0257C27.556 23.0257 27.7831 22.5124 28.2574 21.2991C28.2626 21.2883 28.2667 21.2771 28.2695 21.2655C28.3058 21.1687 28.3407 21.0707 28.3757 20.9712C28.3757 20.9538 28.3891 20.9349 28.3945 20.9175C28.4361 20.8006 28.4778 20.681 28.5194 20.5614C28.9548 19.301 29.3498 18.1576 29.7032 17.1095L29.8765 16.5935C30.0387 16.1098 30.1919 15.6458 30.3361 15.2015C30.3683 15.0994 30.4006 14.9999 30.4315 14.9005C30.5578 14.5068 30.676 14.1279 30.7862 13.7611C30.8225 13.6442 30.8561 13.5273 30.8897 13.4131C30.9098 13.3499 30.9273 13.2868 30.9448 13.2263C30.981 13.1027 31.0173 12.9791 31.0509 12.8581C31.2242 12.2468 31.3747 11.669 31.5037 11.1114C31.5279 11.0039 31.5521 10.8977 31.5749 10.7916C31.5978 10.6854 31.622 10.5752 31.6435 10.4677C31.665 10.3602 31.6824 10.2769 31.7012 10.1815C31.7012 10.1493 31.7133 10.117 31.7201 10.0848C31.7362 10.0015 31.751 9.91818 31.7657 9.83487C31.7657 9.83487 31.7657 9.83487 31.7657 9.82681C31.7846 9.72335 31.8007 9.62123 31.8168 9.52045C31.8853 9.10257 31.9391 8.69275 31.978 8.28696C31.9874 8.19828 31.9942 8.11094 32.0009 8.01823C32.0023 8.00843 32.0023 7.99847 32.0009 7.98867C32.0318 7.61513 32.0493 7.24293 32.056 6.86805C32.0708 5.95435 32.0654 2.68788 34.0056 1.1037C34.4084 0.784842 34.858 0.530124 35.3386 0.348552C35.5569 0.261185 35.7815 0.190222 36.0104 0.136252C36.6529 0.0741064 37.3005 0.0876357 37.9399 0.176562H37.9547L38.1898 0.210154L38.4236 0.250464C38.5029 0.265245 38.5849 0.282712 38.6655 0.30018L38.8872 0.352583C39.0847 0.402299 39.2836 0.460077 39.4798 0.528604C39.5456 0.551447 39.6141 0.574289 39.6746 0.599819C39.7351 0.625349 39.809 0.653566 39.8802 0.683126C40.279 0.85801 40.6601 1.07084 41.0183 1.31868L41.1069 1.38184C41.1499 1.4114 41.1916 1.4423 41.2346 1.47455C41.2776 1.5068 41.3434 1.55517 41.3985 1.59951C41.4536 1.64385 41.5329 1.70432 41.596 1.76075C41.6592 1.81719 41.6861 1.83868 41.7304 1.87899C41.7747 1.9193 41.8419 1.97977 41.8984 2.03352L41.9709 2.10339C42.3862 2.49016 42.7396 2.93833 43.019 3.43228C43.2887 3.90743 43.4819 4.42209 43.5914 4.95735C43.6354 5.15392 43.6695 5.35259 43.6935 5.55259C43.7029 5.62784 43.7096 5.70443 43.7164 5.77967C43.7338 5.9745 43.7405 6.16934 43.7405 6.36551C43.7405 6.44076 43.7405 6.51466 43.7405 6.58991C43.7343 6.85864 43.7146 7.12738 43.6814 7.39611C43.6519 7.76965 43.6115 8.15394 43.5686 8.54898C43.3979 10.1466 42.6038 12.4188 41.6081 14.4423L41.6014 14.4571C41.5624 14.5458 41.5262 14.6304 41.4926 14.7097C41.459 14.789 41.4348 14.8441 41.4093 14.8992C41.3354 15.0725 41.2749 15.2217 41.2238 15.3466C41.2131 15.3708 41.205 15.395 41.197 15.4178C41.1744 15.4758 41.1551 15.535 41.1392 15.5952C41.1346 15.6106 41.131 15.6263 41.1284 15.6422C41.1274 15.6561 41.1274 15.67 41.1284 15.6839C41.1265 15.704 41.1265 15.7242 41.1284 15.7443C41.1302 15.7581 41.1358 15.7712 41.1446 15.782C41.148 15.787 41.1526 15.7912 41.158 15.7941C41.1674 15.7995 41.1781 15.8023 41.1889 15.8021H41.2131L41.2534 15.7873C41.4348 15.6987 41.7909 15.2996 42.2383 14.7312C42.6414 14.2152 43.1278 13.5609 43.629 12.8716L43.7526 12.7009L44.1866 12.1003C44.5387 11.6139 44.8424 11.1853 45.1097 10.805L45.2213 10.6451C45.3382 10.4771 45.4483 10.3186 45.5505 10.1694C45.5773 10.1318 45.6029 10.0942 45.6271 10.0579C45.7278 9.91146 45.8219 9.77441 45.9092 9.64407L46.0436 9.45461L46.2814 9.10123L46.3768 8.95746L46.5582 8.68872L46.6442 8.56107L46.663 8.53017C46.827 8.27353 46.964 8.06123 47.0661 7.90267C47.7299 6.89626 49.7011 3.97781 53.1032 2.03217C53.2269 1.96141 53.3518 1.89154 53.4781 1.82256H53.4875C53.6452 1.73836 53.8051 1.65639 53.9672 1.57667L54.1325 1.49739L54.2373 1.44768L54.3475 1.39662L54.4187 1.36437C55.9989 0.626692 58.9294 -0.601424 62.0776 0.505762L62.1112 0.516511C62.5069 0.643974 62.8908 0.805367 63.2587 0.998889C63.6361 1.202 63.9957 1.43663 64.3336 1.70029L64.3619 1.72178C65.2667 2.38042 66.0052 3.24129 66.5185 4.23579C66.5373 4.27207 66.5574 4.30835 66.5749 4.34598L66.591 4.37957C66.6112 4.41719 66.6313 4.45616 66.6501 4.49512C66.6689 4.53409 66.7052 4.60799 66.7321 4.66577C66.8247 4.8665 66.9067 5.07192 66.978 5.28117C67.0089 5.3712 67.0371 5.46391 67.064 5.5499C67.0721 5.57543 67.0788 5.60096 67.0855 5.62649C67.1218 5.76086 67.1527 5.89523 67.1795 6.0296C67.1943 6.10215 67.2064 6.17471 67.2185 6.24996C67.2306 6.3252 67.2454 6.43135 67.2548 6.51869V6.55766C67.2655 6.65306 67.2736 6.75115 67.279 6.84924C67.2991 7.08841 67.2991 7.33027 67.287 7.58288Z" fill="url(#paint2_linear_277_8705)"/>
</g>
<defs>
<linearGradient id="paint0_linear_277_8705" x1="0" y1="24.6731" x2="67.2964" y2="24.6731" gradientUnits="userSpaceOnUse">
<stop stop-color="#E22D75"/>
<stop offset="1" stop-color="#EA7269"/>
</linearGradient>
<linearGradient id="paint1_linear_277_8705" x1="21.4074" y1="27.5594" x2="67.2964" y2="27.5594" gradientUnits="userSpaceOnUse">
<stop stop-color="#FFE815"/>
<stop offset="1" stop-color="#F29130"/>
</linearGradient>
<linearGradient id="paint2_linear_277_8705" x1="24.1122" y1="19.3306" x2="67.2964" y2="19.3306" gradientUnits="userSpaceOnUse">
<stop stop-color="#FFE815"/>
<stop offset="1" stop-color="#F29130"/>
</linearGradient>
<clipPath id="clip0_277_8705">
<rect width="67.7895" height="56" fill="white"/>
</clipPath>
</defs>
</svg>
