<svg width="86" height="86" viewBox="0 0 86 86" fill="none" xmlns="http://www.w3.org/2000/svg">
<line x1="24.5" y1="19" x2="24.5" y2="73" stroke="#4D4D4D"/>
<line x1="10" y1="37.5" x2="79" y2="37.5" stroke="#4D4D4D"/>
<path fill-rule="evenodd" clip-rule="evenodd" d="M77.875 26.5082C76.191 24.0527 72.7809 21.4375 70.8125 21.4375H17.0625C14.897 21.4375 11.3112 23.9534 10 26.3367V65.4375C10 69.338 13.162 72.5 17.0625 72.5H70.8125C74.713 72.5 77.875 69.338 77.875 65.4375V26.5082ZM17.0625 8C12.0574 8 8 12.0574 8 17.0625V65.4375C8 70.4426 12.0574 74.5 17.0625 74.5H70.8125C75.8176 74.5 79.875 70.4426 79.875 65.4375V17.0625C79.875 12.0574 75.8176 8 70.8125 8H67.7588H20.1162H17.0625Z" fill="#4D4D4D"/>
</svg>
