<svg width="86" height="86" viewBox="0 0 86 86" fill="none" xmlns="http://www.w3.org/2000/svg">
<path fill-rule="evenodd" clip-rule="evenodd" d="M76.9375 29.6994C75.2535 26.7415 71.8434 23.1875 69.875 23.1875H16.125C14.1566 23.1875 10.7465 26.7415 9.0625 29.6994V67.1875C9.0625 71.088 12.2245 74.25 16.125 74.25H69.875C73.7755 74.25 76.9375 71.088 76.9375 67.1875V29.6994ZM16.125 9.75C11.1199 9.75 7.0625 13.8074 7.0625 18.8125V67.1875C7.0625 72.1926 11.1199 76.25 16.125 76.25H69.875C74.8801 76.25 78.9375 72.1926 78.9375 67.1875V18.8125C78.9375 13.8074 74.8801 9.75 69.875 9.75H66.8213H19.1787H16.125Z" fill="#4D4D4D"/>
<path fill-rule="evenodd" clip-rule="evenodd" d="M34.115 37.6654C34.3228 37.4835 34.3438 37.1676 34.162 36.9598C33.9802 36.752 33.6643 36.7309 33.4565 36.9128L21.1707 47.6628C21.0622 47.7577 21 47.8949 21 48.0391C21 48.1833 21.0622 48.3204 21.1707 48.4154L33.4565 59.1654C33.6643 59.3472 33.9802 59.3261 34.162 59.1183C34.3438 58.9105 34.3228 58.5946 34.115 58.4128L22.2593 48.0391L34.115 37.6654ZM52.5435 36.9128C52.3357 36.7309 52.0198 36.752 51.838 36.9598C51.6562 37.1676 51.6772 37.4835 51.885 37.6654L63.7407 48.0391L51.885 58.4128C51.6772 58.5946 51.6562 58.9105 51.838 59.1183C52.0198 59.3261 52.3357 59.3472 52.5435 59.1654L64.8293 48.4154C64.9378 48.3204 65 48.1833 65 48.0391C65 47.8949 64.9378 47.7577 64.8293 47.6628L52.5435 36.9128ZM34.3616 50.5345C35.7399 50.5345 36.8572 49.4172 36.8572 48.039C36.8572 46.6608 35.7399 45.5435 34.3616 45.5435C32.9834 45.5435 31.8661 46.6608 31.8661 48.039C31.8661 49.4172 32.9834 50.5345 34.3616 50.5345ZM45.4956 48.039C45.4956 49.4172 44.3783 50.5345 43.0001 50.5345C41.6218 50.5345 40.5045 49.4172 40.5045 48.039C40.5045 46.6608 41.6218 45.5435 43.0001 45.5435C44.3783 45.5435 45.4956 46.6608 45.4956 48.039ZM54.1339 48.039C54.1339 49.4172 53.0166 50.5345 51.6384 50.5345C50.2601 50.5345 49.1428 49.4172 49.1428 48.039C49.1428 46.6608 50.2601 45.5435 51.6384 45.5435C53.0166 45.5435 54.1339 46.6608 54.1339 48.039Z" fill="#4D4D4D"/>
</svg>
