<svg width="1920" height="1097" viewBox="0 0 1920 1097" fill="none" xmlns="http://www.w3.org/2000/svg">
<g clip-path="url(#clip0_195_4422)">
<path d="M-197.08 959.83C-227 872.4 -198.55 768.06 -128.39 707.92C-58.23 647.78 49.23 635.6 131.06 678.52C179.06 703.71 224.21 747.12 277.99 740.26C343.55 731.9 374.46 656.26 390.18 592.07C405.9 527.88 429.73 451.82 493.55 434.64C549.3 419.64 605.06 460.43 639.72 506.64C674.38 552.85 699.53 607.87 745.61 642.64C791.69 677.41 887.37 698.56 913.35 647.01C937.77 598.56 883.93 522.88 882.11 468.65C879.77 399 926.6 253 994.63 237.94C1062.66 222.88 1148.02 330.24 1208.74 364.41C1269.46 398.58 1344.74 415.77 1402.74 454.41C1436.15 476.65 1450.28 525.66 1490.14 530.35C1530 535.04 1574.27 521.02 1595.87 487.19C1639.87 418.33 1569.75 319.72 1609.01 248.08C1636.91 197.16 1705.01 186.98 1763.11 188.25C1881.06 190.897 1997.41 216.072 2105.9 262.42" stroke="#333333" stroke-width="0.25" stroke-miterlimit="10"/>
<path d="M-191.81 966.32C-215.72 880.77 -185.2 777 -117 714.81C-95.1166 694.945 -69.714 679.344 -42.1 668.81C14.25 647.21 77.37 646.55 129.71 671.65C175.88 693.79 218.54 734.38 269.96 726.4C332.57 716.68 362.33 643.05 377.77 580.4C393.37 517.3 416.94 443.2 479.13 426.76C525.59 414.48 573.27 445.57 606.7 481.68C614.632 490.332 621.928 499.546 628.53 509.25C641.69 528.44 653.4 549 665.92 569C684.82 599.19 706.28 628.41 734.41 647.74C736.14 648.93 737.88 650.09 739.65 651.19C763.11 665.83 795.65 674.6 825.48 675.59C859.48 676.72 890.75 667.05 902.48 637.95C906.94 626.88 907.86 614.66 906.36 601.79C904.74 587.87 900.36 573.22 895.36 558.02C890.68 543.85 885.63 529.02 881.89 514.91C875.99 492.56 872.74 472.7 873.78 456.38C875.15 434.97 880.66 405.85 890.95 375.96C910.8 318.5 947.64 258.52 993.62 251.71C1063.13 241.42 1149.95 346.26 1213.69 380.19C1232.58 390.154 1252.16 398.766 1272.27 405.96C1292.05 413.17 1312.16 419.18 1330.83 425.2C1357.83 433.84 1381.71 443.73 1403.07 457.47C1432.79 476.67 1444.4 521.09 1480.81 523.11C1503.81 524.36 1528.68 518.38 1548.81 504.94C1560.78 497.069 1570.72 486.477 1577.81 474.03C1594.68 444.18 1593.23 409.3 1589.74 373.93C1584.91 324.5 1575.57 275.54 1600.74 236.84C1604.52 231.009 1608.96 225.639 1613.99 220.84C1648.34 188.28 1706.51 183.84 1757.46 187.59C1762.25 187.93 1767.04 188.32 1771.84 188.73C1884.97 198.33 1996.9 230.27 2103.37 274.84" stroke="#333333" stroke-width="0.29" stroke-miterlimit="10"/>
<path d="M-186.55 972.8C-204.45 889.13 -171.86 786 -105.71 721.71C-84.7798 701.384 -60.4875 684.836 -33.9099 672.8C19.5301 648.66 78.7401 643.42 128.25 664.69C172.56 683.69 212.76 721.57 261.83 712.46C321.48 701.38 350.1 629.75 365.26 568.71C380.73 506.71 404.05 434.58 464.6 418.86C512.37 406.46 562.53 444.21 595.46 482.13C603.459 491.486 610.743 501.431 617.25 511.88C630.34 532.54 641.83 554.49 654.64 575.8C673.96 607.93 697.64 638.9 728.04 656.59C729.91 657.67 731.78 658.72 733.68 659.7C759.09 672.7 791.75 676.98 820.39 674.7C852.89 672.11 881.98 659.61 891.55 628.86C895.2 617.16 895.4 604.43 893.12 591.18C890.63 576.7 885.24 561.66 879.74 545.82C874.55 530.94 869.52 515.07 866.74 500.31C862.44 477.09 862.61 458.31 865.29 444.07C868.85 425.14 874.88 399.56 885.89 373.15C907.15 322.48 945.22 269.15 992.45 265.41C1063.45 259.87 1151.8 362.03 1218.45 395.89C1237.94 405.744 1258.19 414.023 1279 420.65C1299.37 427.13 1320 431.72 1338 435.82C1364.1 441.73 1384.72 449.08 1403.27 460.48C1429.27 476.62 1438.39 516.48 1471.35 515.82C1493.83 515.124 1515.5 507.249 1533.18 493.35C1544.31 484.592 1553.36 473.484 1559.69 460.82C1575.07 429.82 1573.69 394.01 1571.85 358.26C1569.38 308.26 1564.92 261.21 1592.37 225.55C1596.48 220.166 1601.21 215.283 1606.46 211C1642.46 181.7 1700.46 180.63 1751.66 186.93C1756.48 187.523 1761.3 188.143 1766.11 188.79C1879.61 203.79 1991.51 242.53 2100.71 287.27" stroke="#333333" stroke-width="0.32" stroke-miterlimit="10"/>
<path d="M-181.28 979.29C-193.18 897.5 -158.51 794.93 -94.37 728.6C-74.3335 707.844 -51.1528 690.373 -25.6799 676.83C24.8601 650.15 80.0401 640.26 126.85 657.78C169.24 673.65 207.02 708.78 253.75 698.55C310.43 686.12 337.92 616.55 352.75 557.03C368.1 496.13 391.17 426.03 450.07 410.97C499.16 398.45 551.77 442.9 584.22 482.58C592.297 492.646 599.579 503.325 606 514.52C619 536.63 630.25 560.03 643.35 582.64C663.09 616.71 689.05 649.44 721.67 665.47C723.67 666.47 725.67 667.4 727.67 668.24C755.05 679.61 787.75 679.42 815.26 673.84C846.26 667.55 873.17 652.19 880.61 619.78C883.45 607.46 882.92 594.21 879.87 580.59C876.5 565.59 870.13 550.12 864.14 533.59C858.43 518.02 853.42 501.09 851.7 485.68C849.01 461.61 852.59 444.04 856.92 431.75C862.67 415.39 869.23 393.25 880.92 370.33C903.59 326.43 942.92 279.65 991.36 279.09C1063.74 278.26 1153.68 377.89 1223.36 411.58C1243.38 421.348 1264.24 429.3 1285.68 435.34C1306.68 441.09 1327.68 444.25 1345.15 446.44C1370.37 449.6 1387.73 454.37 1403.44 463.44C1425.84 476.44 1432.36 511.87 1461.87 508.44C1480.49 506.29 1500.87 497.3 1517.53 481.67C1527.77 472.038 1535.94 460.418 1541.53 447.52C1555.53 415.52 1554.12 378.64 1553.93 342.52C1553.81 291.87 1554.22 246.8 1583.93 214.17C1588.4 209.224 1593.44 204.815 1598.93 201.03C1636.75 175.03 1694.48 177.25 1745.93 186.15C1750.76 186.977 1755.59 187.837 1760.43 188.73C1874.3 209.07 1986.18 254.66 2098.1 299.56" stroke="#333333" stroke-width="0.36" stroke-miterlimit="10"/>
<path d="M-176 985.78C-181.89 905.87 -145.15 803.89 -82.9999 735.5C-63.8047 714.304 -41.7254 695.91 -17.4099 680.86C30.2301 651.64 81.2201 637.03 125.48 650.86C165.87 663.49 201.3 696.03 245.7 684.64C299.41 670.86 325.77 603.23 340.37 545.34C355.59 485.54 378.43 417.41 435.68 403.07C486.08 390.44 541.11 441.61 573.11 483.07C581.239 493.846 588.492 505.256 594.8 517.19C607.66 540.76 618.72 565.6 632.1 589.51C652.28 625.51 680.49 660 715.35 674.39C717.49 675.27 719.63 676.11 721.78 676.82C751.15 686.53 783.78 681.92 810.24 673.01C839.73 663.07 864.47 644.8 869.78 610.75C871.78 597.81 870.55 584.04 866.78 570.04C862.52 554.44 855.19 538.62 848.7 521.48C842.48 505.22 837.48 487.23 836.77 471.18C835.67 446.26 842.62 429.97 848.65 419.54C856.54 405.88 863.65 387.02 876.12 367.63C900.12 330.43 940.68 290.29 990.44 292.89C1064.23 296.75 1155.72 393.89 1228.36 427.39C1248.89 436.86 1270.66 444.97 1292.54 450.13C1312.22 454.53 1332.3 456.876 1352.46 457.13C1376.81 457.53 1390.89 459.75 1403.78 466.57C1422.51 476.47 1426.51 507.4 1452.55 501.3C1468.98 497.46 1487.19 486.99 1502.06 470.24C1511.33 459.729 1518.6 447.605 1523.49 434.47C1535.98 401.32 1534.67 363.47 1536.13 327C1538.37 275.74 1543.63 232.63 1575.71 203C1580.53 198.506 1585.85 194.571 1591.56 191.27C1631.16 168.58 1688.63 174.08 1740.25 185.57C1745.11 186.65 1749.96 187.76 1754.82 188.87C1869 214.87 1980.9 266.99 2095.55 312.07" stroke="#333333" stroke-width="0.39" stroke-miterlimit="10"/>
<path d="M-170.75 992.26C-170.63 914.26 -131.82 812.85 -71.69 742.4C-53.294 720.75 -32.3105 701.439 -9.21001 684.9C35.53 653.13 82.12 633.73 124 644C162.3 653.34 195.48 683.34 237.55 670.8C288.28 655.69 313.55 590.04 327.85 533.72C343 475 365.58 408.87 421.17 395.19C472.89 382.45 530.31 440.37 561.89 483.49C570.3 494.97 577.21 507.35 583.53 519.8C596.27 544.8 607.12 571.11 620.79 596.32C641.39 634.32 671.85 670.51 708.95 683.24C711.24 684.02 713.51 684.75 715.78 685.33C747.16 693.33 779.78 684.42 805.13 672.13C833.06 658.58 855.67 637.36 858.85 601.66C860.06 588.09 858.07 573.8 853.48 559.43C848.33 543.27 840.05 527.06 833.06 509.28C826.33 492.28 821.33 473.28 821.64 456.58C822.13 430.81 832.34 415.9 840.19 407.23C850.03 396.36 857.87 380.71 871.09 364.83C896.44 334.36 938.26 300.83 989.29 306.59C1064.48 315.1 1157.52 409.78 1233.16 443.1C1254.34 452.43 1276.76 460.4 1299.22 464.83C1319.1 468.649 1339.42 469.659 1359.58 467.83C1383.07 465.47 1393.87 465.13 1403.93 469.65C1419 476.43 1420.48 502.88 1443.04 494.09C1457.28 488.54 1473.28 476.6 1486.39 458.72C1494.66 447.358 1501.04 434.736 1505.29 421.34C1516.29 387.08 1514.98 348.34 1518.17 311.41C1522.65 259.54 1532.85 218.41 1567.28 191.81C1572.46 187.759 1578.06 184.291 1584 181.47C1625.39 162.1 1682.59 170.87 1734.44 184.96C1739.31 186.28 1744.18 187.63 1749.07 188.96C1863.6 220.35 1975.49 279.28 2092.86 324.53" stroke="#333333" stroke-width="0.43" stroke-miterlimit="10"/>
<path d="M-165.48 998.75C-159.36 922.61 -118.48 821.81 -60.35 749.29C-42.6965 727.181 -22.8078 706.954 -0.999985 688.93C40.83 654.62 82.76 630.37 122.61 637.04C158.66 643.04 189.72 670.54 229.48 656.85C277.21 640.41 301.34 576.74 315.4 522C330.4 464.39 352.74 400.34 406.67 387.3C459.67 374.47 519.5 439.14 550.67 483.95C559.16 496.14 566 509.25 572.26 522.44C584.89 548.92 595.52 576.65 609.48 603.16C630.48 643.06 663.21 681.04 702.56 692.16C704.99 692.84 707.39 693.46 709.79 693.92C743.18 700.27 775.74 687.03 800.01 671.31C826.39 654.22 846.87 629.98 847.92 592.63C848.32 578.44 845.58 563.63 840.24 548.89C834.24 532.17 824.96 515.56 817.47 497.14C810.22 479.48 805.23 459.38 806.57 442.04C808.57 415.43 821.93 401.89 831.78 394.99C843.35 386.87 852.17 374.46 866.11 362.09C892.86 338.35 935.88 311.38 988.2 320.36C1064.78 333.5 1159.37 425.76 1238.01 458.88C1259.84 468.07 1282.92 475.88 1305.94 479.6C1328.65 483.16 1351.2 482.03 1366.76 478.5C1389.39 473.37 1396.88 470.44 1404.13 472.71C1415.54 476.28 1414.52 498.31 1433.58 486.85C1445.64 479.59 1459.43 466.2 1470.77 447.18C1477.99 434.991 1483.5 421.868 1487.14 408.18C1496.68 372.81 1495.41 333.06 1500.25 295.79C1507.08 243.31 1522.1 204.11 1558.89 180.57C1564.42 176.983 1570.31 174 1576.47 171.67C1619.66 155.61 1676.59 167.67 1728.65 184.34L1743.35 189.08C1858.22 225.86 1970.11 291.59 2090.2 337" stroke="#333333" stroke-width="0.46" stroke-miterlimit="10"/>
<path d="M-160.22 1005.24C-148.09 931 -105.13 830.77 -49 756.19C-32.0284 733.605 -13.2104 712.469 7.26003 693C46.19 656.15 83.31 635 121.26 630.16C153.56 639.8 184 657.8 221.43 643C266.16 625.25 289.19 563.53 302.97 510.37C317.8 453.86 339.97 391.88 392.22 379.46C446.58 366.54 508.72 437.98 539.52 484.46C548.07 497.36 554.84 511.22 561.05 525.14C573.56 553 584 582.2 598.22 610C619.67 651.84 654.64 691.57 696.22 701C698.78 701.57 701.32 702.08 703.84 702.41C739.25 707.05 771.77 689.59 794.94 670.41C819.8 649.82 838.12 622.52 837.03 583.52C836.63 568.7 833.14 553.39 827.03 538.26C820.03 520.98 809.9 503.98 801.91 484.91C794.15 466.56 789.15 445.4 791.52 427.42C795.14 399.96 811.43 387.68 823.39 382.66C836.54 377.14 846.52 368.12 861.16 359.27C889.33 342.27 933.54 321.84 987.16 334.04C1065.16 351.78 1161.27 441.66 1242.92 474.56C1265.41 483.62 1289.14 491.32 1312.72 494.27C1336.02 497.11 1359.07 494.53 1373.99 489.11C1395.77 481.2 1399.99 474.78 1404.39 475.71C1411.88 477.28 1408.62 493.71 1424.18 479.54C1434.07 470.54 1445.63 455.74 1455.18 435.54C1461.31 422.591 1465.96 408.992 1469.05 395C1477.11 358.53 1475.9 317.81 1482.4 280.16C1491.57 227.07 1511.4 189.81 1550.57 169.31C1556.44 166.187 1562.62 163.68 1569.01 161.83C1614.01 149.1 1670.65 164.41 1722.94 183.69C1727.85 185.5 1732.77 187.33 1737.7 189.14C1852.92 231.31 1964.8 303.84 2087.61 349.43" stroke="#333333" stroke-width="0.5" stroke-miterlimit="10"/>
<path d="M-154.95 1011.72C-136.82 939.34 -91.79 839.72 -37.67 763.08C-21.3364 739.973 -3.58219 717.904 15.4901 697C51.4901 657.61 84.38 632.85 119.83 623.22C149.92 630.68 178.2 645.09 213.35 629.05C255.07 610.05 277.01 550.24 290.51 498.65C305.21 443.24 327.15 383.33 377.74 371.52C433.43 358.52 497.89 436.74 528.33 484.87C536.94 498.49 543.65 513.07 549.81 527.73C562.21 557.12 572.41 587.73 586.94 616.85C608.82 660.63 646.03 702.12 689.86 709.85C692.57 710.33 695.24 710.72 697.86 710.93C735.28 713.84 767.78 692.21 789.86 669.52C813.22 645.52 829.36 615.07 826.14 574.43C824.7 558.257 820.545 542.442 813.85 527.65C805.99 509.81 794.85 492.42 786.38 472.71C778.1 453.65 773.09 431.44 776.5 412.81C781.68 384.51 800.92 373.32 815.04 370.35C829.73 367.26 840.9 361.8 856.23 356.47C885.86 346.17 931.23 332.31 986.09 347.74C1065.47 370.05 1163.14 457.6 1247.81 490.27C1270.93 499.2 1295.33 506.75 1319.47 508.97C1343.36 511.08 1366.9 507.05 1381.2 499.74C1402.12 489.05 1402.92 481.37 1404.62 478.74C1408.53 476.57 1402.68 489.04 1414.75 472.27C1422.47 461.55 1431.81 445.27 1439.63 424.01C1444.64 410.29 1448.42 396.151 1450.92 381.76C1457.51 344.17 1456.36 302.5 1464.51 264.46C1476.03 210.76 1500.66 175.46 1542.22 157.98C1548.44 155.325 1554.9 153.295 1561.52 151.92C1608.33 142.53 1664.68 161.09 1717.19 182.92C1722.13 184.98 1727.06 187.05 1732.02 189.09C1847.58 236.64 1959.45 315.99 2085.02 361.75" stroke="#333333" stroke-width="0.54" stroke-miterlimit="10"/>
<path d="M-149.69 1018.21C-125.54 947.71 -78.4399 848.68 -26.3299 770C-9.39994 744.44 7.79006 721.24 23.7301 701C56.8601 659.06 85.4601 630.74 118.43 616.28C146.28 621.52 172.43 632.36 205.27 615.12C244 594.83 264.83 537 278.05 487C292.62 432.69 314.35 374.88 363.27 363.66C420.27 350.6 487.04 435.58 517.14 485.35C525.81 499.69 532.47 515 538.57 530.4C550.85 561.25 560.84 593.32 575.66 623.72C597.96 669.44 637.42 712.72 683.5 718.82C686.35 719.19 689.15 719.47 691.92 719.56C731.37 720.73 763.92 694.96 784.77 668.75C806.67 641.26 820.59 607.75 815.24 565.44C812.976 548.669 808.048 532.366 800.64 517.15C791.86 498.76 779.81 480.97 770.82 460.61C762.03 440.86 757.01 417.61 761.45 398.32C768.18 369.17 790.86 361.97 806.66 358.15C822.46 354.33 835.27 355.6 851.28 353.78C882.38 350.23 928.88 342.87 985.03 361.54C1065.81 388.41 1165.03 473.65 1252.69 506.09C1276.46 514.88 1301.51 522.29 1326.23 523.78C1350.69 525.16 1374.74 519.67 1388.4 510.48C1408.47 496.99 1405.3 486.94 1404.85 481.85C1404.4 476.76 1396.73 484.48 1405.32 465.09C1412.91 448.072 1419.16 430.485 1424 412.49C1427.88 398.075 1430.8 383.42 1432.76 368.62C1437.86 329.91 1436.76 287.28 1446.59 248.87C1460.46 194.55 1489.87 161.13 1533.82 146.76C1540.38 144.561 1547.14 143.004 1554 142.11C1602.61 136.11 1658.67 157.87 1711.41 182.34C1716.41 184.64 1721.32 186.95 1726.3 189.23C1842.22 242.15 1954.07 328.32 2082.3 374.23" stroke="#333333" stroke-width="0.57" stroke-miterlimit="10"/>
<path d="M-144.42 1024.7C-114.27 956.08 -65.0999 857.64 -14.9999 776.88C1.28008 750.64 17.4101 726.48 32.0001 705.06C62.2301 660.57 86.5701 628.67 117.07 609.38C142.67 612.38 166.67 619.7 197.23 601.24C232.92 579.69 252.59 523.7 265.63 475.24C279.96 422 301.63 366.32 348.83 355.69C407.17 342.57 476.22 434.32 505.99 485.69C514.72 500.75 521.32 516.79 527.37 532.92C539.54 565.22 549.31 598.74 564.37 630.44C587.1 678.1 628.81 723.1 677.14 727.58C680.068 727.866 683.008 727.999 685.95 727.98C727.41 727.4 759.95 697.52 779.68 667.77C800.16 636.86 811.82 600.21 804.34 556.26C801.267 538.894 795.565 522.098 787.43 506.45C777.74 487.51 764.74 469.32 755.26 448.31C745.96 427.87 740.91 403.54 746.41 383.62C754.68 353.62 779.99 344.26 798.27 345.75C816.27 347.21 829.64 349.23 846.33 350.88C878.9 354.12 926.55 353.22 983.96 375.15C1066.16 406.56 1166.86 489.51 1257.57 521.71C1281.99 530.37 1307.7 537.63 1332.98 538.38C1357.98 539.04 1382.57 532.08 1395.6 521.02C1414.81 504.73 1408.65 492.29 1405.08 484.78C1401.23 476.68 1390.76 479.72 1395.9 457.71C1399.22 443.5 1404.2 424.46 1408.46 400.85C1410.86 387.54 1413.14 372.26 1414.68 355.37C1418.3 315.55 1417.29 271.95 1428.74 233.16C1444.97 178.23 1479.16 146.71 1525.51 135.42C1532.4 133.697 1539.43 132.615 1546.51 132.19C1596.94 129.51 1652.7 154.54 1705.66 181.61C1710.66 184.14 1715.66 186.7 1720.66 189.21C1836.93 247.49 1948.77 340.49 2079.76 386.59" stroke="#333333" stroke-width="0.61" stroke-miterlimit="10"/>
<path d="M-139.16 1031.18C-103 964.45 -51.7599 866.6 -3.6499 783.77C11.9801 756.87 27.0501 731.77 40.2001 709.09C67.5201 662.09 87.6001 626.58 115.62 602.47C138.99 603.28 160.84 607.04 189.11 587.34C221.79 564.57 240.37 510.44 253.11 463.6C267.31 411.46 288.73 357.9 334.3 347.84C393.97 334.68 465.3 433.18 494.74 486.22C503.52 502.01 510.08 518.77 516.07 535.64C528.07 569.4 537.68 604.36 553.07 637.36C576.22 686.96 620.19 733.71 670.75 736.55C673.82 736.735 676.898 736.755 679.97 736.61C723.44 734.26 756.09 700.28 774.57 667C793.65 632.65 803.03 592.87 793.42 547.28C789.539 529.346 783.072 512.072 774.22 496C763.61 476.51 749.68 457.92 739.7 436.27C729.88 415.12 724.82 389.74 731.36 369.18C741.17 338.33 769.64 329.82 789.89 333.6C809.59 337.28 824 343.11 841.38 348.24C875.38 358.24 924.23 363.81 982.89 389.01C1066.52 424.94 1168.72 505.63 1262.45 537.57C1287.52 546.12 1313.89 553.23 1339.73 553.24C1365.37 553.17 1390.4 544.74 1402.81 531.81C1421.14 512.71 1411.81 497.81 1405.31 487.96C1397.91 476.8 1384.76 475.22 1386.47 450.59C1387.57 434.59 1390.4 414.19 1392.87 389.43C1394.26 375.51 1395.65 359.66 1396.55 342.33C1398.68 301.39 1397.75 256.83 1410.86 217.66C1429.44 162.13 1468.4 132.48 1517.15 124.3C1524.38 123.039 1531.72 122.429 1539.06 122.48C1591.3 123.17 1646.77 151.42 1699.96 181.08C1704.96 183.86 1709.96 186.66 1714.96 189.4C1831.61 253 1943.42 352.83 2077.14 399.1" stroke="#333333" stroke-width="0.64" stroke-miterlimit="10"/>
<path d="M-133.89 1037.67C-91.73 972.82 -38.41 875.55 7.68999 790.67C22.69 763.09 36.69 737 48.43 713.12C72.85 663.55 88.67 624.5 114.22 595.56C135.35 594.15 155.06 594.41 181.04 573.44C210.7 549.44 228.19 497.19 240.67 451.92C254.74 400.92 275.96 349.44 319.84 339.92C380.84 326.72 454.4 431.99 483.58 486.65C492.39 503.16 498.91 520.65 504.85 538.25C516.79 573.46 526.13 609.87 541.85 644.17C565.43 695.71 611.64 744.17 664.45 745.4C667.656 745.489 670.865 745.395 674.06 745.12C719.54 741.01 752.3 702.92 769.55 666.12C787.25 628.33 794.32 585.44 782.55 538.19C777.856 519.668 770.603 501.89 761 485.37C749.48 465.37 734.62 446.37 724.14 424.04C713.81 402.2 708.72 375.75 716.31 354.56C727.66 322.85 759.31 315.19 781.5 321.27C803.02 327.17 818.36 336.82 836.43 345.42C871.9 362.28 921.91 374.21 981.82 402.69C1066.89 443.13 1170.58 521.57 1267.34 553.26C1293.04 561.68 1320.08 568.64 1346.49 567.92C1372.71 567.12 1398.22 557.23 1410.01 542.42C1427.46 520.51 1414.93 503.09 1405.54 490.96C1394.54 476.72 1378.76 470.55 1377.04 443.29C1375.92 425.58 1376.61 403.73 1377.29 377.83C1377.66 363.3 1378.16 346.88 1378.43 329.11C1379.07 287.06 1378.22 241.54 1392.97 201.98C1413.97 145.84 1457.65 118.06 1508.8 112.98C1516.36 112.192 1523.98 112.058 1531.57 112.58C1585.57 116.64 1640.8 148.11 1694.21 180.37C1699.21 183.37 1704.21 186.42 1709.3 189.37C1826.3 258.37 1938.08 365.04 2074.52 411.47" stroke="#333333" stroke-width="0.68" stroke-miterlimit="10"/>
<path d="M-128.63 1044.16C-80.45 981.16 -25.07 884.51 19.03 797.56C33.36 769.32 46.32 742.25 56.67 717.15C78.18 665.04 89.75 622.41 112.82 588.64C131.7 585 149.29 581.8 173 559.53C199.67 534.43 216.05 483.94 228.25 440.24C242.25 390.3 263.25 341 305.4 332.06C367.75 318.85 443.53 430.85 472.4 487.13C481.25 504.37 487.74 522.58 493.62 540.92C505.44 577.59 514.57 615.44 530.53 651.04C554.53 704.53 603 754.78 658.06 754.32C661.402 754.296 664.741 754.089 668.06 753.7C715.54 747.8 748.43 705.62 764.42 665.29C780.76 624.05 785.51 578.04 771.63 529.15C766.147 510.046 758.129 491.764 747.79 474.79C735.34 454.2 719.56 434.79 708.58 411.87C697.73 389.33 692.58 361.82 701.26 339.98C714.15 307.42 749.06 300.62 773.12 308.98C796.49 317.11 812.7 330.58 831.48 342.64C868.37 366.32 919.6 384.64 980.76 416.41C1067.27 461.35 1172.44 537.57 1272.22 568.99C1298.57 577.29 1326.22 584.09 1353.22 582.63C1380.03 581.11 1406.02 569.75 1417.22 553.07C1433.79 528.35 1418.02 508.44 1405.78 493.99C1391.12 476.68 1372.78 465.94 1367.62 435.99C1364.28 416.56 1362.84 393.29 1361.71 366.24C1361.08 351.1 1360.71 334.12 1360.32 315.89C1359.47 272.73 1358.78 226.28 1375.1 186.31C1398.51 129.61 1446.92 103.63 1500.46 101.7C1508.35 101.363 1516.26 101.697 1524.09 102.7C1579.94 110.14 1634.84 144.82 1688.47 179.7C1693.47 182.97 1698.55 186.24 1703.63 189.46C1821 263.82 1932.74 377.34 2071.9 424" stroke="#333333" stroke-width="0.71" stroke-miterlimit="10"/>
<path d="M-123.36 1050.64C-69.18 989.55 -11.72 893.47 30.38 804.46C44.05 775.55 55.95 747.46 64.9 721.18C83.52 666.53 90.82 620.32 111.41 581.73C128.06 575.89 143.55 569.22 164.88 545.63C188.59 519.41 203.83 470.68 215.75 428.57C229.57 379.72 250.38 332.57 290.89 324.17C354.58 311 432.57 429.69 461.2 487.59C470.09 505.59 476.54 524.49 482.37 543.59C494.08 581.69 503 621 519.24 657.88C543.67 713.31 594.39 765.32 651.68 763.2C655.166 763.068 658.642 762.734 662.09 762.2C711.57 754.52 744.62 708.2 759.33 664.39C774.33 619.69 776.74 570.59 760.73 520.04C754.452 500.37 745.663 481.591 734.58 464.17C721.21 443.04 704.5 423.24 693.02 399.65C681.66 376.41 676.52 347.84 686.22 325.37C700.64 291.94 738.81 286.02 764.74 296.67C789.98 307.05 807.03 324.3 826.53 339.83C864.82 370.33 917.3 395.06 979.69 430.11C1067.69 479.54 1174.29 553.55 1277.1 584.7C1304.1 592.87 1332.45 599.52 1359.99 597.33C1387.53 595.14 1413.85 582.26 1424.42 563.7C1440.1 536.18 1421.07 513.78 1406 497.01C1387.69 476.63 1366.75 461.31 1358.18 428.74C1352.61 407.58 1349.04 382.88 1346.11 354.68C1344.48 338.93 1343.18 321.39 1342.19 302.68C1339.84 258.41 1339.19 211 1357.19 170.68C1382.95 113.38 1436.19 89.24 1492.07 90.44C1500.29 90.5778 1508.48 91.3905 1516.57 92.87C1574.22 103.7 1628.84 141.58 1682.7 179.03C1687.7 182.54 1692.82 186.03 1697.92 189.5C1815.66 269.18 1927.38 389.56 2069.26 436.34" stroke="#333333" stroke-width="0.75" stroke-miterlimit="10"/>
<path d="M-118.1 1057.13C-57.91 997.92 1.62003 902.43 41.72 811.35C54.72 781.77 65.58 752.77 73.13 725.21C88.85 668.02 91.89 618.21 110.01 574.81C124.41 566.81 137.83 556.66 156.8 531.73C177.58 504.41 191.65 457.43 203.29 416.89C216.99 369.14 237.59 324.15 276.41 316.28C341.45 303.09 421.64 428.53 450 488C458.92 506.7 465.34 526.35 471.13 546.16C482.71 585.74 491.41 626.49 507.95 664.68C532.8 722.05 585.77 775.81 645.31 772.04C648.933 771.828 652.539 771.397 656.11 770.75C707.59 761.28 740.8 710.87 754.23 663.54C768.63 613.469 767.093 560.158 749.83 511C742.761 490.763 733.201 471.485 721.37 453.61C707.07 431.93 689.44 411.73 677.46 387.49C665.59 363.56 660.46 333.92 671.17 310.81C687.17 276.53 728.58 271.49 756.35 284.41C783.5 297.04 801.35 318.08 821.58 337.08C861.27 374.39 915.01 405.51 978.58 443.86C1068.03 497.78 1176.1 569.59 1281.95 600.45C1309.58 608.51 1338.6 615.01 1366.7 612.08C1394.8 609.15 1421.62 594.81 1431.58 574.38C1446.37 544.06 1424.09 519.18 1406.19 500.08C1384.19 476.62 1360.71 456.74 1348.71 421.51C1340.92 398.62 1335.22 372.51 1330.49 343.15C1327.84 326.79 1325.64 308.68 1324.02 289.57C1320.18 244.19 1319.66 195.81 1339.28 155.08C1367.4 97.1601 1425.4 74.8601 1483.7 79.2101C1492.24 79.8055 1500.72 81.0897 1509.06 83.0501C1568.51 97.2701 1622.86 138.35 1676.93 178.39C1682.01 182.15 1687.11 185.883 1692.22 189.59C1810.5 274.38 1922.01 401.84 2066.63 448.78" stroke="#333333" stroke-width="0.79" stroke-miterlimit="10"/>
<path d="M-112.83 1063.62C-46.64 1006.29 14.97 911.39 53.06 818.25C65.43 788 75.21 758.03 81.37 729.25C94.18 669.51 92.96 616.15 108.61 567.9C120.77 557.63 132.15 544.12 148.72 517.83C166.61 489.43 179.48 444.18 190.83 405.21C204.41 358.56 224.83 315.74 261.94 308.39C328.33 295.25 410.7 427.39 438.82 488.5C447.77 507.93 454.17 528.29 459.9 548.84C471.37 589.84 479.9 632.07 496.67 671.56C522 730.87 577.17 786.39 639 781C642.766 780.678 646.51 780.13 650.21 779.36C703.67 768.1 737.06 713.58 749.21 662.75C762.036 609.353 758.453 553.328 738.93 502C731.074 481.2 720.743 461.421 708.16 443.09C692.94 420.87 674.37 400.26 661.9 375.38C649.51 350.75 644.32 320.03 656.12 296.3C673.6 261.11 718.36 257 748 272.15C777 287.05 795.68 311.9 816.66 334.33C857.66 378.52 912.75 415.96 977.59 457.61C1068.51 516.01 1178.02 585.61 1286.9 616.21C1315.17 624.15 1344.9 630.49 1373.53 626.82C1402.16 623.15 1429.53 607.37 1438.86 585.06C1452.75 551.94 1427.22 524.57 1406.49 503.15C1380.84 476.62 1354.77 452.15 1339.35 414.27C1329.35 389.67 1321.51 362.09 1314.97 331.62C1311.32 314.62 1308.18 295.98 1305.97 276.42C1300.55 229.93 1300.19 180.59 1321.47 139.42C1351.93 80.8999 1414.75 60.4199 1475.41 67.9199C1484.28 68.9841 1493.05 70.7428 1501.64 73.1799C1562.88 90.7899 1616.96 135.07 1671.26 177.71C1676.35 181.71 1681.46 185.68 1686.61 189.62C1805.25 279.78 1916.74 414.06 2064.08 461.18" stroke="#333333" stroke-width="0.82" stroke-miterlimit="10"/>
<path d="M-107.57 1070.1C-35.3699 1014.66 28.3101 920.34 64.4301 825.15C76.1501 794.22 84.8701 763.28 89.6301 733.28C99.5101 671 94.0001 614.06 107.2 561C117.13 548.51 126.52 531.6 140.64 503.94C155.64 474.46 167.38 430.94 178.37 393.54C191.93 348.02 212.02 307.34 247.46 300.54C315.21 287.43 399.75 426.22 427.64 489C436.64 509.17 442.98 530.25 448.64 551.53C460 594 468.28 637.61 485.39 678.4C511.1 739.65 568.57 796.92 632.59 789.85C636.494 789.42 640.368 788.752 644.19 787.85C699.64 774.79 733.19 716.15 744.06 661.85C751.898 622.289 751.59 581.545 743.154 542.107C734.719 502.669 718.334 465.364 695 432.47C678.85 409.71 659.36 388.69 646.39 363.16C633.49 337.83 628.26 306.05 641.13 281.68C660.13 245.68 708.2 242.45 739.64 259.87C770.64 277.04 790.04 305.63 811.73 331.55C854.14 382.55 910.49 426.39 976.54 471.34C1068.95 534.22 1179.9 601.67 1291.8 631.95C1320.72 639.78 1351.06 645.95 1380.3 641.55C1409.54 637.15 1437.3 619.91 1446.08 595.72C1459.08 559.8 1430.32 529.91 1406.74 506.19C1377.47 476.56 1348.74 447.62 1329.95 407.02C1317.67 380.72 1307.76 351.67 1299.4 320.07C1294.46 301.37 1290.61 282.398 1287.87 263.25C1280.96 215.65 1280.67 165.34 1303.6 123.84C1336.37 64.7099 1404 46.0699 1467 56.7199C1476.19 58.2406 1485.25 60.4706 1494.1 63.3899C1557.1 84.3899 1610.93 131.87 1665.45 177.1C1670.57 181.353 1675.71 185.563 1680.87 189.73C1799.87 285.27 1911.34 426.37 2061.4 473.66" stroke="#333333" stroke-width="0.86" stroke-miterlimit="10"/>
<path d="M-102.3 1076.59C-24.0899 1023.03 41.7001 929.3 75.7001 832.04C86.7701 800.45 94.4301 768.54 97.8001 737.31C104.8 672.49 86.5601 609.74 105.8 554.07C111.21 538.39 120.93 519.07 132.56 490.02C144.8 459.46 155.2 417.7 165.91 381.85C179.34 337.43 199.23 298.94 232.98 292.61C302.09 279.61 388.79 425.06 416.45 489.41C425.45 510.3 431.8 532.1 437.45 554.12C448.69 598.12 456.74 643.12 474.14 685.23C500.27 748.43 559.99 807.46 626.26 798.74C630.303 798.213 634.31 797.441 638.26 796.43C695.65 781.57 729.43 718.8 739 661C745.785 619.338 744.219 576.743 734.392 535.692C724.565 494.641 706.675 455.954 681.76 421.88C664.68 398.58 644.27 377.15 630.76 350.97C617.34 324.97 612.09 292.09 626.01 267.1C646.55 230.21 697.93 227.92 731.18 247.58C764.08 267.04 784.3 299.36 806.71 328.77C850.53 386.52 908.15 436.77 975.4 485.05C1069.31 552.42 1181.63 617.89 1296.61 647.68C1326.16 655.44 1357.18 661.4 1386.98 656.27C1416.78 651.14 1444.98 632.43 1453.21 606.37C1465.21 567.63 1433.29 535.29 1406.9 509.23C1373.9 476.55 1342.68 443.02 1320.45 399.76C1305.97 371.76 1293.91 341.24 1283.75 308.51C1277.78 289.359 1273.08 269.837 1269.67 250.07C1261.28 201.36 1261.07 150.07 1285.67 108.2C1320.84 48.47 1393.29 31.65 1458.67 45.45C1468.19 47.4434 1477.55 50.1442 1486.67 53.53C1551.42 78.05 1605.02 128.61 1659.77 176.44C1664.9 180.933 1670.06 185.383 1675.25 189.79C1794.6 290.7 1906 438.63 2058.81 486.08" stroke="#333333" stroke-width="0.89" stroke-miterlimit="10"/>
<path d="M-97 1083.08C-12.78 1031.4 55 938.26 87.12 838.94C97.54 806.68 104.12 773.8 106.12 741.34C110.23 673.98 90.59 608.89 104.45 547.16C108.34 529.82 115.45 506.49 124.53 476.16C134.01 444.5 143.07 404.48 153.53 370.21C166.83 326.89 186.53 290.59 218.59 284.76C289 271.89 377.82 423.91 405.26 489.86C414.26 511.49 420.61 534.01 426.18 556.76C437.3 602.17 445.18 648.69 462.82 692.07C489.38 757.21 551.35 817.99 619.82 807.62C624.005 806.996 628.146 806.111 632.22 804.97C691.62 788.31 725.6 721.41 733.85 660.16C742.193 596.991 732.605 532.749 706.18 474.77C695.984 452.298 683.344 431.016 668.49 411.31C650.49 387.51 629.15 365.63 615.18 338.81C601.21 311.99 596 278.14 611 252.54C633 214.74 687.76 213.42 722.84 235.31C757.67 257.06 778.68 293.11 801.79 326.01C847 390.54 906 447.12 974.35 498.79C1069.9 570.47 1183.51 633.88 1301.52 663.42C1331.71 671.06 1363.39 676.88 1393.75 671C1424.11 665.12 1452.87 645 1460.44 617C1471.6 575.48 1436.35 540.65 1407.15 512.25C1370.5 476.51 1336.72 438.4 1311.04 392.47C1294.07 361.92 1279.73 329.981 1268.18 297C1261.22 277.402 1255.67 257.33 1251.57 236.94C1241.69 187.13 1241.57 134.89 1267.78 92.62C1305.31 32.29 1382.61 17.17 1450.32 34.25C1460.16 36.6822 1469.79 39.8546 1479.15 43.74C1545.69 71.58 1599 125.37 1654 175.8C1659.16 180.52 1664.34 185.207 1669.55 189.86C1789.29 296.14 1900.69 450.86 2056.2 498.51" stroke="#333333" stroke-width="0.93" stroke-miterlimit="10"/>
<path d="M-91.77 1089.56C-1.54996 1039.76 68.35 947.22 98.42 845.83C108.234 813.216 113.579 779.421 114.31 745.37C115.51 675.47 94.52 607.51 102.99 540.24C105.42 521 109.87 493.91 116.4 462.24C123.16 429.44 130.84 391.24 140.99 358.51C154.16 316.29 173.66 282.19 203.99 276.85C275.84 264.21 366.69 422.85 393.99 490.34C402.99 512.72 409.35 535.93 414.86 559.42C425.86 606.28 433.49 654.26 451.46 698.93C478.46 766.01 542.67 828.54 613.46 816.53C617.784 815.79 622.058 814.788 626.26 813.53C687.65 795 721.94 724 728.8 659.3C735.94 593.66 724.12 526.15 695.32 465.7C684.362 442.658 670.951 420.866 655.32 400.7C636.38 376.35 614.14 354.07 599.67 326.6C585.2 299.13 579.88 264.2 595.93 238C619.5 199.35 677.54 198.95 714.44 223.07C751.34 247.19 773 286.89 796.82 323.28C843.47 394.58 903.68 457.65 973.29 512.56C1070.29 588.8 1185.38 649.9 1306.4 679.2C1337.24 686.71 1369.58 692.38 1400.51 685.77C1431.44 679.16 1460.7 657.57 1467.64 627.77C1477.92 583.46 1439.39 546.15 1407.38 515.4C1367.05 476.62 1330.74 433.92 1301.61 385.33C1282.56 353.45 1266.17 320.054 1252.61 285.48C1244.65 265.445 1238.24 244.823 1233.46 223.8C1222.09 172.81 1222 119.61 1249.9 77C1289.78 16 1371.9 2.78003 1442 23C1452.15 25.8973 1462.08 29.5439 1471.69 33.91C1540.02 65.15 1593.08 122.17 1648.28 175.19C1653.45 180.163 1658.66 185.09 1663.89 189.97C1784 301.62 1895.37 463.19 2053.6 510.97" stroke="#333333" stroke-width="0.96" stroke-miterlimit="10"/>
<path d="M-86.5099 1096.05C41.0001 1032.57 125.88 891.79 122.54 749.4C120.84 676.96 98.3201 605.72 101.54 533.33C104.76 460.94 118.06 281.04 189.54 268.93C262.76 256.53 355.85 421.59 382.86 490.77C409.87 559.95 412.86 636.77 440.24 705.77C467.62 774.77 534.12 839.08 607.12 825.41C678.92 812 717.68 731.22 723.71 658.44C731.62 563 701.8 465 642.1 390.14C622.25 365.25 599.1 342.57 584.1 314.45C569.1 286.33 563.8 250.26 580.89 223.39C606.01 183.88 667.35 184.39 706.05 210.75C744.75 237.11 767.33 280.59 791.87 320.46C906.7 507 1098 644.93 1311.28 694.9C1342.77 702.28 1375.76 707.8 1407.28 700.46C1438.8 693.12 1468.54 670.08 1474.86 638.36C1484.26 591.26 1442.45 551.47 1407.63 518.36C1334.9 449.158 1276.86 366.001 1237 273.86C1207.65 205.86 1190.1 122.39 1232 61.33C1280.4 -9.18996 1387.47 -13.81 1464.17 24C1540.87 61.81 1596.83 130.38 1658.17 190C1778.66 307 1890 475.39 2051 523.36" stroke="#333333" stroke-miterlimit="10"/>
</g>
<defs>
<clipPath id="clip0_195_4422">
<rect width="2314.99" height="1096.5" fill="white" transform="translate(-209)"/>
</clipPath>
</defs>
</svg>
