<svg width="153" height="142" viewBox="0 0 153 142" fill="none" xmlns="http://www.w3.org/2000/svg">
<g opacity="0.2" filter="url(#filter0_f_266_8733)">
<path d="M67.4529 14.9368L68.9091 56.3414L113.065 6L71.1401 58.2128L137.335 48.0229L71.6458 61.08L128.906 95.8095L70.1896 63.6014L78.1135 91.9796L67.4529 64.5972L43.1832 127L64.7162 63.6014L6 95.8095L63.26 61.08L33.2501 56.3414L63.7657 58.2128L21.8409 6L65.9967 56.3414L67.4529 14.9368Z" fill="#FFE815"/>
</g>
<g opacity="0.6" filter="url(#filter1_f_266_8733)">
<circle cx="72.3139" cy="71.1255" r="32.7953" fill="url(#paint0_radial_266_8733)"/>
</g>
<circle cx="83.5248" cy="113.413" r="1.47859" fill="white"/>
<circle cx="104.383" cy="108.706" r="1.47859" fill="white"/>
<circle opacity="0.4" cx="73.4704" cy="92.1215" r="1.47859" fill="white"/>
<circle cx="82.8869" cy="66.8167" r="1.47859" fill="white"/>
<circle cx="66.0775" cy="64.6197" r="0.591436" fill="white"/>
<circle cx="54.2487" cy="50.4252" r="0.591436" fill="white"/>
<circle opacity="0.7" cx="83.2291" cy="44.5109" r="0.591436" fill="white"/>
<circle cx="60.7545" cy="85.32" r="0.591436" fill="white"/>
<circle cx="64.8946" cy="104.246" r="0.591436" fill="white"/>
<circle cx="69.0346" cy="123.172" r="0.591436" fill="white"/>
<circle opacity="0.7" cx="94.4664" cy="97.1487" r="0.591436" fill="white"/>
<circle cx="41.8285" cy="93.6001" r="0.591436" fill="white"/>
<circle opacity="0.4" cx="43.0114" cy="43.3279" r="0.591436" fill="white"/>
<circle opacity="0.4" cx="96.2407" cy="55.7481" r="0.591436" fill="white"/>
<circle cx="30.5913" cy="24.402" r="0.591436" fill="white"/>
<circle opacity="0.4" cx="24.6769" cy="90.0515" r="0.591436" fill="white"/>
<circle opacity="0.7" cx="56.023" cy="113.709" r="0.591436" fill="white"/>
<circle cx="119.898" cy="71.1255" r="0.591436" fill="white"/>
<circle opacity="0.7" cx="53.953" cy="77.927" r="1.47859" fill="white"/>
<circle cx="95.3535" cy="33.5692" r="1.47859" fill="white"/>
<circle opacity="0.4" cx="53.953" cy="19.9662" r="1.47859" fill="white"/>
<circle cx="107.182" cy="68.464" r="1.47859" fill="white"/>
<circle cx="31.4784" cy="70.2383" r="1.47859" fill="white"/>
<defs>
<filter id="filter0_f_266_8733" x="0.0904508" y="0.0904508" width="143.154" height="132.819" filterUnits="userSpaceOnUse" color-interpolation-filters="sRGB">
<feFlood flood-opacity="0" result="BackgroundImageFix"/>
<feBlend mode="normal" in="SourceGraphic" in2="BackgroundImageFix" result="shape"/>
<feGaussianBlur stdDeviation="2.95477" result="effect1_foregroundBlur_266_8733"/>
</filter>
<filter id="filter1_f_266_8733" x="2.09507" y="0.906677" width="140.438" height="140.438" filterUnits="userSpaceOnUse" color-interpolation-filters="sRGB">
<feFlood flood-opacity="0" result="BackgroundImageFix"/>
<feBlend mode="normal" in="SourceGraphic" in2="BackgroundImageFix" result="shape"/>
<feGaussianBlur stdDeviation="18.7117" result="effect1_foregroundBlur_266_8733"/>
</filter>
<radialGradient id="paint0_radial_266_8733" cx="0" cy="0" r="1" gradientUnits="userSpaceOnUse" gradientTransform="translate(72.3139 71.1255) rotate(90) scale(32.7953)">
<stop offset="0.685" stop-color="#FFE815"/>
<stop offset="1" stop-color="#EA6804"/>
</radialGradient>
</defs>
</svg>
