<svg width="86" height="86" viewBox="0 0 86 86" fill="none" xmlns="http://www.w3.org/2000/svg">
<path d="M61 24H25C23.4092 24.0017 21.8841 24.6344 20.7592 25.7592C19.6344 26.8841 19.0017 28.4092 19 30V55.7143C19.0017 57.3051 19.6344 58.8302 20.7592 59.955C21.8841 61.0799 23.4092 61.7126 25 61.7143H61C62.5908 61.7126 64.1159 61.0799 65.2408 59.955C66.3656 58.8302 66.9983 57.3051 67 55.7143V30C66.9983 28.4092 66.3656 26.8841 65.2408 25.7592C64.1159 24.6344 62.5908 24.0017 61 24ZM59.4807 33.9246L44.0521 45.9246C43.7513 46.1585 43.3811 46.2855 43 46.2855C42.6189 46.2855 42.2487 46.1585 41.9479 45.9246L26.5193 33.9246C26.338 33.7878 26.1858 33.6162 26.0714 33.42C25.957 33.2237 25.8827 33.0067 25.8529 32.7815C25.8231 32.5563 25.8384 32.3274 25.8978 32.1082C25.9572 31.8889 26.0596 31.6837 26.199 31.5044C26.3385 31.325 26.5121 31.1752 26.71 31.0636C26.9078 30.952 27.1259 30.8808 27.3514 30.8542C27.577 30.8275 27.8057 30.846 28.0241 30.9085C28.2424 30.971 28.4462 31.0763 28.6236 31.2182L43 42.3996L57.3764 31.2182C57.7359 30.9467 58.1878 30.8277 58.6344 30.8868C59.081 30.9459 59.4864 31.1784 59.7629 31.534C60.0394 31.8896 60.1648 32.3398 60.112 32.7872C60.0592 33.2345 59.8324 33.6432 59.4807 33.9246Z" fill="#FDFDFD"/>
</svg>
