<svg width="86" height="86" viewBox="0 0 86 86" fill="none" xmlns="http://www.w3.org/2000/svg">
<path d="M57.4616 67.0088C55.3698 67.0088 52.4313 66.2522 48.0311 63.7939C42.6804 60.7933 38.5417 58.0231 33.2199 52.7152C28.0888 47.5873 25.5919 44.2674 22.0973 37.9082C18.1493 30.7282 18.8223 26.9646 19.5746 25.356C20.4705 23.4335 21.7929 22.2836 23.5022 21.1423C24.473 20.5062 25.5005 19.9609 26.5714 19.5134C26.6785 19.4673 26.7782 19.4234 26.8672 19.3837C27.3976 19.1447 28.2014 18.7836 29.2194 19.1694C29.8988 19.4244 30.5054 19.9463 31.4549 20.884C33.4021 22.8044 36.063 27.0814 37.0446 29.1818C37.7037 30.5974 38.1398 31.5319 38.1409 32.58C38.1409 33.807 37.5236 34.7533 36.7745 35.7746C36.6342 35.9664 36.4948 36.1497 36.3598 36.3275C35.5443 37.3992 35.3653 37.7089 35.4832 38.2619C35.7222 39.3732 37.5043 42.6813 40.4331 45.6037C43.362 48.5261 46.5748 50.1957 47.6903 50.4336C48.2669 50.5569 48.583 50.3704 49.689 49.526C49.8476 49.4049 50.0105 49.2795 50.1809 49.1541C51.3232 48.3043 52.2256 47.7031 53.4237 47.7031H53.4301C54.4728 47.7031 55.3655 48.1553 56.8444 48.9012C58.7733 49.8742 63.1789 52.5009 65.111 54.4502C66.0509 55.3975 66.5749 56.0019 66.831 56.6803C67.2168 57.7016 66.8535 58.5021 66.6167 59.0379C66.5771 59.1269 66.5331 59.2244 66.487 59.3326C66.036 60.4016 65.4875 61.4269 64.8485 62.3954C63.7093 64.0993 62.5552 65.4185 60.6283 66.3155C59.6389 66.7835 58.5561 67.0205 57.4616 67.0088Z" fill="#FDFDFD"/>
</svg>
