<svg width="32" height="32" viewBox="0 0 32 32" xmlns="http://www.w3.org/2000/svg">
<g clip-path="url(#clip0_109_115)">
<path d="M16.5115 5.925C16.459 5.8 16.3065 5.497 16 5.498C15.8807 5.50653 15.7672 5.55235 15.6754 5.62898C15.5836 5.70561 15.5182 5.80917 15.4885 5.925C14.6435 7.9335 11.657 14.7165 8.727 17.6465C8.64606 17.7275 8.59534 17.8337 8.58333 17.9476C8.57132 18.0614 8.59873 18.1759 8.661 18.272L11.08 22H10.5C10.3674 22 10.2402 22.0527 10.1464 22.1465C10.0527 22.2402 10 22.3674 10 22.5V26C10 26.1326 10.0527 26.2598 10.1464 26.3536C10.2402 26.4473 10.3674 26.5 10.5 26.5H11.5V31.5C11.5 31.6326 11.5527 31.7598 11.6464 31.8536C11.7402 31.9473 11.8674 32 12 32H20C20.1326 32 20.2598 31.9473 20.3536 31.8536C20.4473 31.7598 20.5 31.6326 20.5 31.5V26.5H21.5C21.6326 26.5 21.7598 26.4473 21.8536 26.3536C21.9473 26.2598 22 26.1326 22 26V22.5C22 22.3674 21.9473 22.2402 21.8536 22.1465C21.7598 22.0527 21.6326 22 21.5 22H20.92L23.339 18.272C23.4013 18.1759 23.4287 18.0614 23.4167 17.9476C23.4047 17.8337 23.3539 17.7275 23.273 17.6465C20.343 14.7165 17.357 7.9335 16.5115 5.925ZM16 16.5C16.1978 16.5 16.3911 16.5587 16.5556 16.6685C16.72 16.7784 16.8482 16.9346 16.9239 17.1173C16.9996 17.3 17.0194 17.5011 16.9808 17.6951C16.9422 17.8891 16.847 18.0673 16.7071 18.2071C16.5673 18.347 16.3891 18.4422 16.1951 18.4808C16.0011 18.5194 15.8 18.4996 15.6173 18.4239C15.4346 18.3482 15.2784 18.22 15.1685 18.0556C15.0586 17.8911 15 17.6978 15 17.5C15.0004 17.2349 15.1059 16.9808 15.2933 16.7933C15.4808 16.6059 15.7349 16.5004 16 16.5ZM19.5 31H12.5V26.5H19.5V31ZM21 25.5H11V23H21V25.5ZM19.7285 22H12.2715L9.7165 18.061C11.9725 15.6385 14.149 11.352 15.5 8.388V15.571C15.0287 15.6927 14.6179 15.9821 14.3447 16.385C14.0715 16.7879 13.9546 17.2766 14.0159 17.7595C14.0773 18.2424 14.3126 18.6864 14.6779 19.0082C15.0431 19.33 15.5132 19.5075 16 19.5075C16.4868 19.5075 16.9569 19.33 17.3221 19.0082C17.6874 18.6864 17.9227 18.2424 17.9841 17.7595C18.0454 17.2766 17.9285 16.7879 17.6553 16.385C17.3821 15.9821 16.9713 15.6927 16.5 15.571V8.388C17.851 11.352 20.0275 15.6385 22.2835 18.061L19.7285 22Z" fill="#808080"/>
<path d="M29.4999 4.86953e-06C29.0577 0.00132042 28.6285 0.149293 28.2794 0.420738C27.9303 0.692183 27.6811 1.07176 27.5709 1.5H17.9999V0.500005C17.9999 0.367397 17.9472 0.24022 17.8535 0.146451C17.7597 0.0526833 17.6325 4.86953e-06 17.4999 4.86953e-06H14.4999C14.3673 4.86953e-06 14.2401 0.0526833 14.1464 0.146451C14.0526 0.24022 13.9999 0.367397 13.9999 0.500005V1.5H4.42892C4.30723 1.02868 4.01781 0.61791 3.61492 0.344704C3.21203 0.0714978 2.72333 -0.0453918 2.24042 0.0159455C1.75752 0.0772827 1.31356 0.312636 0.991762 0.677889C0.669968 1.04314 0.492432 1.51322 0.492432 2C0.492432 2.48679 0.669968 2.95687 0.991762 3.32212C1.31356 3.68737 1.75752 3.92273 2.24042 3.98406C2.72333 4.0454 3.21203 3.92851 3.61492 3.65531C4.01781 3.3821 4.30723 2.97133 4.42892 2.5H10.2869C9.18274 3.0588 8.20193 3.83351 7.4026 4.77825C6.60326 5.72298 6.00166 6.81854 5.63342 8H4.49992C4.36732 8 4.24014 8.05268 4.14637 8.14645C4.0526 8.24022 3.99992 8.3674 3.99992 8.5V11.5C3.99992 11.6326 4.0526 11.7598 4.14637 11.8536C4.24014 11.9473 4.36732 12 4.49992 12H7.49992C7.63253 12 7.75971 11.9473 7.85348 11.8536C7.94724 11.7598 7.99992 11.6326 7.99992 11.5V8.5C7.99992 8.3674 7.94724 8.24022 7.85348 8.14645C7.75971 8.05268 7.63253 8 7.49992 8H6.69142C7.2331 6.46743 8.21605 5.12936 9.51655 4.15423C10.8171 3.1791 12.377 2.6105 13.9999 2.52V3.5C13.9999 3.63261 14.0526 3.75979 14.1464 3.85356C14.2401 3.94733 14.3673 4 14.4999 4H17.4999C17.6325 4 17.7597 3.94733 17.8535 3.85356C17.9472 3.75979 17.9999 3.63261 17.9999 3.5V2.52C19.6228 2.6106 21.1826 3.17924 22.483 4.15437C23.7834 5.12949 24.7663 6.46751 25.3079 8H24.4999C24.3673 8 24.2401 8.05268 24.1464 8.14645C24.0526 8.24022 23.9999 8.3674 23.9999 8.5V11.5C23.9999 11.6326 24.0526 11.7598 24.1464 11.8536C24.2401 11.9473 24.3673 12 24.4999 12H27.4999C27.6325 12 27.7597 11.9473 27.8535 11.8536C27.9472 11.7598 27.9999 11.6326 27.9999 11.5V8.5C27.9999 8.3674 27.9472 8.24022 27.8535 8.14645C27.7597 8.05268 27.6325 8 27.4999 8H26.3659C25.9977 6.81859 25.3962 5.72308 24.5969 4.77835C23.7977 3.83362 22.817 3.05887 21.7129 2.5H27.5709C27.6651 2.86128 27.8587 3.18892 28.1297 3.44572C28.4007 3.70252 28.7382 3.87818 29.1041 3.95276C29.4699 4.02734 29.8493 3.99785 30.1992 3.86765C30.5491 3.73744 30.8555 3.51173 31.0836 3.21614C31.3116 2.92056 31.4522 2.56694 31.4895 2.19545C31.5267 1.82397 31.459 1.44949 31.294 1.11455C31.1291 0.779602 30.8736 0.497615 30.5564 0.300603C30.2393 0.103591 29.8733 -0.000550024 29.4999 4.86953e-06ZM6.99992 11H4.99992V9H6.99992V11ZM26.9999 11H24.9999V9H26.9999V11ZM2.49992 3C2.30214 3 2.1088 2.94136 1.94435 2.83147C1.7799 2.72159 1.65173 2.56541 1.57604 2.38269C1.50036 2.19996 1.48055 1.9989 1.51914 1.80491C1.55772 1.61093 1.65296 1.43275 1.79282 1.2929C1.93267 1.15305 2.11085 1.0578 2.30483 1.01922C2.49881 0.980634 2.69988 1.00044 2.88261 1.07613C3.06533 1.15181 3.22151 1.27999 3.33139 1.44443C3.44127 1.60888 3.49992 1.80222 3.49992 2C3.49953 2.2651 3.39404 2.51922 3.20659 2.70667C3.01914 2.89412 2.76502 2.99961 2.49992 3ZM16.9999 3H14.9999V1H16.9999V3ZM29.4999 3C29.3021 3 29.1088 2.94136 28.9444 2.83147C28.7799 2.72159 28.6517 2.56541 28.576 2.38269C28.5004 2.19996 28.4806 1.9989 28.5191 1.80491C28.5577 1.61093 28.653 1.43275 28.7928 1.2929C28.9327 1.15305 29.1109 1.0578 29.3048 1.01922C29.4988 0.980634 29.6999 1.00044 29.8826 1.07613C30.0653 1.15181 30.2215 1.27999 30.3314 1.44443C30.4413 1.60888 30.4999 1.80222 30.4999 2C30.4995 2.2651 30.394 2.51922 30.2066 2.70667C30.0191 2.89412 29.765 2.99961 29.4999 3Z" fill="#808080"/>
</g>
<defs>
<clipPath id="clip0_109_115">
<rect width="32" height="32" fill="white"/>
</clipPath>
</defs>
</svg>
